<svg width="56" height="163" viewBox="0 0 56 163" fill="none" xmlns="http://www.w3.org/2000/svg">
<path d="M26.4135 91.19V88.72L27.0935 85.72C27.9284 84.4156 28.6671 83.052 29.3035 81.64C29.4635 81.13 30.6735 77.79 31.9835 74.19C31.9835 74.08 32.0335 73.98 32.0835 73.87V73.78C33.6535 69.45 35.3135 64.88 35.4735 64.37C35.7635 63.37 40.2935 57.72 41.4735 55.78C42.6535 53.84 47.0935 47.05 48.4235 42.71C49.7535 38.37 54.2635 15.01 54.2635 15.01C54.2635 15.01 52.8035 15.9 45.9035 32.01C39.0035 48.12 36.7235 49.19 35.5335 49.47C34.3435 49.75 35.6135 42.74 36.4535 40.76C37.2935 38.78 44.3635 12.51 44.0735 12.76C34.5935 20.31 27.8135 48.84 27.8135 48.84C27.8135 48.84 28.1935 59.13 28.1335 59.84C28.0735 60.55 23.8335 72.66 23.4435 72.73C23.0535 72.8 18.6235 48.3 18.6235 48.3C18.6235 48.3 11.0135 0.940016 9.92352 1.30002C8.83352 1.66002 7.5835 13.9 7.3435 14.45C7.1035 15 8.18352 20.1 7.42352 21.51C6.66352 22.92 6.58351 26.86 6.32351 27.76C6.06351 28.66 7.3235 32.28 7.5635 33.56C7.75749 36.2699 7.75749 38.9902 7.5635 41.7C7.13981 43.0928 6.56295 44.4344 5.8435 45.7C5.2635 46.59 5.96351 51.36 6.07351 52.78C6.18351 54.2 7.42351 56.64 7.60351 57.88C7.70179 59.5019 8.08778 61.0933 8.74349 62.58C9.82349 65.39 9.62352 61.31 10.1735 72.3C10.6053 79.0522 13.212 85.4829 17.6035 90.63C17.6035 90.63 16.3235 94.44 15.9535 95.57C15.5835 96.7 16.1735 98.34 16.2335 99C16.2935 99.66 17.8635 101.07 18.1035 102.53C18.3435 103.99 20.4835 103.78 21.2935 104.07C22.1035 104.36 25.1535 103.22 25.5435 103.12C27.4087 101.551 28.9159 99.6007 29.9635 97.4C30.9535 95.05 26.4135 91.19 26.4135 91.19Z" fill="#E8E3E3"/>
<path d="M19.8933 112.48C19.7133 112.2 11.1633 141.92 8.28325 143.84C5.40325 145.76 4.80326 149.45 3.07326 146.97C1.34326 144.49 0.263264 139.71 0.763264 138.65C1.26326 137.59 14.6433 96.14 14.6433 96.14C15.5287 97.292 16.3211 98.5125 17.0133 99.79C17.6413 101.096 18.339 102.368 19.1033 103.6C19.1033 103.6 25.3833 104.05 27.2933 101.54C29.2033 99.03 27.6433 101.69 27.6433 101.69C27.6433 101.69 29.0033 101.24 30.2233 103.26C31.4433 105.28 36.6433 129.42 38.2233 138.82C39.8033 148.22 38.7933 159.3 38.7933 159.3C38.7933 159.3 33.3233 165.68 29.7933 160.03C26.2633 154.38 20.5233 113.46 19.8933 112.48Z" fill="#8C4309"/>
<path d="M30.6834 135.73C28.9834 127.44 28.4434 118.82 26.3834 110.63C26.3034 110.3 25.7534 110.22 25.7234 110.63C25.1534 118.16 26.9134 125.82 28.2934 133.2C29.8334 141.44 31.4334 149.96 34.2934 157.86C34.3934 158.14 34.8134 158.01 34.7834 157.73C34.1334 150.34 32.1834 142.98 30.6834 135.73Z" fill="#EF9330"/>
<path d="M16.2132 107.35C16.2132 107.14 15.9532 107 15.8432 107.18C12.8932 111.67 11.5732 116.58 10.2232 121.73C8.50323 128.22 6.12324 134.55 4.54324 141.05C4.42324 141.51 5.08324 141.74 5.35324 141.4C8.62324 137.16 9.99324 132.08 11.3532 126.97C13.1332 120.47 15.0032 113.98 16.2132 107.35Z" fill="#EF9330"/>
<path d="M12.2134 115.64C9.95344 121.14 8.83346 127.17 7.04346 132.83C7.04346 132.93 7.15344 133 7.18344 132.9C9.25344 127.37 12.0834 121.7 12.6234 115.75C12.638 115.696 12.6304 115.638 12.6023 115.589C12.5742 115.54 12.5278 115.505 12.4734 115.49C12.4191 115.475 12.3611 115.483 12.3124 115.511C12.2636 115.539 12.228 115.586 12.2134 115.64Z" fill="white"/>
<path d="M18.4436 91.71C16.0336 93.03 15.9935 95.71 16.6835 98.11C17.1835 99.83 18.9736 103.36 21.0636 103.44C21.3375 103.467 21.6115 103.389 21.8304 103.222C22.0493 103.055 22.1969 102.811 22.2435 102.54C22.5735 101.1 21.1436 99.54 20.5336 98.28C20.1111 97.5024 19.8173 96.6615 19.6636 95.79C19.6683 95.0242 19.8977 94.2766 20.3236 93.64C20.8036 92.57 19.5936 91.08 18.4436 91.71Z" fill="#350300"/>
<path d="M20.5134 102.92L21.2534 103.08L20.7934 102.72C21.0334 103.16 21.2334 103.59 21.7234 103.78C21.9888 103.878 22.2785 103.89 22.5509 103.813C22.8233 103.737 23.0645 103.576 23.2399 103.354C23.4153 103.132 23.516 102.86 23.5274 102.577C23.5388 102.295 23.4604 102.015 23.3034 101.78C22.3734 100.19 19.8234 102.29 21.4034 103.63C21.2734 103.11 21.1434 102.63 21.0034 102.06C21.1834 101.8 21.1734 101.77 21.0034 101.98H20.5034C19.9234 101.98 19.9934 102.83 20.5034 102.98L20.5134 102.92Z" fill="#350300"/>
<path d="M19.2332 94.58C20.6756 94.3739 22.0998 94.0562 23.4931 93.63C24.6931 93.29 26.3732 93.11 27.1932 92.1C27.2595 92.0242 27.3068 91.9336 27.3309 91.8358C27.355 91.738 27.3553 91.6358 27.3318 91.5379C27.3083 91.4399 27.2616 91.349 27.1958 91.2729C27.1299 91.1967 27.0467 91.1374 26.9532 91.1C25.7232 90.75 24.4432 91.42 23.2832 91.83C21.8065 92.3006 20.3688 92.8857 18.9832 93.58C18.8506 93.6131 18.7365 93.6976 18.6662 93.8148C18.5959 93.932 18.575 94.0723 18.6082 94.205C18.6413 94.3376 18.7258 94.4516 18.843 94.5219C18.9602 94.5922 19.1006 94.6131 19.2332 94.58Z" fill="#350300"/>
<path d="M26.9735 92.25C27.4676 93.5122 27.8556 94.8134 28.1335 96.14C28.3135 97.55 27.5435 98.65 27.5035 99.98C27.4921 100.086 27.5079 100.194 27.5494 100.292C27.5909 100.39 27.6567 100.477 27.7407 100.543C27.8247 100.609 27.9241 100.652 28.0295 100.669C28.135 100.686 28.243 100.676 28.3435 100.64C30.0635 100.1 30.2535 97.85 30.1435 96.33C30.0235 94.5158 29.2022 92.8195 27.8535 91.6C27.3935 91.21 26.8535 91.74 26.9835 92.25H26.9735Z" fill="#350300"/>
<path d="M24.6733 93.35C25.9833 94.46 27.3633 95.8 27.3233 97.63C27.2733 99.63 25.9533 101.12 24.5433 102.34C24.4648 102.398 24.4078 102.481 24.3813 102.575C24.3548 102.668 24.3603 102.769 24.3969 102.859C24.4336 102.95 24.4993 103.025 24.5838 103.074C24.6682 103.123 24.7665 103.143 24.8633 103.13C30.6833 102.45 31.0533 92.49 24.8633 92.78C24.8003 92.7874 24.7408 92.8133 24.6926 92.8545C24.6443 92.8957 24.6094 92.9503 24.5922 93.0114C24.5751 93.0725 24.5765 93.1373 24.5963 93.1976C24.616 93.2579 24.6533 93.3109 24.7033 93.35H24.6733Z" fill="#350300"/>
<path d="M11.6134 15.13C11.2634 26.34 15.3534 36.51 17.0234 47.47C19.1834 61.56 21.2734 75.71 23.2134 89.82C23.3334 90.73 24.5934 90.52 24.5934 89.65C24.5934 76.58 20.7534 63.27 18.5234 50.43C16.5234 38.71 12.0134 27.1 11.8534 15.13C11.8534 14.99 11.6234 14.99 11.6134 15.13Z" fill="#350300"/>
<path d="M11.8033 18.9799C13.6133 36.5399 15.0833 55.5199 20.9633 72.3099C21.0233 72.4999 21.3133 72.4099 21.2933 72.2199C20.0433 62.4399 18.5133 52.6699 16.9033 42.9399C16.0933 38.0899 14.6533 33.4499 14.3233 28.5199C14.0733 24.7799 14.1233 21.9899 12.0933 18.8699C12.0728 18.8408 12.0433 18.8193 12.0093 18.8088C11.9753 18.7984 11.9388 18.7995 11.9055 18.8122C11.8722 18.8248 11.8441 18.8481 11.8256 18.8785C11.8071 18.9089 11.7992 18.9446 11.8033 18.9799Z" fill="#350300"/>
<path d="M7.06319 26.76C7.23374 29.405 7.67608 32.0255 8.38319 34.58C9.21319 38.12 8.07321 41.77 7.33321 45.21C6.33321 49.89 7.38319 56.36 9.28319 60.68C9.62319 61.47 11.0032 61.43 11.0532 60.46C11.3532 54.17 9.27318 48.23 9.90318 41.76C10.4732 36.02 8.18318 32.2 7.43318 26.76C7.43318 26.52 7.06319 26.57 7.06319 26.81V26.76Z" fill="#350300"/>
<path d="M9.93313 62.79C9.32313 73.62 12.0231 88.94 23.2931 93.88C25.0331 94.64 26.6031 92.12 25.0131 90.99C19.7231 87.21 16.0131 83.41 13.6531 77.18C11.8631 72.47 14.0532 66.81 11.2732 62.44C11.1835 62.322 11.061 62.2332 10.921 62.1848C10.7809 62.1364 10.6298 62.1306 10.4864 62.168C10.3431 62.2055 10.214 62.2845 10.1156 62.3952C10.0171 62.5059 9.95362 62.6432 9.93313 62.79Z" fill="#350300"/>
<path d="M42.2933 15.44C35.4033 21.9 31.0533 32.92 28.9533 41.96C27.2233 49.43 28.5833 57.28 25.7633 64.51C23.4414 69.8854 22.8304 75.8453 24.0133 81.58C24.3733 83.58 27.5733 83.22 27.2033 81.17C26.2033 75.52 27.5932 70.84 29.0632 65.43C30.7032 59.43 30.5032 54.52 30.6332 48.32C30.8632 37.6 35.9832 24.08 42.7132 15.88C42.9332 15.62 42.5433 15.2 42.2933 15.44Z" fill="#350300"/>
<path d="M24.5433 75.66C24.3183 77.4262 24.3183 79.2139 24.5433 80.98C24.6633 82.55 24.7732 85.13 26.0932 86.22C26.3103 86.3855 26.5707 86.4845 26.8428 86.5049C27.115 86.5253 27.3872 86.4663 27.6265 86.335C27.8658 86.2037 28.0618 86.0058 28.1908 85.7653C28.3198 85.5248 28.3763 85.252 28.3533 84.98C27.7733 82.06 26.5433 78.98 26.7733 75.98C26.7845 75.6989 26.6905 75.4236 26.5095 75.2081C26.3285 74.9926 26.0737 74.8524 25.7948 74.8149C25.5159 74.7774 25.2331 74.8453 25.0016 75.0053C24.7702 75.1653 24.6067 75.4059 24.5433 75.68V75.66Z" fill="#350300"/>
<path d="M41.2035 15.98C36.4335 22.11 34.1235 29.86 30.3035 36.6C27.5435 41.46 27.7635 48.6 28.0035 54.04C28.0185 54.1397 28.0652 54.2319 28.1367 54.303C28.2081 54.3741 28.3006 54.4204 28.4003 54.4349C28.5001 54.4495 28.6019 54.4316 28.6907 54.3839C28.7795 54.3362 28.8506 54.2612 28.8935 54.17C30.5435 48.68 30.4835 42.91 32.3635 37.48C34.8535 30.35 38.6335 23.23 41.9535 16.48C41.9987 16.3816 42.0059 16.2699 41.9739 16.1665C41.9419 16.063 41.8728 15.975 41.7799 15.9193C41.6871 15.8636 41.5769 15.844 41.4706 15.8645C41.3642 15.8849 41.2691 15.9438 41.2035 16.03V15.98Z" fill="#350300"/>
<path d="M33.9733 51.1C35.3033 52.34 37.3334 51.28 38.5134 50.38C39.8416 49.4021 40.738 47.9463 41.0134 46.32C41.0242 46.2224 41.0132 46.1235 40.981 46.0307C40.9488 45.9379 40.8963 45.8534 40.8273 45.7835C40.7583 45.7135 40.6746 45.6598 40.5822 45.6264C40.4898 45.5929 40.3911 45.5805 40.2933 45.59C39.183 45.9453 38.1746 46.5627 37.3533 47.39C36.883 47.8176 36.3889 48.2182 35.8733 48.59C35.3638 48.7872 34.8281 48.9085 34.2833 48.95C33.2833 49.21 33.3633 50.54 33.9733 51.1Z" fill="#350300"/>
<path d="M32.1331 73.9L32.2231 73.72C33.0931 71.48 34.0031 69.26 35.0831 67.11C38.0031 61.25 41.8731 55.91 44.8831 50.11C50.1331 39.95 51.7831 29.39 53.7931 18.35C53.8042 18.2856 53.7931 18.2193 53.7617 18.1619C53.7303 18.1046 53.6805 18.0595 53.6203 18.034C53.5601 18.0086 53.493 18.0042 53.43 18.0216C53.367 18.039 53.3117 18.0772 53.2732 18.13C51.0532 21.13 50.6431 24.13 49.9931 27.83C48.7231 34.83 44.9931 42.44 42.0431 48.9C39.3831 54.66 35.5131 60.01 32.0431 65.34C28.5731 70.67 26.8331 76.78 24.2331 82.45C23.1331 84.91 27.1331 86.62 28.1331 84.1C29.5331 80.81 30.7231 77.44 32.0131 74.1C32.0631 74.04 32.0731 73.98 32.1331 73.9Z" fill="#350300"/>
<path d="M15.2434 98.66C13.2934 100.53 14.2434 103.55 14.8834 105.83C15.3704 107.275 15.7056 108.766 15.8834 110.28C15.9634 111.19 15.9634 112.52 16.9834 112.96C19.7034 114.12 19.1634 108.82 18.9034 107.72C18.5734 106.29 18.1034 104.9 17.6734 103.5C17.2434 102.1 17.4134 100.8 17.1134 99.5C16.9334 98.73 15.9334 98 15.2134 98.69L15.2434 98.66Z" fill="#350300"/>
<path d="M15.0732 100.76C15.7257 103.877 16.1403 107.04 16.3132 110.22C16.5032 112.61 15.2332 116.14 16.5632 118.22C16.7217 118.411 16.9457 118.536 17.1916 118.572C17.4374 118.607 17.6875 118.549 17.8932 118.41C20.3532 117.02 19.6032 112.18 19.4232 109.81C19.1552 106.422 18.071 103.148 16.2632 100.27C15.9232 99.72 14.9132 100.1 15.0732 100.75V100.76Z" fill="#350300"/>
<path d="M16.1332 123.33C20.2132 116.15 20.7932 107.16 16.5232 99.83C16.4307 99.7108 16.3051 99.6214 16.1622 99.573C16.0193 99.5245 15.8653 99.5192 15.7193 99.5575C15.5733 99.5959 15.4419 99.6763 15.3412 99.7887C15.2406 99.9012 15.1752 100.041 15.1532 100.19C15.1532 100.29 15.1532 100.39 15.1532 100.5C15.0714 100.495 14.9899 100.514 14.9188 100.555C14.8477 100.596 14.7902 100.657 14.7532 100.73C10.6132 108.31 8.05322 116.73 5.60322 124.98C3.60322 131.81 1.09321 138.61 2.31321 145.8C2.28795 145.923 2.29298 146.05 2.32783 146.17C2.36268 146.29 2.42631 146.4 2.51322 146.49C5.76322 149.59 8.69323 143.57 10.6432 137.4C13.3064 133.079 15.1663 128.313 16.1332 123.33ZM3.82322 144.87C5.29322 130.14 9.87321 115.87 15.2132 102.1C15.4932 105 16.5832 107.89 16.9832 110.77C16.9778 110.833 16.9778 110.897 16.9832 110.96C15.4732 115.53 14.6332 120.24 12.9832 124.79C11.2732 129.62 8.51322 134.3 7.91322 139.43C7.91272 139.511 7.93341 139.59 7.97322 139.66C7.22334 141.821 5.75502 143.66 3.81321 144.87H3.82322Z" fill="#682003"/>
<path d="M29.3434 102.98C29.3547 102.823 29.3313 102.665 29.2748 102.519C29.2182 102.372 29.13 102.239 29.0163 102.13C28.9027 102.021 28.7665 101.939 28.6173 101.889C28.4681 101.839 28.3097 101.822 28.1534 101.84C27.9841 101.805 27.8078 101.83 27.6558 101.913C27.5038 101.995 27.386 102.129 27.3234 102.29C25.8753 103.253 24.3261 104.054 22.7034 104.68C22.4652 104.565 22.2033 104.509 21.9391 104.515C21.6749 104.522 21.416 104.591 21.1837 104.717C20.9514 104.843 20.7522 105.022 20.6027 105.24C20.4531 105.458 20.3574 105.708 20.3234 105.97C18.9534 120.12 24.1734 135.43 26.8034 149.37C27.2634 151.77 29.5634 159.24 32.8034 161.17C32.2934 161.88 33.1734 162.92 34.0834 162.66C42.5634 160.27 38.9734 144.66 37.9934 138.88C36.0734 127.5 36.9734 112.28 29.3434 102.98ZM35.5134 158.44C29.1634 155.88 29.1534 145.72 28.6834 139.63C27.8434 128.7 24.4834 118.26 23.7934 107.25C24.3568 106.762 24.8942 106.244 25.4034 105.7L25.5634 105.63C26.4479 105.228 27.2975 104.753 28.1034 104.21C32.7434 113.99 33.1034 123.78 34.8934 134.36C35.9734 140.59 39.4734 152.24 35.5134 158.4V158.44Z" fill="#682003"/>
<path d="M19.2231 106.77C18.601 104.179 17.7751 101.641 16.7531 99.18C16.7079 99.0985 16.6506 99.0243 16.5831 98.96C16.5831 98.72 16.4931 98.5 16.4731 98.27C16.4567 98.1387 16.4146 98.0119 16.3492 97.8968C16.2837 97.7818 16.1963 97.6807 16.0918 97.5995C15.9874 97.5182 15.8679 97.4584 15.7403 97.4233C15.6127 97.3882 15.4794 97.3786 15.3481 97.395C15.2168 97.4114 15.09 97.4535 14.9749 97.5189C14.8599 97.5844 14.7589 97.6718 14.6776 97.7763C14.5964 97.8807 14.5365 98.0002 14.5014 98.1278C14.4663 98.2554 14.4567 98.3887 14.4731 98.52C14.6663 100.429 15.0006 102.321 15.4731 104.18C15.6431 105.05 15.8231 105.91 16.0231 106.78C16.5231 109.02 16.8831 111.61 18.3631 113.43C18.5058 113.59 18.6899 113.707 18.8952 113.769C19.1004 113.83 19.3187 113.834 19.5258 113.779C19.733 113.724 19.9209 113.613 20.0687 113.458C20.2165 113.303 20.3184 113.11 20.3631 112.9C20.6231 110.81 19.8031 108.76 19.2231 106.77Z" fill="#430003"/>
<path d="M32.9234 158.58C33.2846 158.794 33.688 158.928 34.1059 158.971C34.5237 159.014 34.946 158.966 35.3434 158.83C35.3763 158.818 35.4048 158.796 35.425 158.768C35.4451 158.739 35.4559 158.705 35.4559 158.67C35.4559 158.635 35.4451 158.601 35.425 158.572C35.4048 158.544 35.3763 158.522 35.3434 158.51C34.6289 158.372 33.949 158.093 33.3434 157.69C32.7334 157.31 32.3934 156.64 31.7734 156.3C31.723 156.279 31.6681 156.272 31.614 156.279C31.5599 156.285 31.5084 156.305 31.4643 156.337C31.4202 156.37 31.3851 156.412 31.3622 156.462C31.3393 156.511 31.3294 156.566 31.3334 156.62C31.3334 157.5 32.2434 158.17 32.9234 158.58Z" fill="#350300"/>
<path d="M29.9733 152.04C27.4933 141.44 26.1233 130.9 24.5433 120.15C24.5433 120.134 24.537 120.119 24.5258 120.108C24.5145 120.096 24.4993 120.09 24.4833 120.09C24.4674 120.09 24.4522 120.096 24.4409 120.108C24.4297 120.119 24.4233 120.134 24.4233 120.15C25.1833 130.7 25.8633 142.15 29.5733 152.15C29.6533 152.36 30.0233 152.27 29.9733 152.04Z" fill="#350300"/>
<path d="M39.8834 151.3C39.7015 144.081 38.966 136.887 37.6834 129.78C36.7057 123.29 35.2824 116.875 33.4234 110.58C32.5234 107.67 32.3034 102.58 29.1034 101.08C29.9316 99.9638 30.377 98.6099 30.3734 97.22C30.3483 96.0345 30.0414 94.8721 29.478 93.8287C28.9146 92.7854 28.1109 91.8912 27.1334 91.22H27.0634C27.3929 89.7878 27.4741 88.3097 27.3034 86.85C29.5434 85.58 34.3634 68.85 34.4034 68.91C34.9634 67.36 35.5734 65.83 36.2734 64.34C37.0744 62.8906 38.012 61.5211 39.0734 60.25C39.9634 59.15 40.7934 58.11 41.5834 57.07C42.5134 55.67 44.8334 52.3 44.8334 52.32C45.7044 50.621 46.4725 48.8712 47.1334 47.08C49.0635 41.7092 50.6894 36.2338 52.0034 30.68C53.1834 25.34 55.3034 19.86 55.0034 14.33C54.9642 14.1557 54.8789 13.9952 54.7566 13.865C54.6343 13.7348 54.4793 13.6398 54.3079 13.5898C54.1364 13.5397 53.9546 13.5366 53.7815 13.5806C53.6084 13.6246 53.4502 13.7142 53.3234 13.84C52.2573 15.3653 51.4467 17.0541 50.9234 18.84C49.9464 20.752 49.0881 22.7224 48.3534 24.74C47.1034 27.66 45.9334 30.6 44.7134 33.51C43.4134 36.62 42.1534 39.8 40.6434 42.81C40.3934 43.3 37.7834 48.26 36.0534 48.91C35.5034 47.59 36.5934 43.83 36.7934 42.91C37.5334 39.43 38.4134 35.91 39.3534 32.51C40.8134 27.12 43.3534 21.57 44.5534 16.04C44.9555 14.6787 45.2037 13.2766 45.2934 11.86C45.2934 11.24 44.6234 10.61 44.0534 11.11C40.4234 14.24 38.3134 18.55 36.0534 22.68C33.5437 27.1767 31.4998 31.918 29.9534 36.83C29.1134 39.57 27.5334 47.03 27.5434 47.04C27.4134 47.9 27.3434 48.76 27.2534 49.62C27.1634 50.48 27.1034 51.62 27.1034 52.62C27.1034 53.24 27.3734 56.34 27.4434 56.37L27.5634 57.61C27.5634 57.9 27.5634 58.18 27.5634 58.46C27.0234 60.81 23.9434 69.66 23.6434 70.95C23.4034 69.51 22.5634 64.19 22.5434 64.2C21.5434 58.1 17.9534 35.76 17.6734 34.55C17.6734 34.55 14.9334 19.91 13.5034 12.55C12.9334 9.6 12.5034 6.61 11.7434 3.69C11.6072 2.77285 11.4033 1.86705 11.1334 0.98C11.1334 0.98 11.1334 0.92 11.1334 0.9C10.9634 0.58 10.7934 0.28 10.6134 0C10.6134 0 10.5634 0 10.5334 0L9.76343 0.05C9.6074 0.0710802 9.46281 0.143426 9.35239 0.25566C9.24196 0.367894 9.17195 0.513648 9.15341 0.67C8.69341 3.5 7.39343 5.58 7.23343 8.49C7.10343 10.87 6.75342 13.23 6.56342 15.61C6.35342 18.36 7.36341 20.44 6.43341 23.26C5.69034 25.0719 5.34916 27.0235 5.43341 28.98C5.68341 31.81 7.21341 33.8 6.09341 36.91C6.07209 36.972 6.05539 37.0355 6.04343 37.1L5.91342 37.04C5.91342 37.13 5.86343 37.23 5.83343 37.32L5.98343 37.38C5.80047 38.4066 5.97332 39.4649 6.47342 40.38C7.31342 42.17 4.93343 44.53 5.20343 46.45C5.54343 48.8 5.02342 50.62 4.78342 52.89C4.57342 54.79 6.89342 55.83 6.72342 58.21C6.72342 58.52 6.72341 58.78 6.65341 59.05C6.75461 59.2172 6.81621 59.4053 6.83343 59.6C6.95343 60.8 7.53342 62.13 7.69342 63.42C7.92342 63.72 8.14341 64.03 8.37341 64.31C10.2834 66.65 8.82342 67.76 8.47342 69.62C8.22192 71.2231 8.40851 72.8643 9.01343 74.37C10.5647 79.3189 12.4661 84.1511 14.7034 88.83C15.0147 89.4534 15.4269 90.0211 15.9234 90.51C12.2034 97.97 10.0634 106.6 7.50342 114.41C5.13342 121.61 2.66343 128.83 0.893432 136.2C0.323432 138.57 -0.916568 144.2 1.14343 146.55C1.38718 147.017 1.77213 147.395 2.24341 147.63C3.143 148.13 4.18557 148.31 5.20087 148.141C6.21616 147.973 7.14422 147.464 7.83343 146.7C11.8834 142.99 12.6234 136.29 14.5934 131.41C16.6634 126.33 18.3934 121.14 19.9934 115.89C20.3434 118.04 20.6634 120.19 20.8334 122.34C21.4076 129.503 22.4094 136.626 23.8334 143.67C24.7734 148.36 25.5234 154.07 27.9534 158.28C29.7034 161.28 33.9534 164.28 37.5934 162.01C40.7634 160.14 39.9234 154.34 39.8834 151.3ZM29.0134 54.98C28.818 49.9556 29.4601 44.9336 30.9134 40.12C33.4534 31.12 37.4634 21.63 43.4634 14.23C43.4134 14.47 43.3534 14.69 43.3034 14.92C41.7834 17.65 41.0934 21.14 40.1834 24.02C38.8234 28.28 37.4334 32.52 36.2534 36.83C35.9034 38.11 33.1634 46.48 34.4434 49.42C34.4983 49.6054 34.5929 49.7766 34.7207 49.9216C34.8485 50.0667 35.0064 50.1822 35.1834 50.26C35.4205 50.3847 35.6856 50.4467 35.9534 50.44C36.0307 50.4347 36.1058 50.4122 36.1733 50.3741C36.2408 50.3361 36.2989 50.2834 36.3434 50.22C36.4226 50.206 36.4999 50.1825 36.5734 50.15C39.1534 49.15 40.8134 45.75 41.9134 43.39C44.0034 38.89 45.9134 34.31 47.7934 29.72C48.7934 27.27 49.7434 24.8 50.7934 22.39C51.6725 21.1311 52.3977 19.7714 52.9534 18.34C52.4634 22.92 50.8034 27.64 49.8034 31.98C48.4327 37.849 46.638 43.6108 44.4334 49.22C42.4834 54.22 38.4334 58.03 35.6234 62.55C35.4934 62.75 35.3834 62.96 35.2734 63.16C32.6934 65.61 31.8434 69.92 30.7034 73.16C29.3534 77.01 28.4734 81.16 26.5934 84.76C26.5034 84.6 26.4334 84.43 26.3334 84.28C26.1315 83.9995 25.9002 83.7413 25.6434 83.51C25.2034 80.51 24.6434 77.42 24.1534 74.39C25.8534 71.33 26.2534 67.52 27.6134 64.27C28.2932 62.8931 28.6877 61.3931 28.7734 59.86C29.0278 58.2466 29.1083 56.6106 29.0134 54.98ZM17.7034 89.78C15.9734 88.65 14.9034 85.32 14.0434 83.49C12.0434 79.23 9.64342 72.59 10.9134 68.06C11.8134 64.89 9.12341 62.94 8.56341 60.2L8.93341 59.34C8.93341 59.11 8.85342 58.88 8.82342 58.65C8.70801 58.5268 8.63753 58.3682 8.62341 58.2C8.55341 57.52 8.51341 57.12 8.49341 56.72C8.50329 56.6102 8.50329 56.4998 8.49341 56.39C8.47811 56.2973 8.47811 56.2027 8.49341 56.11V55.98L8.39343 56.21C8.29543 55.7905 8.16502 55.3793 8.00342 54.98C7.18495 53.4975 6.97346 51.7553 7.41342 50.12C7.99342 47.38 6.52343 46.91 8.11343 43.43C8.59343 42.43 8.98341 41.81 8.46341 40.66C7.46341 38.39 8.46341 36.39 8.46341 34.15C8.46341 32.34 7.46343 30.5 7.11343 28.78C6.52343 26.19 8.24343 23.41 8.76343 20.88C9.13343 19.08 8.13343 16.69 8.29343 14.72C8.45343 12.75 8.72342 10.72 8.85342 8.72C9.02428 6.77531 9.3588 4.84848 9.85342 2.96C9.96342 3.63 10.0534 4.3 10.1634 4.96C10.7134 7.96 11.2434 10.96 11.7634 14.03C13.1234 22.03 22.1434 74.81 25.7034 90.78C24.5134 90.78 23.3834 91.38 22.2134 91.7C20.7834 90.98 19.1334 90.68 17.7034 89.78ZM18.5734 92.22C19.1234 92.45 19.7034 92.64 20.2934 92.82C20.2024 92.8352 20.1123 92.8552 20.0234 92.88C19.5234 92.88 19.0234 92.57 18.5934 92.81C18.5447 92.8353 18.5045 92.8744 18.4778 92.9224C18.4511 92.9705 18.4392 93.0252 18.4434 93.08C18.6234 93.97 20.0634 93.75 20.7134 93.59C21.0834 93.51 21.4434 93.37 21.8134 93.25C21.9016 93.2772 21.9946 93.2851 22.0861 93.273C22.1776 93.2609 22.2653 93.2292 22.3434 93.18H22.5034C23.0859 93.0619 23.653 92.8774 24.1934 92.63C25.7034 92.07 26.7734 92.86 27.6034 94.04C30.9034 98.76 25.6034 103.48 20.8534 103.04C17.9934 102.76 16.9534 99.62 16.7634 97.19C16.6934 95.81 16.8534 92.64 18.5734 92.22ZM6.89343 144.62C5.41343 146.62 3.56342 145.95 2.44342 144.41C2.01342 141.61 3.12343 138.05 3.67343 135.75C4.81343 131.02 6.30343 126.34 7.67343 121.68C9.91343 114.3 12.2934 106.97 14.8734 99.68C15.0134 99.2933 15.1534 98.8933 15.2934 98.48C15.4106 99.5369 15.7457 100.558 16.2775 101.479C16.8094 102.4 17.5264 103.2 18.3834 103.83C18.509 106.221 18.7829 108.603 19.2034 110.96C18.5134 113.36 17.8234 115.75 17.0634 118.12C15.2434 123.9 12.7534 129.44 10.9634 135.22C10.3334 137.22 9.66341 139.22 8.84341 141.13C8.34093 142.37 7.6859 143.542 6.89343 144.62ZM35.8934 160.56C28.7634 162.33 27.5634 150.99 26.5434 146.47C25.4334 141.47 24.5934 136.4 23.9134 131.33C22.7134 122.48 22.7934 113.33 20.4134 104.65C21.8209 104.84 23.2533 104.709 24.6026 104.265C25.952 103.822 27.1831 103.078 28.2034 102.09C28.2034 102.09 28.2034 102.09 28.2634 102.09C30.8634 103.23 31.7834 111.26 32.4434 113.82C33.7034 118.66 34.6134 123.54 35.4434 128.47C36.2934 133.55 37.0334 138.65 37.5134 143.79C37.7934 146.52 39.7034 159.62 35.9334 160.56H35.8934Z" fill="#350300"/>
<path d="M25.7731 106.3C25.9531 106.3 25.9931 105.96 25.7731 105.95C24.7031 105.86 23.6231 105.95 22.5431 105.85C21.4631 105.75 20.323 105.53 19.223 105.5C19.053 105.5 18.953 105.74 19.133 105.8C21.273 106.503 23.5519 106.675 25.7731 106.3Z" fill="#350300"/>
<path d="M26.1831 107.68C24.5959 107.545 23.0002 107.545 21.4131 107.68C21.0031 107.68 21.0931 108.31 21.4931 108.31C23.0551 108.384 24.6205 108.327 26.1731 108.14C26.223 108.126 26.2671 108.097 26.2989 108.056C26.3307 108.015 26.3485 107.965 26.3497 107.914C26.3508 107.862 26.3352 107.811 26.3052 107.769C26.2751 107.727 26.2323 107.696 26.1831 107.68Z" fill="#350300"/>
<path d="M26.5732 109.53C25.9675 109.441 25.355 109.408 24.7432 109.43C24.1054 109.393 23.4775 109.255 22.8832 109.02C22.5532 108.89 22.3332 109.4 22.6632 109.53C23.9118 110.119 25.3278 110.25 26.6632 109.9C26.7123 109.888 26.7546 109.857 26.7809 109.814C26.8071 109.771 26.8152 109.719 26.8033 109.67C26.7913 109.621 26.7604 109.579 26.7172 109.552C26.6741 109.526 26.6223 109.518 26.5732 109.53Z" fill="#350300"/>
<path d="M27.1332 111.57C26.5632 111.57 26.0132 111.69 25.4532 111.69C24.7511 111.668 24.0648 111.475 23.4532 111.13C23.2032 110.99 22.9632 111.4 23.2032 111.55C23.7811 111.975 24.461 112.239 25.174 112.316C25.8869 112.393 26.6077 112.281 27.2632 111.99C27.2984 111.959 27.3241 111.919 27.3369 111.875C27.3497 111.83 27.3492 111.782 27.3354 111.738C27.3216 111.693 27.2951 111.653 27.2592 111.624C27.2233 111.594 27.1795 111.575 27.1332 111.57Z" fill="#350300"/>
<path d="M24.3234 113.29C24.3432 113.293 24.3636 113.29 24.3812 113.28C24.3989 113.271 24.4129 113.256 24.4209 113.237C24.429 113.219 24.4306 113.198 24.4257 113.179C24.4207 113.16 24.4094 113.142 24.3935 113.13C24.2935 113.09 24.2234 113.25 24.3234 113.29Z" fill="#350300"/>
<path d="M26.8332 115.3C26.8592 115.29 26.8814 115.272 26.8971 115.249C26.9128 115.225 26.9212 115.198 26.9212 115.17C26.9212 115.142 26.9128 115.115 26.8971 115.092C26.8814 115.068 26.8592 115.05 26.8332 115.04C25.6766 115.011 24.5416 114.72 23.5132 114.19C23.2732 114.05 23.0232 114.46 23.2532 114.62C23.7602 114.996 24.3455 115.252 24.9654 115.37C25.5853 115.487 26.2238 115.464 26.8332 115.3Z" fill="#350300"/>
<path d="M26.6135 116.47C25.5591 116.319 24.5189 116.081 23.5035 115.76C23.4298 115.742 23.352 115.75 23.284 115.784C23.216 115.817 23.1621 115.874 23.1321 115.944C23.102 116.014 23.0978 116.092 23.12 116.164C23.1422 116.237 23.1895 116.299 23.2535 116.34C24.2959 116.85 25.4571 117.068 26.6135 116.97C26.6798 116.97 26.7433 116.944 26.7902 116.897C26.8371 116.85 26.8635 116.786 26.8635 116.72C26.8635 116.654 26.8371 116.59 26.7902 116.543C26.7433 116.496 26.6798 116.47 26.6135 116.47Z" fill="#350300"/>
<path d="M22.1332 95.32C22.2332 95.23 22.1332 95.06 22.0232 95.05C21.3332 94.99 20.6732 95.26 19.9632 95.21C19.5818 95.167 19.2164 95.0327 18.8979 94.8186C18.5793 94.6045 18.317 94.3169 18.1332 93.98C17.9432 93.68 17.4032 93.98 17.5732 94.29C18.3332 95.71 20.7932 96.68 22.1332 95.32Z" fill="#350300"/>
<path d="M21.1831 96.49C20.0919 96.5409 19.0035 96.339 18.0032 95.9C17.8532 95.82 17.7232 96.06 17.8532 96.16C18.7432 96.83 20.1431 97.45 21.2431 96.92C21.4231 96.83 21.4231 96.5 21.1831 96.49Z" fill="#350300"/>
<path d="M19.6135 97.59C19.9052 97.7319 20.2343 97.7774 20.5535 97.72C20.6935 97.72 20.6735 97.47 20.5535 97.49C20.2755 97.5352 19.9902 97.4859 19.7435 97.35C19.5635 97.28 19.4635 97.53 19.6135 97.59Z" fill="#350300"/>
<path d="M22.2035 100.12C22.4335 100.06 22.3435 99.72 22.1435 99.69C20.7335 99.44 19.4335 99.69 18.1435 98.96C17.9835 98.87 17.8235 99.13 17.9735 99.23C18.5842 99.6518 19.2727 99.9476 19.9989 100.1C20.7252 100.253 21.4746 100.26 22.2035 100.12Z" fill="#350300"/>
<path d="M19.2735 110.24C18.8035 106.97 17.7035 103.07 15.4035 100.6C15.371 100.571 15.3295 100.554 15.2859 100.552C15.2423 100.549 15.1993 100.562 15.1641 100.588C15.1288 100.614 15.1036 100.651 15.0926 100.693C15.0816 100.736 15.0854 100.78 15.1035 100.82C17.1735 103.82 17.7535 107.01 18.9235 110.33C18.9355 110.376 18.9653 110.416 19.0066 110.441C19.0478 110.465 19.0971 110.472 19.1435 110.46C19.1899 110.448 19.2297 110.418 19.2541 110.377C19.2785 110.336 19.2855 110.286 19.2735 110.24Z" fill="#350300"/>
<path d="M17.9135 113.13C17.9135 113.36 18.2735 113.34 18.3035 113.13C18.7235 110.56 17.3835 107.92 16.3035 105.68C16.2135 105.47 15.8835 105.6 15.9835 105.81C16.5066 106.911 16.9706 108.039 17.3735 109.19C17.7472 110.469 17.9291 111.797 17.9135 113.13Z" fill="#350300"/>
<path d="M17.5034 115.31C17.5534 115.47 17.8434 115.45 17.8434 115.31C17.7753 114.443 17.5799 113.59 17.2634 112.78C16.9082 111.743 16.6504 110.675 16.4934 109.59C16.4934 109.555 16.4797 109.522 16.4553 109.498C16.4309 109.474 16.3979 109.46 16.3634 109.46C16.3289 109.46 16.2958 109.474 16.2715 109.498C16.2471 109.522 16.2334 109.555 16.2334 109.59C16.2989 110.51 16.4564 111.421 16.7034 112.31C16.9734 113.29 17.1334 114.36 17.5034 115.31Z" fill="#350300"/>
<path d="M16.1333 114.71C16.2433 115.05 16.2933 115.4 16.4033 115.71C16.4033 115.85 16.6533 115.71 16.6233 115.62C16.5133 115.28 16.4833 114.92 16.3833 114.62C16.3633 114.44 16.1333 114.54 16.1333 114.71Z" fill="#350300"/>
<path d="M16.8332 118.92C16.5658 117.444 16.1365 116.002 15.5532 114.62C15.528 114.56 15.4802 114.513 15.4201 114.489C15.3601 114.464 15.2929 114.465 15.2332 114.49C15.1736 114.515 15.1263 114.563 15.1019 114.623C15.0776 114.683 15.078 114.75 15.1032 114.81C15.6132 116.19 15.7332 117.7 16.2732 119.07C16.2949 119.142 16.3438 119.203 16.4097 119.24C16.4756 119.277 16.5532 119.286 16.626 119.267C16.6989 119.247 16.7612 119.2 16.7999 119.135C16.8386 119.071 16.8506 118.993 16.8332 118.92Z" fill="#350300"/>
<path d="M14.9632 117.73C15.3032 119.05 15.2932 120.42 15.6132 121.73C15.6732 121.97 16.0432 122.01 16.0732 121.73C16.1141 120.331 15.9075 118.937 15.4632 117.61C15.3832 117.32 14.9032 117.45 14.9632 117.73Z" fill="#350300"/>
<path d="M14.4532 124.48C14.4532 124.69 14.8032 124.75 14.8632 124.48C15.3232 123.03 14.6032 121.19 13.8632 119.95C13.7632 119.8 13.5132 119.95 13.5932 120.1C13.9057 120.793 14.1438 121.517 14.3032 122.26C14.4532 123.03 14.3732 123.75 14.4532 124.48Z" fill="#350300"/>
<path d="M14.0535 123.13C14.0373 123.075 14.0022 123.028 13.9545 122.997C13.9068 122.966 13.8495 122.953 13.793 122.96C13.7364 122.967 13.6843 122.994 13.6459 123.037C13.6075 123.079 13.5854 123.133 13.5835 123.19C13.6335 123.86 13.7135 124.53 13.7535 125.19C13.6973 125.806 13.7378 126.427 13.8735 127.03C13.8899 127.064 13.9154 127.092 13.9473 127.112C13.9791 127.132 14.0159 127.143 14.0535 127.143C14.0911 127.143 14.1279 127.132 14.1597 127.112C14.1915 127.092 14.2171 127.064 14.2335 127.03C14.4359 126.515 14.4845 125.952 14.3735 125.41C14.3171 124.644 14.2103 123.882 14.0535 123.13Z" fill="#350300"/>
<path d="M12.7631 129.87C12.7966 129.902 12.8414 129.92 12.8881 129.92C12.9347 129.92 12.9795 129.902 13.0131 129.87C13.3631 129.49 13.1131 128.54 13.0831 128.06C13.0637 127.182 12.9835 126.307 12.843 125.44C12.8321 125.388 12.8038 125.342 12.7628 125.309C12.7219 125.276 12.6708 125.258 12.618 125.258C12.5653 125.258 12.5142 125.276 12.4733 125.309C12.4323 125.342 12.404 125.388 12.3931 125.44C12.4431 126.32 12.5031 127.2 12.5231 128.08C12.5331 128.59 12.3531 129.52 12.7631 129.87Z" fill="#350300"/>
<path d="M12.1332 132.1C12.1332 132.29 12.4832 132.39 12.5532 132.16C12.9432 130.85 12.3532 129.25 11.9932 127.97C11.8932 127.62 11.3632 127.83 11.4632 128.18C11.6332 128.82 11.8032 129.46 11.9332 130.1C12.0632 130.74 12.0032 131.44 12.1332 132.1Z" fill="#350300"/>
<path d="M11.5831 133.55C11.5543 133.184 11.4735 132.823 11.3431 132.48C11.2831 132.32 11.0331 132.42 11.1031 132.57C11.2343 132.89 11.3217 133.226 11.3631 133.57C11.3657 133.599 11.3799 133.626 11.4024 133.645C11.4249 133.664 11.4539 133.673 11.4831 133.67C11.5123 133.667 11.5392 133.653 11.5579 133.631C11.5767 133.608 11.5857 133.579 11.5831 133.55Z" fill="#350300"/>
<path d="M11.0334 135.86C11.1334 136.06 11.4834 136.01 11.4334 135.76C11.3226 135.191 11.1654 134.633 10.9634 134.09C10.8634 133.79 10.4134 133.98 10.5134 134.27C10.6444 134.813 10.8183 135.345 11.0334 135.86Z" fill="#350300"/>
<path d="M9.42352 134.55C9.6551 135.23 9.80286 135.935 9.86352 136.65C9.86773 137.283 9.95856 137.912 10.1335 138.52C10.2135 138.73 10.4935 138.65 10.5335 138.46C10.74 137.06 10.553 135.63 9.99349 134.33C9.95598 134.267 9.89752 134.22 9.82842 134.196C9.75932 134.172 9.68402 134.174 9.61584 134.2C9.54766 134.226 9.49097 134.276 9.45577 134.34C9.42058 134.404 9.40917 134.478 9.42352 134.55Z" fill="#350300"/>
<path d="M8.35311 137.03C8.36423 137.986 8.54013 138.934 8.8731 139.83C8.89373 139.876 8.92994 139.912 8.97521 139.934C9.02049 139.955 9.07189 139.959 9.12011 139.946C9.16833 139.933 9.21022 139.903 9.23827 139.861C9.26632 139.82 9.2787 139.77 9.27313 139.72C9.22313 138.8 8.93312 137.9 8.86312 136.97C8.84312 136.64 8.33311 136.7 8.35311 137.03Z" fill="#350300"/>
<path d="M7.30309 139.58C7.44446 140.404 7.67929 141.209 8.00307 141.98C8.05307 142.09 8.28307 142.1 8.28307 141.98C8.1902 141.159 8.00573 140.35 7.73308 139.57C7.67308 139.26 7.24309 139.31 7.30309 139.58Z" fill="#350300"/>
<path d="M6.6432 141.6C6.65305 141.604 6.66357 141.606 6.67417 141.606C6.68478 141.606 6.69525 141.603 6.705 141.599C6.71475 141.595 6.72359 141.589 6.731 141.581C6.73841 141.574 6.74424 141.565 6.74818 141.555C6.75212 141.545 6.75408 141.535 6.75395 141.524C6.75382 141.513 6.75162 141.503 6.74745 141.493C6.74327 141.483 6.73718 141.475 6.72959 141.467C6.722 141.46 6.71304 141.454 6.7032 141.45C6.6132 141.4 6.5432 141.56 6.6432 141.6Z" fill="#350300"/>
<path d="M23.9634 124.6C23.9034 124.53 23.7635 124.6 23.8035 124.69C23.992 125.174 24.3614 125.566 24.8336 125.782C25.3058 125.999 25.8437 126.023 26.3335 125.85C26.5535 125.76 26.4435 125.47 26.2335 125.47C25.8117 125.547 25.3769 125.506 24.9766 125.353C24.5763 125.2 24.2258 124.939 23.9634 124.6Z" fill="#350300"/>
<path d="M25.5931 127.77L25.9931 127.93C25.9931 127.93 26.0731 127.87 25.9931 127.85L25.6131 127.68C25.5731 127.65 25.5331 127.75 25.5931 127.77Z" fill="#350300"/>
<path d="M28.4433 131.11C28.5078 131.115 28.5723 131.099 28.6276 131.066C28.6829 131.032 28.7262 130.982 28.7516 130.922C28.777 130.863 28.783 130.797 28.769 130.734C28.7549 130.67 28.7215 130.613 28.6733 130.57C27.7657 130.086 26.8149 129.687 25.8333 129.38C25.7679 129.361 25.6978 129.367 25.6363 129.396C25.5747 129.425 25.5259 129.476 25.499 129.538C25.472 129.601 25.4687 129.671 25.4898 129.736C25.5108 129.8 25.5547 129.855 25.6133 129.89C26.5172 130.383 27.4645 130.791 28.4433 131.11Z" fill="#350300"/>
<path d="M28.4235 133.88C28.4845 133.885 28.5454 133.87 28.5976 133.838C28.6497 133.806 28.6903 133.758 28.7137 133.701C28.737 133.645 28.7418 133.582 28.7274 133.523C28.713 133.463 28.6801 133.41 28.6335 133.37C27.9535 132.94 27.1734 132.67 26.4634 132.27C26.2734 132.16 26.0535 132.44 26.2035 132.61C26.8025 133.242 27.5747 133.684 28.4235 133.88Z" fill="#350300"/>
<path d="M28.9934 135.85C29.1234 135.85 29.2134 135.63 29.0734 135.54C28.3634 135.07 27.5035 134.97 26.7734 134.46C26.4834 134.27 26.1634 134.67 26.4434 134.87C26.7827 135.194 27.1827 135.447 27.6204 135.615C28.0581 135.783 28.5247 135.863 28.9934 135.85Z" fill="#350300"/>
<path d="M30.0232 138.49C30.2432 138.49 30.3831 138.11 30.1631 137.98C29.2631 137.42 28.1631 137.32 27.2231 136.71C27.1608 136.66 27.081 136.636 27.0013 136.645C26.9216 136.653 26.8486 136.693 26.7982 136.755C26.7478 136.817 26.7242 136.897 26.7326 136.977C26.7411 137.057 26.7808 137.13 26.8431 137.18C27.706 137.993 28.8381 138.459 30.0232 138.49Z" fill="#350300"/>
<path d="M30.1331 140.8C29.3931 140.21 28.4831 140.11 27.8631 139.3C27.8101 139.227 27.7302 139.178 27.6411 139.164C27.552 139.15 27.461 139.172 27.3881 139.225C27.3152 139.278 27.2663 139.358 27.2522 139.447C27.2381 139.536 27.26 139.627 27.3131 139.7C27.8531 140.49 29.0031 141.42 30.0131 141.24C30.0607 141.232 30.1051 141.211 30.141 141.179C30.1769 141.147 30.2028 141.105 30.2154 141.059C30.2281 141.012 30.2271 140.963 30.2125 140.917C30.1979 140.871 30.1703 140.831 30.1331 140.8Z" fill="#350300"/>
<path d="M29.9433 143.34C29.6533 143.12 29.4133 142.86 29.0933 142.66C28.7733 142.46 28.4533 142.97 28.8133 143.13C29.1733 143.29 29.4233 143.51 29.7433 143.67C29.7871 143.696 29.8396 143.705 29.8893 143.692C29.939 143.68 29.9818 143.649 30.0083 143.605C30.0349 143.561 30.0429 143.509 30.0307 143.459C30.0185 143.409 29.9871 143.366 29.9433 143.34Z" fill="#350300"/>
<path d="M30.4334 145.88C30.4629 145.892 30.4946 145.899 30.5267 145.899C30.5588 145.899 30.5906 145.893 30.6203 145.881C30.65 145.869 30.6771 145.851 30.6999 145.829C30.7227 145.806 30.7409 145.78 30.7534 145.75C30.7658 145.72 30.7724 145.689 30.7726 145.657C30.7728 145.625 30.7667 145.593 30.7546 145.563C30.7426 145.533 30.7248 145.506 30.7022 145.483C30.6797 145.461 30.6529 145.442 30.6234 145.43C30.0099 145.112 29.4156 144.758 28.8434 144.37C28.5034 144.13 28.1134 144.63 28.4434 144.87C29.0441 145.318 29.7172 145.659 30.4334 145.88Z" fill="#350300"/>
<path d="M30.9533 149.25C30.9757 149.248 30.9973 149.241 31.017 149.23C31.0367 149.219 31.054 149.204 31.068 149.186C31.082 149.169 31.0923 149.148 31.0983 149.127C31.1044 149.105 31.1061 149.082 31.1033 149.06C31.1033 148.68 30.7333 148.53 30.4533 148.32C29.9033 147.93 29.3433 147.57 28.7933 147.17C28.4933 146.96 28.1433 147.4 28.4333 147.63C28.9033 147.99 29.4333 148.32 29.8633 148.63C30.1833 148.89 30.5233 149.33 30.9533 149.25Z" fill="#350300"/>
<path d="M31.6634 151.51C31.9634 151.51 31.9534 151.12 31.7434 151C30.9792 150.682 30.273 150.239 29.6534 149.69C29.4234 149.44 28.9934 149.69 29.2234 150.01C29.8134 150.74 30.6534 151.6 31.6634 151.51Z" fill="#350300"/>
<path d="M31.2235 153.84C31.2699 153.86 31.3223 153.861 31.3692 153.842C31.4161 153.823 31.4536 153.786 31.4735 153.74C31.4934 153.694 31.494 153.641 31.4752 153.594C31.4565 153.547 31.4199 153.51 31.3735 153.49C31.0802 153.395 30.8269 153.205 30.6535 152.95C30.4635 152.6 29.9535 152.9 30.1835 153.21C30.4563 153.523 30.8198 153.743 31.2235 153.84Z" fill="#350300"/>
<path d="M31.8733 154.68C31.2533 154.99 30.8733 154.76 30.5433 154.21C30.3233 153.88 29.8233 154.21 30.0333 154.59C30.5233 155.33 31.5533 155.98 32.1433 154.96C32.1602 154.922 32.1654 154.879 32.1581 154.838C32.1508 154.797 32.1315 154.759 32.1025 154.729C32.0735 154.699 32.0362 154.678 31.9954 154.67C31.9546 154.661 31.9121 154.664 31.8733 154.68Z" fill="#350300"/>
<path d="M11.2832 16.2C11.3832 16.25 11.4432 16.09 11.3432 16.05C11.3333 16.046 11.3228 16.0441 11.3122 16.0442C11.3016 16.0443 11.2911 16.0465 11.2814 16.0507C11.2617 16.0592 11.2462 16.0751 11.2382 16.095C11.2303 16.1149 11.2305 16.1371 11.2389 16.1568C11.2474 16.1765 11.2633 16.192 11.2832 16.2Z" fill="#350300"/>
<path d="M11.0631 17.35C11.0131 17.27 10.9032 17.35 10.9532 17.43C11.4628 18.3121 12.0238 19.1636 12.6332 19.98C12.6446 19.9944 12.6606 20.0044 12.6785 20.0083C12.6964 20.0123 12.7151 20.01 12.7315 20.0018C12.7479 19.9936 12.761 19.98 12.7686 19.9633C12.7762 19.9466 12.7778 19.9278 12.7732 19.91C12.251 19.0257 11.6801 18.171 11.0631 17.35Z" fill="#350300"/>
<path d="M11.3135 19.31C11.7768 19.7402 12.1956 20.2159 12.5635 20.73C12.9235 21.23 13.1035 21.84 13.5035 22.29C13.5197 22.3083 13.5411 22.3213 13.5648 22.3272C13.5885 22.333 13.6134 22.3315 13.6362 22.3228C13.6591 22.3141 13.6787 22.2986 13.6925 22.2785C13.7063 22.2583 13.7136 22.2344 13.7135 22.21C13.6235 21.01 12.3435 19.83 11.4935 19.07C11.3435 18.98 11.1335 19.18 11.3135 19.31Z" fill="#350300"/>
<path d="M13.5233 25.6C13.5453 25.6156 13.5714 25.6245 13.5984 25.6256C13.6254 25.6267 13.6521 25.62 13.6754 25.6063C13.6986 25.5925 13.7174 25.5723 13.7295 25.5482C13.7415 25.524 13.7463 25.4968 13.7432 25.47C13.6098 24.8842 13.3691 24.3282 13.0333 23.83C12.676 23.1343 12.3815 22.4081 12.1532 21.66C12.0632 21.38 11.6433 21.56 11.7333 21.83C11.9497 22.5801 12.2239 23.3122 12.5533 24.02C12.7484 24.6154 13.0807 25.1566 13.5233 25.6Z" fill="#350300"/>
<path d="M14.3432 28.46C13.9111 27.1286 13.255 25.8807 12.4032 24.77C12.366 24.7319 12.3163 24.7086 12.2632 24.7044C12.2102 24.7002 12.1574 24.7154 12.1147 24.7471C12.072 24.7789 12.0422 24.825 12.0309 24.877C12.0196 24.929 12.0276 24.9834 12.0533 25.03C12.7702 26.177 13.418 27.3658 13.9932 28.59C14.0161 28.6279 14.0515 28.6566 14.0933 28.6712C14.135 28.6858 14.1806 28.6854 14.2221 28.67C14.2636 28.6545 14.2984 28.6251 14.3205 28.5868C14.3426 28.5485 14.3507 28.5036 14.3432 28.46Z" fill="#350300"/>
<path d="M13.3431 29.5101C13.6931 30.3001 14.1232 31.0401 14.5132 31.8201C14.5291 31.8572 14.5591 31.8865 14.5966 31.9015C14.6341 31.9165 14.676 31.916 14.7131 31.9001C14.7503 31.8841 14.7796 31.8541 14.7946 31.8166C14.8096 31.7791 14.8091 31.7372 14.7932 31.7001C14.5132 30.8901 14.0832 30.1401 13.7932 29.3401C13.6632 29.0601 13.2131 29.2401 13.3431 29.5101Z" fill="#350300"/>
<path d="M15.1332 34.2001C14.5748 32.9719 13.7558 31.88 12.7332 31.0001C12.5932 30.8801 12.4332 31.1001 12.5632 31.2201C13.4839 32.143 14.2898 33.1738 14.9632 34.2901C14.9732 34.3801 15.1332 34.2901 15.1332 34.2001Z" fill="#350300"/>
<path d="M16.1334 38.5499C16.2334 38.6999 16.4034 38.5499 16.3734 38.4199C15.9034 36.6599 14.1634 35.2899 13.1834 33.7999C13.1034 33.6699 12.9134 33.7999 12.9934 33.9399C13.4782 34.6904 14.0023 35.4147 14.5634 36.1099C15.1296 36.8949 15.6536 37.7094 16.1334 38.5499Z" fill="#350300"/>
<path d="M16.2032 40.98C15.6532 39.62 14.4032 38.46 13.5732 37.26C13.4632 37.1 13.2332 37.26 13.3332 37.44C14.0841 38.763 14.9724 40.0031 15.9832 41.14C16.1332 41.19 16.2532 41.04 16.2032 40.98Z" fill="#350300"/>
<path d="M17.2234 43.9799C16.8853 43.1243 16.355 42.3579 15.6734 41.7399C15.0036 40.9807 14.241 40.3088 13.4034 39.7399C13.3727 39.7257 13.3382 39.7223 13.3053 39.7303C13.2724 39.7382 13.2431 39.757 13.2223 39.7836C13.2014 39.8103 13.1902 39.8432 13.1904 39.877C13.1906 39.9108 13.2023 39.9436 13.2234 39.97C13.9658 40.5907 14.6672 41.2588 15.3234 41.97C15.8475 42.7152 16.4222 43.4235 17.0434 44.09C17.1334 44.16 17.2534 44.0499 17.2234 43.9799Z" fill="#350300"/>
<path d="M17.7231 47.3901C17.7433 47.4026 17.7668 47.4089 17.7906 47.4081C17.8144 47.4072 17.8374 47.3993 17.8567 47.3854C17.876 47.3715 17.8907 47.3521 17.899 47.3298C17.9072 47.3075 17.9087 47.2832 17.9031 47.2601C17.4831 46.0701 16.3431 45.0401 15.6031 44.0301C15.4131 43.7701 15.0031 44.0301 15.1931 44.3401C15.8967 45.465 16.7476 46.4907 17.7231 47.3901Z" fill="#350300"/>
<path d="M17.5833 49.14C16.6862 48.0561 15.735 47.0181 14.7333 46.03C14.5533 45.83 14.2133 46.03 14.3933 46.28C15.3153 47.3669 16.2933 48.405 17.3233 49.39C17.4733 49.54 17.7033 49.3 17.5833 49.14Z" fill="#350300"/>
<path d="M18.8033 52.5099C18.9133 52.5899 19.0333 52.5099 18.9633 52.3499C18.5579 51.7746 18.0731 51.2595 17.5233 50.8199C16.8433 50.1999 16.1733 49.5799 15.5233 48.9299C15.3733 48.7899 15.1233 49.0399 15.2633 49.1899C15.7333 49.7099 16.2633 50.1899 16.7633 50.6799C17.385 51.352 18.068 51.9646 18.8033 52.5099Z" fill="#350300"/>
<path d="M16.4434 51.68C16.3134 51.54 16.1034 51.76 16.2134 51.9C16.8444 52.8422 17.5827 53.708 18.4134 54.48C18.5434 54.6 18.7434 54.4 18.6334 54.27C17.9134 53.4 17.2234 52.48 16.4434 51.68Z" fill="#350300"/>
<path d="M21.2634 67.74C19.7634 65.74 18.0233 63.95 16.4933 61.99C16.4721 61.9621 16.4407 61.9439 16.406 61.9392C16.3713 61.9345 16.3362 61.9438 16.3083 61.965C16.2805 61.9862 16.2622 62.0176 16.2575 62.0523C16.2528 62.087 16.2621 62.1221 16.2834 62.15C17.6495 64.2662 19.2496 66.2218 21.0534 67.98C21.1334 68.05 21.3534 67.87 21.2634 67.74Z" fill="#350300"/>
<path d="M21.3331 70.3201C20.5131 69.1901 19.3931 68.3201 18.4831 67.2201C18.3231 67.0301 18.0231 67.2201 18.1731 67.4401C19.1031 68.5001 20.0831 69.5601 21.1031 70.5401C21.2331 70.6601 21.4331 70.4601 21.3331 70.3201Z" fill="#350300"/>
<path d="M21.1334 71.8799C20.2875 70.731 19.3184 69.678 18.2433 68.7399C18.0933 68.6099 17.8934 68.8599 18.0434 68.9999C19.0934 69.9999 19.9233 71.0799 20.9333 72.0699C21.0433 72.1899 21.2134 71.9799 21.1334 71.8799Z" fill="#350300"/>
<path d="M21.9632 73.81C21.2162 72.7175 20.2446 71.797 19.1133 71.11C18.8333 70.93 18.5132 71.33 18.7932 71.52C19.8932 72.25 20.6633 73.26 21.6733 74.08C21.8633 74.24 22.0632 73.98 21.9632 73.81Z" fill="#350300"/>
<path d="M22.3932 76.62C21.624 75.3499 20.7331 74.1576 19.7332 73.06C19.5332 72.82 19.1632 73.06 19.3632 73.34C20.1737 74.5875 21.1121 75.7471 22.1632 76.8C22.2632 76.89 22.4732 76.77 22.3932 76.62Z" fill="#350300"/>
<path d="M22.6631 79.33C22.7731 79.46 23.0131 79.33 22.9331 79.18C22.48 78.4053 21.9325 77.6899 21.3032 77.05C20.7984 76.4007 20.2361 75.7982 19.6231 75.25C19.5631 75.25 19.4831 75.25 19.5031 75.34C19.8477 75.9839 20.2896 76.5708 20.8131 77.08C21.4331 77.83 22.0331 78.6 22.6631 79.33Z" fill="#350300"/>
<path d="M21.9132 81.74C21.9832 81.81 22.1132 81.74 22.0432 81.64C21.3432 80.8 20.5732 80.02 19.8032 79.24C19.6932 79.13 19.5432 79.32 19.6532 79.42C20.4232 80.18 21.1932 80.98 21.9132 81.74Z" fill="#350300"/>
<path d="M23.8434 86.11C21.7677 83.932 19.4984 81.9472 17.0634 80.18C16.9534 80.11 16.8334 80.26 16.9334 80.34C19.3434 82.14 21.2934 84.52 23.7234 86.26C23.7435 86.2683 23.7656 86.2698 23.7866 86.2644C23.8076 86.259 23.8263 86.247 23.8398 86.2301C23.8533 86.2131 23.861 86.1923 23.8617 86.1706C23.8623 86.149 23.8559 86.1277 23.8434 86.11Z" fill="#350300"/>
<path d="M23.0032 88.74C21.053 86.4847 18.8747 84.4371 16.5032 82.63C16.3032 82.48 16.0532 82.8 16.2532 82.95C18.6432 84.75 20.5232 87.05 22.7932 88.95C22.9232 89.04 23.1332 88.87 23.0032 88.74Z" fill="#350300"/>
<path d="M20.4034 89.28C19.3234 88.41 18.2134 87.57 17.0534 86.81C16.8234 86.66 16.5534 87 16.7934 87.15C17.9634 87.91 19.0335 88.84 20.2735 89.48C20.2998 89.4932 20.3302 89.4963 20.3587 89.4886C20.3872 89.4809 20.4119 89.4629 20.428 89.4381C20.4441 89.4134 20.4505 89.3835 20.4459 89.3544C20.4414 89.3252 20.4263 89.2987 20.4034 89.28Z" fill="#350300"/>
<path d="M32.8634 61.49C32.8696 61.5076 32.881 61.5229 32.8963 61.5337C32.9115 61.5446 32.9297 61.5504 32.9484 61.5504C32.9671 61.5504 32.9853 61.5446 33.0006 61.5337C33.0158 61.5229 33.0273 61.5076 33.0334 61.49C32.7634 59.86 31.8034 58.33 31.2634 56.78C31.2634 56.72 31.1534 56.78 31.1834 56.78C31.6129 58.3935 32.1748 59.9688 32.8634 61.49Z" fill="#350300"/>
<path d="M32.2831 63.38C32.2979 63.4029 32.3199 63.4201 32.3457 63.4288C32.3715 63.4375 32.3995 63.4372 32.4251 63.4279C32.4507 63.4186 32.4724 63.4009 32.4865 63.3776C32.5007 63.3544 32.5066 63.327 32.5031 63.3C32.3938 62.7557 32.198 62.2324 31.9232 61.75C31.6312 61.1083 31.4067 60.438 31.2531 59.75C31.2531 59.7129 31.2384 59.6772 31.2122 59.651C31.1859 59.6247 31.1503 59.61 31.1132 59.61C31.076 59.61 31.0404 59.6247 31.0142 59.651C30.9879 59.6772 30.9731 59.7129 30.9731 59.75C31.1005 61.0502 31.5508 62.298 32.2831 63.38Z" fill="#350300"/>
<path d="M30.6931 61.9799C30.8658 63.0175 31.1787 64.0267 31.6231 64.9799C31.6381 64.9975 31.6577 65.0103 31.6798 65.017C31.7018 65.0236 31.7253 65.0238 31.7474 65.0175C31.7696 65.0112 31.7894 64.9986 31.8046 64.9813C31.8198 64.964 31.8297 64.9427 31.8331 64.92C31.6987 63.8882 31.4262 62.8792 31.0231 61.9199C30.9731 61.7099 30.6431 61.7999 30.6931 61.9799Z" fill="#350300"/>
<path d="M30.9032 66.52C30.9195 66.5483 30.9446 66.5705 30.9746 66.5833C31.0046 66.5961 31.038 66.5987 31.0697 66.5908C31.1014 66.5829 31.1296 66.5648 31.1501 66.5394C31.1706 66.514 31.1822 66.4826 31.1832 66.45C31.0639 65.4738 30.7656 64.528 30.3033 63.66C30.2834 63.6069 30.2432 63.564 30.1916 63.5405C30.1401 63.5171 30.0813 63.5151 30.0282 63.535C29.9752 63.5549 29.9322 63.595 29.9088 63.6466C29.8854 63.6981 29.8834 63.7569 29.9032 63.81C30.1825 64.7323 30.5164 65.6373 30.9032 66.52Z" fill="#350300"/>
<path d="M30.3435 68.3799C30.3435 68.5199 30.6035 68.4799 30.6235 68.3799C30.66 67.3683 30.4507 66.3629 30.0135 65.4499C29.9235 65.2099 29.5635 65.3599 29.6535 65.5999C29.9935 66.4799 30.0535 67.4499 30.3435 68.3799Z" fill="#350300"/>
<path d="M29.3032 67.44C29.3232 68.344 29.5238 69.2348 29.8932 70.06C29.9632 70.17 30.1431 70.06 30.1331 69.97C30.0231 69.11 29.7931 68.25 29.6331 67.4C29.5931 67.19 29.2632 67.23 29.3032 67.44Z" fill="#350300"/>
<path d="M28.7435 68.8C28.5935 68.62 28.3035 68.8 28.4535 69.02C28.9001 69.7534 29.2848 70.5227 29.6035 71.32C29.6035 71.41 29.8035 71.32 29.8135 71.26C29.7589 70.3393 29.3798 69.4677 28.7435 68.8Z" fill="#350300"/>
<path d="M28.5436 70.4C28.523 70.3692 28.4924 70.3465 28.457 70.3358C28.4216 70.325 28.3835 70.3269 28.3493 70.341C28.3151 70.3552 28.2869 70.3807 28.2694 70.4134C28.252 70.446 28.2463 70.4837 28.2535 70.52C28.4158 71.1581 28.6162 71.7859 28.8536 72.4C28.9136 72.53 29.1436 72.53 29.1436 72.4C29.1138 71.6937 28.9075 71.0061 28.5436 70.4Z" fill="#350300"/>
<path d="M27.6634 71.9C27.8307 72.5472 28.0514 73.1794 28.3234 73.79C28.3734 73.88 28.5234 73.79 28.5034 73.71C28.3893 73.0489 28.2049 72.4019 27.9534 71.78C27.8934 71.59 27.6034 71.7 27.6634 71.9Z" fill="#350300"/>
<path d="M28.4634 74.12C28.3634 74.12 28.3034 74.24 28.4034 74.28C28.4145 74.2889 28.4276 74.2951 28.4415 74.298C28.4555 74.3009 28.4699 74.3005 28.4837 74.2967C28.4974 74.293 28.51 74.286 28.5206 74.2764C28.5311 74.2668 28.5392 74.2549 28.5442 74.2415C28.5492 74.2282 28.551 74.2139 28.5493 74.1997C28.5477 74.1855 28.5428 74.172 28.5349 74.1601C28.527 74.1483 28.5164 74.1384 28.504 74.1315C28.4916 74.1245 28.4777 74.1206 28.4634 74.12Z" fill="#350300"/>
<path d="M31.8135 56.24C32.3018 57.1228 32.9185 57.9283 33.6435 58.63C33.7635 58.74 33.9135 58.57 33.8335 58.45C33.2935 57.61 32.6035 56.9 32.0835 56.04C31.9735 55.86 31.7135 56.06 31.8135 56.24Z" fill="#350300"/>
<path d="M33.5432 55.5499C33.5352 55.5022 33.5086 55.4596 33.4692 55.4315C33.4298 55.4033 33.3809 55.392 33.3332 55.3999C33.2854 55.4079 33.2428 55.4345 33.2147 55.4739C33.1865 55.5133 33.1752 55.5622 33.1831 55.6099C33.1977 55.917 33.2829 56.2166 33.432 56.4854C33.5812 56.7542 33.7903 56.9851 34.0432 57.1599C34.0657 57.1748 34.0926 57.1816 34.1195 57.1792C34.1464 57.1769 34.1717 57.1656 34.1913 57.1471C34.211 57.1286 34.2238 57.104 34.2278 57.0773C34.2318 57.0506 34.2266 57.0234 34.2131 56.9999C33.8772 56.5771 33.6474 56.0799 33.5432 55.5499Z" fill="#350300"/>
<path d="M34.753 55.11C34.643 55 34.4731 55.2 34.6031 55.31C34.7331 55.42 34.7931 55.55 34.9231 55.66C35.0531 55.77 35.1531 55.59 35.0531 55.49C34.9531 55.39 34.873 55.23 34.753 55.11Z" fill="#350300"/>
<path d="M48.8433 31.45C48.5639 32.1829 48.4912 32.9786 48.6333 33.75C48.6333 33.7765 48.6438 33.8019 48.6626 33.8207C48.6814 33.8394 48.7068 33.85 48.7333 33.85C48.7598 33.85 48.7853 33.8394 48.804 33.8207C48.8228 33.8019 48.8333 33.7765 48.8333 33.75C49.0175 33.0168 49.1215 32.2657 49.1433 31.51C49.1399 31.4759 49.1256 31.4438 49.1026 31.4185C49.0796 31.3931 49.0491 31.3758 49.0155 31.3691C48.9819 31.3624 48.9471 31.3666 48.9161 31.3812C48.8851 31.3957 48.8596 31.4198 48.8433 31.45Z" fill="#350300"/>
<path d="M45.2731 41.11C45.2663 41.1313 45.2677 41.1543 45.2769 41.1746C45.2861 41.1949 45.3026 41.2111 45.3231 41.22C45.4231 41.22 45.4831 41.1 45.3831 41.06C45.3766 41.0533 45.3688 41.048 45.3602 41.0444C45.3516 41.0408 45.3424 41.039 45.3331 41.039C45.3238 41.039 45.3146 41.0408 45.306 41.0444C45.2974 41.048 45.2896 41.0533 45.2831 41.06C45.3331 40.92 45.3931 40.78 45.4431 40.65C45.4431 40.75 45.4431 40.85 45.4431 40.96C45.4431 41.23 45.8431 41.28 45.8531 40.96C45.9075 40.1 46.0687 39.2501 46.3331 38.43C46.327 38.4612 46.3317 38.4935 46.3464 38.5217C46.3612 38.5498 46.3851 38.5721 46.4141 38.5849C46.4432 38.5977 46.4758 38.6002 46.5065 38.5921C46.5372 38.5839 46.5642 38.5655 46.5831 38.54C46.9542 37.8217 47.2202 37.0539 47.3731 36.26C47.3731 36.02 47.0231 35.97 47.0031 36.26C46.8874 37.0206 46.6652 37.7612 46.3431 38.46C46.4531 38.12 46.5331 37.79 46.6631 37.46C46.6805 37.4355 46.6922 37.4074 46.6973 37.3778C46.7024 37.3482 46.7007 37.3178 46.6925 37.289C46.6842 37.2601 46.6696 37.2334 46.6496 37.211C46.6296 37.1885 46.6049 37.1709 46.5771 37.1593C46.5494 37.1478 46.5194 37.1426 46.4894 37.1443C46.4594 37.1459 46.4302 37.1542 46.4039 37.1687C46.3775 37.1832 46.3548 37.2034 46.3374 37.2278C46.3199 37.2523 46.3082 37.2804 46.3031 37.31C45.9742 38.0979 45.7328 38.9194 45.5831 39.76C45.4031 40.16 45.2331 40.57 45.0331 40.96C44.9331 41.15 45.2131 41.27 45.2731 41.11Z" fill="#350300"/>
<path d="M44.3835 45.3399C44.5335 44.3999 44.6936 43.4699 44.8936 42.5299C44.8936 42.3699 44.6635 42.3299 44.6235 42.5299C44.4335 43.4599 44.2835 44.3999 44.1235 45.3399C44.1335 45.4699 44.3535 45.5099 44.3835 45.3399Z" fill="#350300"/>
<path d="M43.9234 43.9801C43.9036 43.9708 43.8808 43.9698 43.8601 43.9773C43.8395 43.9848 43.8227 44.0002 43.8134 44.0201C43.8041 44.0399 43.8031 44.0627 43.8106 44.0833C43.8182 44.104 43.8335 44.1208 43.8534 44.1301C43.8733 44.1393 43.8961 44.1403 43.9167 44.1328C43.9374 44.1253 43.9541 44.1099 43.9634 44.0901C43.9727 44.0702 43.9737 44.0474 43.9662 44.0268C43.9587 44.0061 43.9433 43.9893 43.9234 43.9801Z" fill="#350300"/>
<path d="M43.2334 46.32C43.2334 46.55 43.2334 46.77 43.2334 47C43.2404 47.0224 43.2543 47.042 43.2732 47.0559C43.2921 47.0697 43.3149 47.0772 43.3384 47.0772C43.3618 47.0772 43.3847 47.0697 43.4036 47.0559C43.4225 47.042 43.4364 47.0224 43.4434 47C43.4934 46.77 43.4434 46.55 43.5234 46.33C43.6034 46.11 43.2534 46.16 43.2334 46.32Z" fill="#350300"/>
<path d="M41.5735 52.52C41.582 51.8683 41.5452 51.2167 41.4635 50.57C41.4546 50.5356 41.4346 50.5051 41.4066 50.4833C41.3785 50.4615 41.344 50.4497 41.3085 50.4497C41.2729 50.4497 41.2384 50.4615 41.2104 50.4833C41.1823 50.5051 41.1623 50.5356 41.1535 50.57C41.0734 51.2395 41.121 51.9182 41.2935 52.57C41.3086 52.5976 41.3319 52.6198 41.3602 52.6333C41.3886 52.6469 41.4205 52.6513 41.4515 52.6457C41.4824 52.6402 41.5108 52.6251 41.5327 52.6025C41.5546 52.58 41.5689 52.5511 41.5735 52.52Z" fill="#350300"/>
<path d="M40.5034 52.48C40.4923 52.4711 40.4793 52.4649 40.4653 52.462C40.4514 52.4591 40.437 52.4595 40.4232 52.4633C40.4095 52.467 40.3968 52.474 40.3863 52.4836C40.3758 52.4932 40.3677 52.5051 40.3627 52.5185C40.3577 52.5318 40.3559 52.5462 40.3575 52.5603C40.3591 52.5745 40.3641 52.588 40.372 52.5999C40.3799 52.6118 40.3904 52.6216 40.4029 52.6286C40.4153 52.6355 40.4292 52.6395 40.4434 52.64C40.5334 52.68 40.6034 52.52 40.5034 52.48Z" fill="#350300"/>
<path d="M37.4335 27.72C37.5102 26.9526 37.5369 26.181 37.5135 25.41C37.5135 25.3782 37.5008 25.3477 37.4783 25.3252C37.4558 25.3027 37.4253 25.29 37.3935 25.29C37.3617 25.29 37.3311 25.3027 37.3086 25.3252C37.2861 25.3477 37.2735 25.3782 37.2735 25.41C37.0586 26.182 37.0586 26.9981 37.2735 27.77C37.2935 27.83 37.4235 27.82 37.4335 27.72Z" fill="#350300"/>
<path d="M36.3432 28.9C36.4285 28.518 36.4285 28.1219 36.3432 27.74H36.2832C36.3859 28.1179 36.4063 28.5135 36.3432 28.9Z" fill="#350300"/>
<path d="M35.3733 29.27C35.4949 30.1177 35.5218 30.9763 35.4533 31.83C35.461 31.8571 35.4774 31.881 35.5 31.8981C35.5225 31.9151 35.55 31.9243 35.5783 31.9243C35.6065 31.9243 35.634 31.9151 35.6566 31.8981C35.6791 31.881 35.6955 31.8571 35.7033 31.83C35.8633 30.964 35.8633 30.076 35.7033 29.21C35.6333 29.05 35.3433 29.09 35.3733 29.27Z" fill="#350300"/>
<path d="M34.7935 31.6101C34.9335 32.4001 34.8835 33.2101 35.0035 34.0001C35.0035 34.1501 35.2235 34.1301 35.2535 34.0001C35.3967 33.1934 35.3694 32.3656 35.1735 31.5701C35.1335 31.3301 34.7535 31.3701 34.7935 31.6101Z" fill="#350300"/>
<path d="M34.3131 34.43C34.2131 34.28 33.9831 34.43 34.0931 34.6C34.3103 34.983 34.4369 35.4106 34.4631 35.85C34.4631 35.96 34.6631 35.97 34.6731 35.85C34.7222 35.3492 34.5948 34.847 34.3131 34.43Z" fill="#350300"/>
<path d="M33.7432 36.24C33.6332 36.93 33.3532 38.32 33.9032 38.91C33.9098 38.93 33.9225 38.9474 33.9396 38.9597C33.9566 38.9721 33.9771 38.9787 33.9982 38.9787C34.0193 38.9787 34.0398 38.9721 34.0568 38.9597C34.0739 38.9474 34.0866 38.93 34.0932 38.91C34.0993 38.625 34.0759 38.3401 34.0232 38.06C33.9797 37.4855 34.0066 36.9079 34.1032 36.34C34.1098 36.3163 34.1116 36.2916 34.1086 36.2673C34.1057 36.2429 34.0979 36.2194 34.0858 36.198C34.0738 36.1767 34.0576 36.1579 34.0383 36.1428C34.019 36.1277 33.9968 36.1165 33.9732 36.11C33.9496 36.1034 33.9249 36.1016 33.9005 36.1045C33.8762 36.1075 33.8527 36.1153 33.8313 36.1273C33.8099 36.1394 33.7911 36.1556 33.776 36.1749C33.7609 36.1942 33.7498 36.2163 33.7432 36.24Z" fill="#350300"/>
<path d="M33.9633 39.4399C33.8633 39.4399 33.7933 39.5599 33.8933 39.5999C33.9933 39.6399 34.0633 39.4799 33.9633 39.4399Z" fill="#350300"/>
<path d="M24.6635 53.59C24.7635 53.59 24.8335 53.47 24.7335 53.43C24.7137 53.4266 24.6933 53.43 24.6757 53.4395C24.658 53.4491 24.644 53.4642 24.636 53.4826C24.6279 53.501 24.6263 53.5216 24.6312 53.541C24.6362 53.5605 24.6476 53.5777 24.6635 53.59Z" fill="#350300"/>
<path d="M24.4734 58.4C24.5734 58.4 24.6334 58.28 24.5434 58.24C24.5326 58.2317 24.52 58.2259 24.5066 58.2232C24.4932 58.2204 24.4794 58.2207 24.4661 58.2241C24.4529 58.2275 24.4406 58.2339 24.4302 58.2427C24.4197 58.2516 24.4115 58.2627 24.406 58.2752C24.4005 58.2878 24.3979 58.3014 24.3985 58.315C24.3991 58.3287 24.4028 58.3421 24.4093 58.3541C24.4158 58.3661 24.4249 58.3765 24.436 58.3845C24.4471 58.3924 24.4599 58.3978 24.4734 58.4Z" fill="#350300"/>
</svg>
