<svg width="24" height="23" viewBox="0 0 24 23" fill="none" xmlns="http://www.w3.org/2000/svg">
<path d="M19.3678 13.5288C20.3678 12.4788 23.9678 11.2188 23.7078 8.98881C23.4478 6.75881 21.1678 3.19881 18.7078 2.51881C16.2478 1.83881 14.0778 2.37881 12.7878 1.51881C11.4978 0.658812 8.52777 -0.0111888 7.12777 0.658811C5.72777 1.32881 2.53777 2.48881 1.26777 5.02881C0.800724 5.60024 0.491316 6.28393 0.370272 7.01195C0.249227 7.73997 0.320764 8.48699 0.577776 9.17881C1.47778 11.5688 3.17777 14.7588 3.95777 16.8088C4.73777 18.8588 5.59777 21.5488 9.01777 21.6488C12.4378 21.7488 14.1978 19.4688 15.5578 18.7288C16.9178 17.9888 18.3278 14.5788 19.3678 13.5288ZM10.0078 18.1788C7.72778 18.0888 6.35778 15.2488 6.43778 15.1788C6.73701 14.5317 6.9877 13.8631 7.18778 13.1788C7.25778 12.8288 8.40778 11.7388 8.40778 11.7388C7.91999 11.7609 7.4312 11.7375 6.94777 11.6688C5.69119 11.1189 4.50861 10.4133 3.42777 9.56881C3.23777 9.26881 4.07778 6.07881 4.07778 6.07881C4.07778 6.07881 8.36777 3.27881 8.44777 3.32881C10.7578 4.71881 10.6278 7.97881 10.6278 7.97881C10.6278 7.97881 12.1678 5.64881 12.5378 4.97881C12.9078 4.30881 16.8878 5.03881 18.5378 6.57881C20.1878 8.11881 17.9378 11.1788 17.4278 11.4288C16.2123 11.474 14.9955 11.3902 13.7978 11.1788C13.7978 11.1788 12.7278 11.3888 12.5778 11.4588C12.8845 12.2463 13.2523 13.0086 13.6778 13.7388C13.6778 13.8788 13.8078 15.5288 13.8078 15.5288C13.4178 16.0463 12.9754 16.5221 12.4878 16.9488C11.9978 17.2988 12.2978 18.2288 10.0078 18.1788Z" fill="#09C000"/>
<path d="M4.00781 20.7488C4.0177 20.6424 4.0177 20.5353 4.00781 20.4288L4.21781 20.6788L4.00781 20.7488Z" fill="#D85700"/>
<path d="M4.59762 17.7388C5.27762 19.2588 5.87762 20.7388 7.59762 21.2488C11.4876 22.4588 15.8476 18.5988 17.5976 15.5588C17.7276 15.3388 17.4776 15.0188 17.2576 15.2188C16.0276 16.3388 15.0376 17.6388 13.7276 18.7088C12.9874 19.3559 12.1237 19.8464 11.1888 20.1506C10.2538 20.4548 9.26691 20.5664 8.28762 20.4788C6.38762 20.3088 5.73762 17.8488 5.05762 16.3888C4.27762 14.7488 3.30762 13.2288 2.64762 11.5288C2.57762 11.3488 2.27762 11.4288 2.31762 11.6188C2.80167 13.7513 3.56845 15.8095 4.59762 17.7388Z" fill="#005700"/>
<path d="M1.22769 8.31875C1.21377 8.36438 1.21377 8.41313 1.22769 8.45875C1.17801 8.6827 1.17801 8.91481 1.22769 9.13875C1.24986 9.19102 1.29137 9.23269 1.34355 9.25506C1.39574 9.27742 1.45455 9.27874 1.50769 9.25875C1.63092 9.22293 1.74529 9.16171 1.84346 9.07905C1.94162 8.99638 2.02141 8.89409 2.07769 8.77875C2.09426 8.73872 2.09739 8.69438 2.0866 8.65242C2.0758 8.61045 2.05168 8.57313 2.01784 8.54606C1.984 8.51899 1.94229 8.50364 1.89898 8.50232C1.85567 8.50101 1.8131 8.51379 1.77768 8.53875L1.56768 8.70875C1.55768 8.63576 1.55768 8.56175 1.56768 8.48875C2.36574 6.13501 3.87093 4.08501 5.87768 2.61875C8.22768 0.998754 10.8177 1.98875 13.3477 2.56875C13.4977 2.56875 13.5277 2.38875 13.4077 2.32875C10.9377 0.958754 8.47768 -0.101246 5.84768 1.32875C3.21768 2.75875 1.28769 5.32875 1.22769 8.31875Z" fill="#005700"/>
<path d="M20.0479 8.51883C20.1779 6.86883 19.2079 5.01883 17.4979 4.79883V4.86883C18.9279 5.26883 19.5679 7.34883 19.4379 8.65883C19.2679 10.4388 17.6579 10.8088 16.5679 11.8288C16.5354 11.8502 16.5112 11.882 16.4993 11.919C16.4875 11.9561 16.4886 11.996 16.5027 12.0323C16.5167 12.0686 16.5428 12.0989 16.5765 12.1183C16.6102 12.1377 16.6495 12.1449 16.6879 12.1388C18.4279 12.0388 19.9179 10.1188 20.0479 8.51883Z" fill="#D85700"/>
<path d="M17.4275 3.28885C18.6352 3.78774 19.7252 4.53371 20.6275 5.47885C21.1035 5.95727 21.4628 6.53901 21.6775 7.17885C21.6578 7.85113 21.5084 8.51327 21.2375 9.12885C21.3937 8.57017 21.344 7.97397 21.0975 7.44885C21.0869 7.40774 21.0604 7.37253 21.0238 7.35097C20.9873 7.3294 20.9436 7.32324 20.9025 7.33385C20.8614 7.34446 20.8262 7.37097 20.8046 7.40754C20.7831 7.44411 20.7769 7.48774 20.7875 7.52885C20.8067 7.83175 20.7763 8.13574 20.6975 8.42885C20.6893 8.41648 20.6782 8.40632 20.6651 8.3993C20.652 8.39228 20.6374 8.3886 20.6225 8.3886C20.6077 8.3886 20.593 8.39228 20.58 8.3993C20.5669 8.40632 20.5557 8.41648 20.5475 8.42885C20.4168 9.06785 20.1319 9.66519 19.7175 10.1689C19.7096 10.1794 19.7039 10.1913 19.7006 10.204C19.6974 10.2168 19.6967 10.23 19.6985 10.243C19.7004 10.256 19.7048 10.2685 19.7115 10.2798C19.7182 10.2911 19.727 10.301 19.7375 10.3089C19.748 10.3167 19.76 10.3225 19.7727 10.3257C19.7854 10.329 19.7986 10.3297 19.8116 10.3278C19.8246 10.326 19.8372 10.3216 19.8485 10.3149C19.8598 10.3082 19.8696 10.2994 19.8775 10.2889C20.361 9.73133 20.7039 9.0661 20.8775 8.34885C20.8232 8.92898 20.6238 9.48611 20.2975 9.96885C20.2734 10.0079 20.2641 10.0543 20.2716 10.0996C20.279 10.1449 20.3026 10.186 20.3379 10.2152C20.3733 10.2445 20.418 10.2599 20.4639 10.2588C20.5098 10.2576 20.5537 10.2399 20.5875 10.2089C20.8569 9.98152 21.0635 9.68886 21.1875 9.35885C21.2935 9.17339 21.3838 8.97938 21.4575 8.77885C21.5885 8.35505 21.6789 7.91976 21.7275 7.47885C21.7589 8.38257 21.6233 9.28434 21.3275 10.1389C20.8413 10.5559 20.3304 10.9433 19.7975 11.2989C18.5844 12.1456 17.679 13.3633 17.2175 14.7689C17.1982 14.8244 17.199 14.8849 17.2199 14.9399C17.2408 14.9949 17.2804 15.0407 17.3318 15.0693C17.3831 15.098 17.4429 15.1076 17.5007 15.0966C17.5584 15.0855 17.6104 15.0545 17.6475 15.0089C18.3302 14.0531 19.1038 13.1656 19.9575 12.3589C20.8387 11.8311 21.666 11.2181 22.4275 10.5289C22.8201 10.0387 23.0288 9.42671 23.0175 8.79885C24.0175 5.95885 19.8475 3.19885 17.4375 3.19885L17.4275 3.28885ZM22.0475 8.69885L22.1075 9.11885C22.0273 9.30916 21.9267 9.49021 21.8075 9.65885C21.9123 9.34748 21.9828 9.02556 22.0175 8.69885H22.0475Z" fill="#005700"/>
<path d="M6.36752 15.7288C6.22038 15.4597 6.15111 15.155 6.16752 14.8488C6.27752 14.5988 6.33752 14.2988 6.41752 14.0588C6.49752 13.8188 6.67752 13.4188 6.80752 13.0588L7.13752 12.4988C7.29752 12.1988 6.92752 11.8788 6.64752 11.9788C6.60641 11.9733 6.5646 11.9767 6.52492 11.9888C6.48525 12.0009 6.44862 12.0213 6.41752 12.0488C6.20403 12.2456 6.02787 12.4793 5.89752 12.7388C5.54975 13.1461 5.30908 13.6338 5.19733 14.1577C5.08557 14.6815 5.10627 15.2249 5.25752 15.7388C5.54488 16.3588 5.96107 16.9105 6.47836 17.3571C6.99566 17.8037 7.60218 18.1349 8.25752 18.3288C8.37752 18.3788 8.51752 18.2288 8.41752 18.1188C7.64277 17.4053 6.9547 16.6031 6.36752 15.7288Z" fill="#005700"/>
<path d="M2.54781 10.9588C1.89486 9.24212 1.85248 7.35304 2.4278 5.60881C2.9178 3.76881 4.7378 2.82881 6.1478 1.77881C2.6178 3.32881 -0.152197 7.42881 2.2878 11.1788C2.3203 11.1929 2.35609 11.1976 2.39113 11.1924C2.42617 11.1873 2.45907 11.1724 2.48611 11.1495C2.51315 11.1266 2.53325 11.0967 2.54415 11.063C2.55505 11.0293 2.55632 10.9932 2.54781 10.9588Z" fill="#005700"/>
<path d="M9.42765 18.3388C8.35621 17.953 7.39746 17.307 6.63765 16.4588C6.39563 16.2349 6.20127 15.9646 6.06621 15.6639C5.93115 15.3631 5.85817 15.0383 5.85164 14.7087C5.8451 14.3791 5.90514 14.0516 6.02817 13.7457C6.15121 13.4399 6.33469 13.162 6.56765 12.9288C6.63765 12.8388 6.51765 12.6988 6.42765 12.7888C5.70765 13.4588 4.92765 14.3088 5.25765 15.3888C5.86751 16.8397 6.99837 18.0098 8.42765 18.6688C10.8376 20.0188 13.6477 18.1388 14.5877 15.8688C14.6577 15.7088 14.4076 15.5588 14.3076 15.7088C13.1876 17.3488 11.5976 18.9188 9.42765 18.3388Z" fill="#005700"/>
<path d="M11.6677 5.69881C11.9805 5.26722 12.3979 4.92234 12.8808 4.69665C13.3636 4.47097 13.896 4.37191 14.4277 4.40881C15.5018 4.54562 16.5401 4.88495 17.4877 5.40881C18.0293 5.63168 18.5008 5.9963 18.8527 6.46438C19.2046 6.93245 19.424 7.48667 19.4877 8.06881C19.7177 9.39881 18.2877 10.6388 17.4877 11.5388C17.4665 11.56 17.4546 11.5888 17.4546 11.6188C17.4546 11.6488 17.4665 11.6776 17.4877 11.6988C17.5089 11.72 17.5377 11.7319 17.5677 11.7319C17.5977 11.7319 17.6265 11.72 17.6477 11.6988C18.6477 10.8188 20.2077 9.89881 20.1877 8.36881C20.212 7.7178 20.0615 7.07217 19.7521 6.49892C19.4426 5.92566 18.9853 5.44569 18.4277 5.10881C16.6777 4.22881 12.1477 2.32881 11.6577 5.68881L11.6677 5.69881Z" fill="#005700"/>
<path d="M20.2276 10.0688C20.6259 9.5549 20.8905 8.95017 20.9976 8.30884C20.7576 8.90884 20.3876 9.41884 20.1076 9.98884C20.0276 10.0688 20.1676 10.1788 20.2276 10.0688Z" fill="#D85700"/>
<path d="M20.8278 10.1788C20.9378 10.0888 21.0478 9.9988 21.1478 9.8988L21.0578 10.0788C21.0459 10.1095 21.0431 10.1431 21.0499 10.1754C21.0567 10.2076 21.0727 10.2372 21.0961 10.2605C21.1194 10.2838 21.149 10.2999 21.1812 10.3067C21.2135 10.3135 21.2471 10.3107 21.2778 10.2988C21.3865 10.2486 21.4903 10.1883 21.5878 10.1188C21.5747 10.1583 21.5742 10.2008 21.5864 10.2406C21.5986 10.2804 21.6229 10.3153 21.6559 10.3406C21.6889 10.3659 21.729 10.3803 21.7705 10.3818C21.8121 10.3832 21.8531 10.3717 21.8878 10.3488L22.1578 10.1788C22.1578 10.2588 22.0578 10.3388 22.0178 10.4188C22.0002 10.4482 21.994 10.483 22.0004 10.5167C22.0067 10.5503 22.0252 10.5805 22.0523 10.6015C22.0794 10.6224 22.1133 10.6327 22.1475 10.6304C22.1816 10.628 22.2138 10.6132 22.2378 10.5888C22.5184 10.3519 22.712 10.0281 22.7878 9.6688C22.7878 9.5388 22.6678 9.3688 22.5378 9.4888C22.4082 9.59688 22.2674 9.69075 22.1178 9.7688C22.1178 9.5888 22.2278 9.4088 22.2878 9.2388C22.3478 9.0688 22.0778 8.9288 21.9778 9.1088C21.8871 9.30366 21.7655 9.48262 21.6178 9.6388C21.7478 9.3488 21.8878 9.0688 21.9978 8.7788C22.005 8.76173 22.0088 8.7434 22.0089 8.72486C22.0091 8.70633 22.0056 8.68794 21.9986 8.67076C21.9916 8.65358 21.9814 8.63795 21.9684 8.62474C21.9554 8.61153 21.9399 8.60102 21.9228 8.5938C21.9057 8.58658 21.8874 8.58279 21.8689 8.58265C21.8503 8.58251 21.8319 8.58602 21.8148 8.59298C21.7976 8.59995 21.7819 8.61023 21.7687 8.62323C21.7555 8.63624 21.745 8.65172 21.7378 8.6688C21.6259 8.89481 21.4919 9.10919 21.3378 9.3088L21.6778 8.7188C21.7278 8.6288 21.5778 8.5488 21.5278 8.6288C21.2578 9.0988 20.9678 9.5488 20.6678 9.9888C20.5978 10.0788 20.7178 10.1788 20.8278 10.1788Z" fill="#D85700"/>
<path d="M8.47776 20.1188C8.72443 20.1596 8.97764 20.1174 9.19775 19.9988C9.19775 19.9988 9.19775 19.9988 9.19775 19.9488C9.65651 20.0405 10.1319 19.9988 10.5678 19.8288C10.6169 19.8182 10.6608 19.791 10.6924 19.7519C10.7239 19.7128 10.7411 19.6641 10.7411 19.6138C10.7411 19.5636 10.7239 19.5149 10.6924 19.4757C10.6608 19.4366 10.6169 19.4095 10.5678 19.3988C9.93593 19.3281 9.31066 19.2078 8.69775 19.0388C7.96398 18.7476 7.30211 18.3006 6.75776 17.7288C5.6781 16.6689 5.03875 15.2402 4.96776 13.7288C4.97328 13.7058 4.97328 13.6818 4.96776 13.6588C4.98851 13.6963 5.01894 13.7276 5.05587 13.7494C5.0928 13.7712 5.13489 13.7826 5.17776 13.7826C5.22063 13.7826 5.26271 13.7712 5.29964 13.7494C5.33658 13.7276 5.367 13.6963 5.38776 13.6588C5.46284 13.4611 5.51974 13.2569 5.55775 13.0488C5.62167 12.8724 5.71277 12.7071 5.82776 12.5588C5.93776 12.4188 5.75775 12.2788 5.62775 12.3588C5.62052 12.3096 5.59876 12.2637 5.56528 12.2269C5.53179 12.1901 5.4881 12.1642 5.43978 12.1524C5.39146 12.1406 5.34072 12.1434 5.29404 12.1606C5.24737 12.1778 5.20688 12.2085 5.17776 12.2488C5.15205 12.2036 5.11603 12.1651 5.07263 12.1365C5.02923 12.1079 4.97968 12.0899 4.92802 12.0841C4.87635 12.0782 4.82403 12.0846 4.77533 12.1029C4.72663 12.1211 4.68291 12.1505 4.64776 12.1888C4.39776 12.4488 4.34776 12.2688 4.20776 12.0188C4.06776 11.7688 4.00776 11.5888 3.74776 11.5388C3.71282 11.5332 3.67709 11.5348 3.64278 11.5434C3.60846 11.5521 3.57628 11.5677 3.54819 11.5892C3.52011 11.6107 3.49671 11.6378 3.47944 11.6686C3.46217 11.6995 3.45139 11.7336 3.44775 11.7688C3.44775 12.1088 3.79776 12.5988 4.03776 12.8188C4.095 12.8784 4.16587 12.9232 4.24426 12.9493C4.32264 12.9755 4.40621 12.9822 4.48775 12.9688C4.48775 13.2288 4.83775 13.3088 4.98775 13.1288C5.01354 13.1081 5.03701 13.0846 5.05775 13.0588C5.04171 13.1875 5.01495 13.3146 4.97776 13.4388C4.96283 13.4683 4.95504 13.5008 4.95504 13.5338C4.95504 13.5668 4.96283 13.5994 4.97776 13.6288C4.95068 13.5931 4.91374 13.5661 4.87148 13.551C4.82923 13.536 4.78351 13.5337 4.73994 13.5443C4.69638 13.5549 4.65687 13.578 4.62627 13.6108C4.59568 13.6436 4.57534 13.6846 4.56776 13.7288C4.52307 14.5777 4.6636 15.4262 4.9796 16.2153C5.2956 17.0045 5.77952 17.7154 6.39776 18.2988C6.85549 18.7531 7.37779 19.1372 7.94775 19.4388C7.93833 19.461 7.93373 19.485 7.93427 19.5091C7.9348 19.5332 7.94046 19.5569 7.95086 19.5787C7.96126 19.6004 7.97618 19.6197 7.99461 19.6352C8.01304 19.6508 8.03456 19.6622 8.05775 19.6688L8.31776 19.7488C8.29793 19.7827 8.28636 19.8208 8.28397 19.86C8.28159 19.8991 8.28847 19.9383 8.30405 19.9744C8.31963 20.0104 8.34347 20.0422 8.37365 20.0673C8.40383 20.0924 8.4395 20.1101 8.47776 20.1188Z" fill="white"/>
<path d="M3.57769 6.00876C4.5144 4.76809 5.70836 3.7447 7.07769 3.00876C7.71744 2.74592 8.4217 2.68262 9.09806 2.82718C9.77442 2.97173 10.3913 3.31738 10.8677 3.81876C10.8984 3.85949 10.94 3.8907 10.9877 3.90876C11.006 3.97559 11.0469 4.03402 11.1034 4.07413C11.1599 4.11423 11.2286 4.13353 11.2977 4.12876H11.4077H11.4777C11.4154 4.2081 11.3586 4.29163 11.3077 4.37876C11.1577 4.63876 11.4577 5.02876 11.7077 4.77876C13.1677 3.33876 14.8077 3.13876 16.7977 3.39876C16.9277 3.39876 16.9577 3.20876 16.7977 3.18876C15.1577 2.89876 13.0877 2.47876 11.7977 3.70876C11.7799 3.67772 11.7561 3.65053 11.7277 3.62876C11.672 3.58826 11.6115 3.55468 11.5477 3.52876C11.553 3.42883 11.553 3.32869 11.5477 3.22876C11.5387 3.17537 11.5154 3.12541 11.4803 3.08418C11.4453 3.04294 11.3997 3.01197 11.3484 2.99454C11.2972 2.97711 11.2421 2.97388 11.1892 2.98519C11.1363 2.99649 11.0874 3.02192 11.0477 3.05876C10.5414 2.62149 9.93687 2.3131 9.28566 2.15988C8.63445 2.00665 7.95585 2.01313 7.30769 2.17876C5.58769 2.52876 4.10769 4.35876 3.30769 5.82876C3.24769 6.01876 3.47769 6.17876 3.57769 6.00876Z" fill="white"/>
<path d="M4.15758 4.42879C4.22758 4.35879 4.15758 4.24878 4.02758 4.30878C2.63758 5.36878 2.18758 7.57879 2.32758 9.24879C2.32758 9.40879 2.59758 9.40879 2.61758 9.24879C2.83758 7.49879 2.87758 5.78879 4.15758 4.42879Z" fill="white"/>
<path d="M19.4276 5.70884C19.7252 6.32998 19.8912 7.0059 19.9153 7.69422C19.9394 8.38254 19.821 9.06842 19.5676 9.70884C19.0476 10.9188 17.9676 11.6388 17.1676 12.6288C17.1481 12.657 17.1381 12.6908 17.1392 12.725C17.1403 12.7593 17.1524 12.7923 17.1737 12.8192C17.195 12.8461 17.2244 12.8654 17.2575 12.8744C17.2906 12.8833 17.3257 12.8814 17.3576 12.8688C18.1139 12.4932 18.7741 11.9493 19.2876 11.2788C19.3109 11.2903 19.3366 11.2963 19.3626 11.2963C19.3886 11.2963 19.4143 11.2903 19.4376 11.2788C19.6576 11.1288 19.8876 11.0088 20.1076 10.8588C20.3276 10.7088 20.1076 10.4988 19.9676 10.5088C19.9944 10.4665 20.0244 10.4264 20.0576 10.3888C20.0746 10.3738 20.0883 10.3554 20.0976 10.3347C20.1069 10.314 20.1118 10.2915 20.1118 10.2688C20.1118 10.2461 20.1069 10.2237 20.0976 10.203C20.0883 10.1823 20.0746 10.1639 20.0576 10.1488C20.1192 10.0327 20.1727 9.91241 20.2176 9.78884C20.4446 9.10052 20.5193 8.37107 20.4364 7.65103C20.3535 6.931 20.1151 6.23759 19.7376 5.61884C19.7257 5.57773 19.6979 5.54305 19.6604 5.52242C19.6229 5.50179 19.5787 5.49691 19.5376 5.50884C19.4965 5.52078 19.4618 5.54855 19.4412 5.58606C19.4205 5.62357 19.4157 5.66773 19.4276 5.70884Z" fill="white"/>
<path d="M16.2679 13.5888C16.2778 13.5243 16.2641 13.4583 16.2291 13.4032C16.1942 13.348 16.1405 13.3074 16.0779 13.2888C16.3254 13.1004 16.5861 12.93 16.8579 12.7788C16.9779 12.7088 16.8579 12.5088 16.7379 12.5688L15.9979 12.9688C15.9825 12.9378 15.96 12.911 15.9322 12.8903C15.9044 12.8697 15.8722 12.8559 15.8381 12.85C15.804 12.8442 15.769 12.8465 15.736 12.8567C15.7029 12.8669 15.6727 12.8848 15.6479 12.9088C15.5079 13.0388 15.3579 13.1488 15.2179 13.2688L15.0379 13.1488H14.9779C14.6879 13.0088 14.4479 13.4488 14.6979 13.6388L14.8179 13.7488C14.8738 13.7977 14.9161 13.8603 14.9406 13.9304C14.9651 14.0005 14.9711 14.0757 14.9579 14.1488C14.9653 14.1984 14.9854 14.2452 15.0162 14.2847C15.0471 14.3243 15.0877 14.3551 15.134 14.3742C15.1804 14.3934 15.2309 14.4002 15.2806 14.394C15.3304 14.3877 15.3777 14.3688 15.4179 14.3388L15.2179 14.7788C15.1966 14.8347 15.192 14.8955 15.2045 14.954C15.217 15.0124 15.2461 15.066 15.2884 15.1083C15.3307 15.1506 15.3843 15.1797 15.4427 15.1922C15.5012 15.2047 15.562 15.2001 15.6179 15.1788C15.4754 15.4171 15.3485 15.6642 15.2379 15.9188C15.1679 16.0988 15.4079 16.3188 15.5579 16.1688C16.0378 15.7093 16.4041 15.1444 16.6279 14.5188C16.7179 14.2488 16.3879 13.9288 16.1479 14.1588C16.2013 13.9719 16.2414 13.7814 16.2679 13.5888Z" fill="white"/>
<path d="M14.5876 4.47874C13.8065 4.34839 13.0048 4.51229 12.3376 4.93874C12.04 5.24941 11.8206 5.62647 11.6976 6.03874C11.5218 6.4814 11.3111 6.90941 11.0676 7.31874C11.1645 6.88213 11.1043 6.42533 10.8976 6.02874C10.801 5.87574 10.6753 5.74323 10.5276 5.63874C10.1392 5.10613 9.82311 4.5244 9.58759 3.90874C9.59325 3.86559 9.59325 3.82189 9.58759 3.77874C9.58759 3.70874 9.48758 3.66874 9.44758 3.61874L9.29759 3.45874C9.23906 3.39692 9.17551 3.34006 9.10759 3.28874C7.85759 2.37874 6.23759 4.45874 5.22759 4.92874C4.9133 5.0414 4.62622 5.21893 4.38502 5.44979C4.14382 5.68065 3.9539 5.95968 3.82759 6.26874C3.72341 6.45374 3.63638 6.64788 3.56758 6.84874C3.37472 7.36828 3.2275 7.90364 3.12758 8.44874C3.05252 8.83849 3.05252 9.23899 3.12758 9.62874C3.38758 10.6287 4.54758 10.8887 5.37758 11.2487C5.88158 11.5571 6.4182 11.8086 6.97759 11.9987C7.30773 12.064 7.64744 12.064 7.97759 11.9987C7.84791 12.1128 7.73059 12.2401 7.62758 12.3787C7.50388 12.4631 7.36933 12.5304 7.22759 12.5787C7.19272 12.5962 7.16373 12.6235 7.14418 12.6573C7.12464 12.6911 7.1154 12.7298 7.11759 12.7687C7.27759 13.6087 6.46759 14.1387 6.22759 14.8687C6.17541 15.1313 6.18244 15.4022 6.24817 15.6617C6.31391 15.9211 6.4367 16.1627 6.60759 16.3687C6.93283 16.9162 7.36684 17.3913 7.88282 17.7645C8.3988 18.1377 8.9858 18.4012 9.60759 18.5387C10.0709 18.6768 10.5577 18.7176 11.0376 18.6587C11.6576 18.5587 11.9776 17.8387 12.3876 17.4587C13.0576 16.8287 13.8376 16.7287 14.1876 15.7787C14.1876 15.7787 14.1876 15.6887 14.1876 15.6387C14.3076 15.4211 14.3888 15.1842 14.4276 14.9387C14.436 14.6484 14.3558 14.3624 14.1976 14.1187C13.9456 13.2332 13.5132 12.4093 12.9276 11.6987C13.5276 11.1687 14.4176 11.5687 15.1176 11.7787C15.7557 12.025 16.4546 12.067 17.1176 11.8987C17.9728 11.5403 18.6738 10.8911 19.0965 10.0657C19.5192 9.24041 19.6365 8.29219 19.4276 7.38874C18.8576 5.32874 16.5076 4.58874 14.5876 4.47874ZM18.8176 8.85874C18.7216 9.36756 18.5079 9.84688 18.1937 10.2584C17.8794 10.6699 17.4732 11.0022 17.0076 11.2287C16.3249 11.4543 15.5806 11.4004 14.9376 11.0787C13.9976 10.7787 13.0176 10.5687 12.3076 11.3587L12.2276 11.4487C12.1883 11.508 12.1674 11.5776 12.1676 11.6487C12.1946 12.1777 12.387 12.6849 12.7176 13.0987C13.3176 13.9887 14.0676 14.7387 13.2076 15.7987C12.8464 16.1984 12.4516 16.5665 12.0276 16.8987C11.8469 17.0212 11.6794 17.162 11.5276 17.3187C11.3749 17.53 11.2078 17.7304 11.0276 17.9187C10.6676 18.2287 9.76759 17.9187 9.39759 17.7887C9.25759 17.7387 9.11758 17.6687 8.98758 17.6087C8.20582 17.2236 7.55016 16.6235 7.09758 15.8787C6.56758 14.9887 7.46759 14.4987 7.67759 13.7387C7.96317 13.0492 8.29735 12.3809 8.67759 11.7387C8.69217 11.7001 8.69217 11.6574 8.67759 11.6187C8.68788 11.5935 8.69155 11.5661 8.68827 11.539C8.68499 11.512 8.67486 11.4862 8.65884 11.4642C8.64282 11.4422 8.62143 11.4246 8.59671 11.4131C8.57199 11.4017 8.54475 11.3967 8.51758 11.3987C7.02196 11.286 5.57822 10.8014 4.31758 9.98874C3.31758 9.43874 3.89758 8.11874 4.12758 7.35874C4.23785 6.96839 4.43311 6.60728 4.69935 6.30127C4.9656 5.99526 5.29624 5.75194 5.66758 5.58874C6.66758 4.98874 8.66759 2.45874 9.15759 5.15874C9.26064 5.52707 9.50505 5.83977 9.83759 6.02874C10.065 6.178 10.2399 6.39485 10.3376 6.64874C10.3741 7.18415 10.3405 7.72204 10.2376 8.24874C10.231 8.31068 10.2426 8.3732 10.2711 8.42862C10.2995 8.48405 10.3435 8.52997 10.3976 8.56076C10.4518 8.59155 10.5137 8.60586 10.5759 8.60195C10.6381 8.59804 10.6977 8.57607 10.7476 8.53874C11.3419 8.08128 11.7986 7.46885 12.0676 6.76874C12.2876 6.24874 12.4276 5.49874 12.9876 5.21874C13.4695 5.07069 13.9773 5.02638 14.4776 5.08874C16.6976 5.17874 19.1876 6.28874 18.8176 8.85874Z" fill="#350300"/>
<path d="M23.7977 8.0088C23.4464 6.31064 22.5212 4.78518 21.1777 3.6888C19.9516 2.61394 18.4048 1.97414 16.7777 1.8688C15.8677 1.8088 14.9377 1.8688 14.0577 1.7388C13.6977 1.6188 13.3477 1.4788 12.9877 1.3188C12.6277 1.1588 12.0877 0.878795 11.6377 0.668795C11.6019 0.64162 11.5685 0.611516 11.5377 0.578795C11.5112 0.560739 11.4798 0.551083 11.4477 0.551083C11.4156 0.551083 11.3843 0.560739 11.3577 0.578795C10.8828 0.350984 10.3827 0.179809 9.86772 0.068796C7.81745 -0.198588 5.74192 0.319401 4.05771 1.5188C3.21901 2.0708 2.4674 2.74489 1.82772 3.5188C1.62772 3.7688 1.43772 4.0288 1.24772 4.2888C1.18772 4.3788 1.14772 4.46879 1.08772 4.55879C0.836012 4.93703 0.615289 5.33499 0.427716 5.7488C0.276301 6.10604 0.162362 6.47803 0.0877194 6.8588C0.0827617 6.90199 0.0827617 6.9456 0.0877194 6.9888C-0.0829261 7.94936 -0.00372812 8.93767 0.317715 9.8588C0.538907 10.6475 0.875911 11.399 1.31772 12.0888C2.13244 13.2111 2.80427 14.4305 3.31772 15.7188C3.53772 16.3488 3.72771 16.9988 3.94771 17.6488C4.5021 19.0181 5.34843 20.2501 6.42772 21.2588L6.60772 21.3788L6.91771 21.5388C7.21969 21.7716 7.5574 21.954 7.91771 22.0788L8.00772 22.1288C10.0077 22.7388 12.3977 21.8288 14.0977 20.6988C15.3684 19.8879 16.4468 18.8095 17.2577 17.5388C17.9177 16.6688 18.4177 15.7088 19.0077 14.7888C19.4033 14.1883 19.8813 13.6463 20.4277 13.1788L20.7277 12.9188C21.2541 12.4999 21.8407 12.1627 22.4677 11.9188C23.9777 11.2788 24.0377 9.4488 23.7977 8.0088ZM23.0577 10.0088C22.8877 11.0088 22.1277 11.1488 21.3377 11.5188C18.8477 12.6688 17.9577 15.5788 16.3377 17.5188C15.2896 18.6476 14.042 19.5731 12.6577 20.2488C11.4951 21.0187 10.1213 21.4068 8.72772 21.3588C5.37772 20.9888 4.72771 17.3588 3.80771 14.8088C3.31192 13.6703 2.66985 12.6013 1.89772 11.6288C1.04534 10.4283 0.641844 8.96653 0.757718 7.4988C0.937718 5.1988 2.64771 3.3188 4.44771 2.0488C5.09319 1.67467 5.76113 1.34071 6.44771 1.0488C7.8329 0.548086 9.34486 0.519957 10.7477 0.968796C11.1502 1.11656 11.5412 1.2937 11.9177 1.4988C12.5562 2.01028 13.3325 2.32011 14.1477 2.3888C14.908 2.53882 15.6833 2.59923 16.4577 2.5688C16.4839 2.57604 16.5115 2.57604 16.5377 2.5688C17.5598 2.63391 18.5564 2.91542 19.4614 3.39468C20.3665 3.87394 21.1594 4.54001 21.7877 5.3488C22.487 6.21563 22.9488 7.24949 23.1277 8.3488C23.1946 8.90893 23.171 9.47617 23.0577 10.0288V10.0088Z" fill="#350300"/>
</svg>
