<svg width="33" height="33" viewBox="0 0 33 33" fill="none" xmlns="http://www.w3.org/2000/svg">
<path opacity="0.4" d="M31.3103 16.0901C31.2709 19.0875 30.346 22.0064 28.652 24.4795C26.958 26.9527 24.5705 28.8698 21.7899 29.9896C19.0092 31.1095 15.9594 31.3821 13.0242 30.7732C10.089 30.1643 7.39939 28.7011 5.29359 26.5676C3.18779 24.4341 1.75986 21.7256 1.1894 18.7826C0.61893 15.8397 0.931395 12.7938 2.08749 10.028C3.24359 7.26222 5.19169 4.90001 7.6868 3.23849C10.1819 1.57697 13.1126 0.690323 16.1103 0.690063C18.1195 0.703153 20.1065 1.11187 21.9578 1.89289C23.8091 2.6739 25.4884 3.81191 26.8999 5.24195C28.3113 6.67198 29.4273 8.36602 30.184 10.2273C30.9408 12.0887 31.3235 14.0808 31.3103 16.0901Z" fill="white"/>
<path d="M28.8906 16.5601C28.863 19.0978 28.0851 21.5707 26.6549 23.6672C25.2247 25.7637 23.2061 27.3902 20.8534 28.3418C18.5006 29.2934 15.9189 29.5276 13.4334 29.0149C10.9478 28.5022 8.6695 27.2655 6.88538 25.4605C5.10126 23.6556 3.89109 21.3631 3.40725 18.8717C2.92342 16.3804 3.18756 13.8016 4.16641 11.46C5.14526 9.1185 6.79506 7.11895 8.90805 5.71317C11.021 4.30739 13.5027 3.55824 16.0406 3.56006C19.4682 3.58122 22.747 4.96243 25.1566 7.40013C27.5662 9.83783 28.9092 13.1325 28.8906 16.5601Z" fill="#F4D05B"/>
<path d="M6.74072 16.5301C7.19406 15.5101 7.65406 14.4901 8.12073 13.4701C8.62073 12.3501 9.38072 11.3501 9.80072 10.1901C9.84026 10.0451 9.83593 9.89162 9.78827 9.74909C9.74061 9.60657 9.65178 9.48137 9.53297 9.38932C9.41417 9.29728 9.27075 9.24252 9.12083 9.23198C8.97092 9.22143 8.82124 9.25557 8.69072 9.33008C6.32072 10.7601 6.11072 13.8601 5.99072 16.3301C6.02072 16.7101 6.58072 16.9101 6.74072 16.5301Z" fill="white"/>
<path d="M14.7606 7.39C14.6869 7.40828 14.6214 7.4507 14.5746 7.51051C14.5279 7.57031 14.5024 7.64406 14.5024 7.72C14.5024 7.79593 14.5279 7.86968 14.5746 7.92948C14.6214 7.98929 14.6869 8.03171 14.7606 8.05C16.8206 8.71 19.0206 8.92 20.9806 9.87C23.1906 10.92 24.3206 12.98 25.6306 14.92C25.7165 15.028 25.8341 15.1063 25.9668 15.1439C26.0996 15.1816 26.2408 15.1767 26.3706 15.13C26.3222 15.9482 26.1744 16.7575 25.9306 17.54C25.5795 18.4567 25.0831 19.311 24.4606 20.07C24.4747 18.7109 24.2618 17.359 23.8306 16.07C23.6606 15.6 22.9206 15.79 23.0606 16.28C23.5498 17.8392 23.5498 19.5108 23.0606 21.07C22.5006 22.9 21.0606 23.81 19.4206 24.65C18.8106 24.96 19.1506 25.8 19.7406 25.84C22.6506 26.07 23.9506 24.03 24.3106 21.59C25.4079 20.6251 26.235 19.391 26.7102 18.0092C27.1854 16.6275 27.2924 15.1457 27.0206 13.71C27.0206 13.46 26.6806 13.44 26.5206 13.57C25.2106 8.81 19.4306 6.03 14.7606 7.39Z" fill="white"/>
<path d="M14.0204 10.1701C13.4525 10.5567 12.9782 11.0653 12.6322 11.6587C12.2862 12.2522 12.0771 12.9155 12.0204 13.6001C11.8604 14.9101 11.8004 16.9401 12.9404 17.8701C13.0209 17.9547 13.1251 18.013 13.2393 18.0374C13.3535 18.0618 13.4725 18.0511 13.5805 18.0068C13.6886 17.9625 13.7807 17.8866 13.845 17.7891C13.9092 17.6915 13.9424 17.5769 13.9404 17.4601C13.9404 16.4001 13.5004 15.3801 13.4504 14.3101C13.2946 12.9983 13.6333 11.6755 14.4004 10.6001C14.5404 10.3901 14.2804 10.0001 14.0204 10.1701Z" fill="white"/>
<path d="M14.1907 15.6701C14.2722 16.1479 14.4098 16.6145 14.6007 17.0601C14.8061 17.4728 15.0838 17.8453 15.4207 18.1601H15.4907C15.5467 18.4147 15.652 18.6559 15.8007 18.8701C15.8332 18.9261 15.8799 18.9726 15.936 19.005C15.9922 19.0373 16.0559 19.0543 16.1207 19.0543C16.1855 19.0543 16.2491 19.0373 16.3053 19.005C16.3614 18.9726 16.4081 18.9261 16.4407 18.8701C16.6148 18.6077 16.7167 18.3041 16.736 17.9898C16.7553 17.6756 16.6914 17.3618 16.5507 17.0801C16.4937 16.9784 16.4088 16.8952 16.306 16.8402C16.2032 16.7853 16.0868 16.7609 15.9707 16.7701L15.8607 16.5201C15.6838 16.1192 15.5659 15.6948 15.5107 15.2601C15.3607 14.3901 14.0207 14.8001 14.1907 15.6701Z" fill="white"/>
<path d="M16.2904 26.5401C16.4115 26.5033 16.5194 26.4325 16.6014 26.3361C16.6834 26.2398 16.7359 26.1219 16.7528 25.9965C16.7697 25.8711 16.7501 25.7435 16.6965 25.6289C16.6429 25.5143 16.5575 25.4175 16.4504 25.35C14.7004 24.45 12.7504 24.0201 11.2304 22.71C10.456 21.9604 9.89774 21.0159 9.61444 19.976C9.33113 18.936 9.33321 17.8389 9.62043 16.8C9.79044 16.04 8.69042 15.4801 8.31042 16.2501C7.6384 17.3716 7.31911 18.6693 7.39401 19.9747C7.46891 21.28 7.93454 22.5327 8.73044 23.5701C9.59771 24.71 10.7614 25.5898 12.0946 26.1136C13.4278 26.6373 14.8792 26.7848 16.2904 26.5401Z" fill="white"/>
<path d="M14.4305 23.5401C15.6605 24.3501 18.1405 24.8601 19.1405 23.5401C19.7288 23.2429 20.2503 22.8289 20.6733 22.3234C21.0962 21.8179 21.4117 21.2315 21.6005 20.6001C21.7805 20.0401 21.0505 19.6901 20.6005 20.0601C19.8505 20.7501 18.8505 22.1901 17.6805 22.0001C17.5787 21.9718 17.472 21.9662 17.3678 21.9838C17.2637 22.0014 17.1646 22.0417 17.0778 22.1018C16.991 22.1619 16.9184 22.2404 16.8653 22.3317C16.8122 22.423 16.7798 22.5249 16.7705 22.6301C16.2176 22.6095 15.6811 22.4365 15.2205 22.1301C14.3405 21.5301 13.5305 22.9501 14.4305 23.5401Z" fill="white"/>
<path d="M15.1907 2.16C15.4207 2.1 15.3907 1.7 15.1307 1.73C9.76066 2.32 1.13066 7.22 2.71066 13.84C2.72249 13.873 2.74421 13.9014 2.77285 13.9216C2.80148 13.9417 2.83564 13.9526 2.87066 13.9526C2.90567 13.9526 2.93983 13.9417 2.96847 13.9216C2.99711 13.9014 3.01883 13.873 3.03066 13.84C3.96066 10.91 4.64066 8.58 6.96066 6.39C9.31857 4.3308 12.1438 2.87872 15.1907 2.16Z" fill="white"/>
<path d="M29.9606 12.85C29.8606 12.65 29.5406 12.79 29.6006 13C30.1869 14.666 30.3513 16.4513 30.079 18.1963C29.8068 19.9413 29.1065 21.5917 28.0406 23C27.8806 23.24 28.2206 23.46 28.4106 23.29C31.4506 20.65 31.7106 16.24 29.9606 12.85Z" fill="white"/>
<path d="M17.0206 9.49006C11.8006 9.00006 10.3906 16.9501 13.8006 19.8901C14.5806 20.5601 16.3106 20.2201 16.1406 18.8901C15.8306 16.5201 14.0706 12.1901 17.2306 10.9901C17.3925 10.9252 17.528 10.808 17.6154 10.6572C17.7029 10.5063 17.7373 10.3305 17.7131 10.1578C17.6889 9.98511 17.6076 9.8255 17.482 9.70446C17.3565 9.58342 17.1941 9.50793 17.0206 9.49006Z" fill="white"/>
<path d="M15.4305 17.46C16.1538 16.9177 16.7339 16.2072 17.1205 15.39V15.45C18.1205 16.45 19.8805 17.19 21.2105 16.45C21.3265 16.3847 21.4282 16.2969 21.5097 16.1918C21.5913 16.0867 21.6511 15.9663 21.6855 15.8378C21.72 15.7093 21.7284 15.5752 21.7104 15.4433C21.6924 15.3115 21.6482 15.1846 21.5805 15.07C21.1541 14.3672 20.5683 13.7746 19.8705 13.34C19.2999 12.8107 18.9202 12.1075 18.7905 11.34C18.7276 11.0996 18.6018 10.8802 18.4261 10.7045C18.2503 10.5287 18.031 10.4029 17.7905 10.34C17.7073 10.3056 17.6138 10.3056 17.5305 10.34C17.1887 10.3096 16.8463 10.3905 16.5543 10.5708C16.2623 10.751 16.0365 11.0209 15.9105 11.34C15.821 11.7435 15.7907 12.1578 15.8205 12.57C15.6837 12.3644 15.4857 12.2069 15.2546 12.1197C15.0234 12.0326 14.7708 12.0202 14.5322 12.0842C14.2936 12.1483 14.0812 12.2856 13.9248 12.4768C13.7684 12.668 13.676 12.9035 13.6605 13.15C13.5305 13.9112 13.5305 14.6889 13.6605 15.45C13.6807 15.5305 13.7183 15.6056 13.7705 15.67C13.5624 15.6456 13.3704 15.546 13.2305 15.39C12.6482 14.7869 12.2643 14.0201 12.1302 13.1925C11.9962 12.3649 12.1184 11.5162 12.4805 10.76C12.9705 9.94003 11.7705 8.95003 11.1305 9.76003C10.301 10.8699 9.91242 12.2479 10.0399 13.6276C10.1673 15.0074 10.8017 16.2909 11.8205 17.23C12.3063 17.6734 12.9287 17.9379 13.5851 17.9797C14.2414 18.0215 14.8924 17.8382 15.4305 17.46Z" fill="#F9F568"/>
<path d="M21.4505 17.49C21.389 17.3866 21.3051 17.2984 21.2048 17.232C21.1046 17.1655 20.9906 17.1225 20.8715 17.1062C20.7523 17.0898 20.631 17.1006 20.5165 17.1376C20.4021 17.1746 20.2975 17.237 20.2105 17.32C19.3405 18.32 18.9605 19.69 18.2105 20.8C16.582 21.3479 14.8675 21.5952 13.1505 21.53C12.841 21.5355 12.5416 21.6414 12.2974 21.8316C12.0532 22.0218 11.8773 22.2861 11.7961 22.5848C11.715 22.8836 11.7329 23.2006 11.8473 23.4882C11.9617 23.7758 12.1663 24.0186 12.4305 24.18C13.4676 24.9045 14.7135 25.2694 15.9776 25.2188C17.2418 25.1682 18.4545 24.705 19.4305 23.9C20.5408 22.9481 21.3504 21.6938 21.7605 20.29C21.8405 20.17 21.9405 20.07 22.0205 19.95C22.107 19.8169 22.1435 19.6573 22.1233 19.4998C22.1032 19.3423 22.0278 19.1971 21.9105 19.09C21.8991 18.5257 21.7406 17.9742 21.4505 17.49Z" fill="#F9F568"/>
<path d="M19.5607 8.09007C18.3307 7.38007 16.4707 7.95007 15.3007 8.46007C14.4707 8.83007 15.0707 10.1101 15.9007 9.89007C16.4942 9.73535 17.1083 9.67461 17.7207 9.71007C18.2207 9.71007 18.5907 9.98007 19.0407 10.0101C19.6546 10.3342 20.1565 10.8361 20.4807 11.4501C20.5644 11.5877 20.6949 11.6905 20.8483 11.7398C21.0016 11.789 21.1676 11.7813 21.3158 11.7182C21.464 11.655 21.5844 11.5406 21.6551 11.3959C21.7258 11.2511 21.742 11.0858 21.7007 10.9301C21.3595 9.75316 20.5979 8.74252 19.5607 8.09007Z" fill="#F9F568"/>
<path d="M16.1105 31.97C19.2501 31.972 22.3198 31.0426 24.9311 29.2996C27.5425 27.5565 29.5781 25.0781 30.7805 22.1778C31.9829 19.2775 32.2981 16.0858 31.686 13.0064C31.074 9.92695 29.5623 7.09826 27.3423 4.8782C25.1222 2.65814 22.2935 1.14647 19.2141 0.534438C16.1347 -0.0775909 12.9429 0.237531 10.0427 1.43993C7.1424 2.64234 4.66396 4.67798 2.9209 7.28932C1.17784 9.90066 0.248514 12.9703 0.250491 16.11C0.258421 20.3139 1.93193 24.3433 4.90454 27.3159C7.87715 30.2886 11.9066 31.9621 16.1105 31.97ZM16.1105 1.25998C19.048 1.25801 21.92 2.12726 24.3634 3.7578C26.8068 5.38833 28.7117 7.7069 29.8372 10.4202C30.9627 13.1335 31.2582 16.1197 30.6864 19.0009C30.1145 21.8822 28.701 24.5292 26.6246 26.607C24.5481 28.6848 21.9022 30.1001 19.0213 30.6739C16.1404 31.2477 13.154 30.9542 10.44 29.8306C7.72589 28.7069 5.40604 26.8035 3.77386 24.3612C2.14168 21.919 1.27049 19.0475 1.27049 16.11C1.27313 12.1741 2.83716 8.39996 5.61934 5.6159C8.40152 2.83185 12.1746 1.26528 16.1105 1.25998Z" fill="#350300"/>
<path d="M16.1108 32.22C18.7002 32.1961 21.2473 31.5593 23.5433 30.3617C25.8394 29.1641 27.8192 27.4399 29.3208 25.33C31.3843 22.3734 32.3963 18.8099 32.1949 15.21C31.9934 11.6101 30.5902 8.18186 28.2098 5.47385C25.8293 2.76584 22.6092 0.934647 19.0649 0.273328C15.5205 -0.387992 11.8567 0.158793 8.65991 1.82618C5.46309 3.49356 2.91801 6.18515 1.43197 9.4702C-0.0540688 12.7553 -0.395156 16.4439 0.463297 19.9457C1.32175 23.4475 3.33011 26.5602 6.16698 28.7855C9.00385 31.0108 12.5052 32.2202 16.1108 32.22C16.1771 32.22 16.2406 32.1937 16.2875 32.1468C16.3344 32.0999 16.3608 32.0363 16.3608 31.97C16.3608 31.9037 16.3344 31.8401 16.2875 31.7932C16.2406 31.7464 16.1771 31.72 16.1108 31.72C13.1677 31.69 10.291 30.8417 7.80255 29.2698C5.31415 27.698 3.31222 25.4648 2.02075 22.82C1.06609 20.8077 0.553111 18.6144 0.516275 16.3874C0.47944 14.1604 0.919602 11.9513 1.80719 9.90854C2.69478 7.86575 4.00925 6.03656 5.66229 4.54382C7.31534 3.05109 9.26869 1.92939 11.3911 1.25407C13.5136 0.578747 15.756 0.365442 17.9677 0.628482C20.1794 0.891521 22.3092 1.62481 24.214 2.7791C26.1189 3.93339 27.7546 5.48195 29.0114 7.32076C30.2683 9.15956 31.117 11.246 31.5007 13.44C33.2607 22.91 25.5508 31.62 16.1108 31.72C16.0779 31.72 16.0454 31.7265 16.0151 31.7391C15.9847 31.7516 15.9572 31.77 15.934 31.7932C15.9108 31.8165 15.8923 31.844 15.8798 31.8744C15.8672 31.9047 15.8608 31.9372 15.8608 31.97C15.8608 32.0029 15.8672 32.0354 15.8798 32.0657C15.8923 32.096 15.9108 32.1236 15.934 32.1468C15.9572 32.17 15.9847 32.1884 16.0151 32.201C16.0454 32.2136 16.0779 32.22 16.1108 32.22Z" fill="#350300"/>
<path d="M16.1106 1.51003C19.1087 1.50804 22.0346 2.42971 24.4903 4.14966C26.9459 5.86961 28.8121 8.30431 29.835 11.1225C30.8578 13.9408 30.9876 17.0057 30.2066 19.9003C29.4257 22.7949 27.772 25.3786 25.4706 27.3C23.6715 28.8019 21.5372 29.8484 19.2481 30.3508C16.9591 30.8532 14.5827 30.7968 12.32 30.1864C10.0574 29.576 7.97505 28.4295 6.24928 26.844C4.52352 25.2584 3.2051 23.2805 2.40558 21.0775C1.60606 18.8746 1.34898 16.5114 1.65608 14.1881C1.96319 11.8648 2.82545 9.64959 4.16989 7.73004C5.51434 5.81049 7.3014 4.24305 9.37986 3.16036C11.4583 2.07767 13.767 1.51159 16.1106 1.51003C16.4306 1.51003 16.4306 1.00003 16.1106 1.01003C13.4845 1.00641 10.9028 1.68773 8.62051 2.98674C6.33819 4.28574 4.43412 6.15751 3.09624 8.41725C1.75836 10.677 1.03295 13.2466 0.991617 15.8724C0.950287 18.4981 1.59447 21.0893 2.86056 23.39C4.82628 26.8155 8.0558 29.3344 11.8568 30.4069C15.6577 31.4794 19.7276 31.02 23.1939 29.1273C26.6602 27.2346 29.247 24.0592 30.3998 20.2817C31.5525 16.5043 31.1795 12.4256 29.3606 8.92003C28.0494 6.55094 26.1307 4.57396 23.8019 3.19249C21.4731 1.81103 18.8182 1.07496 16.1106 1.06003C15.7906 1.00003 15.7906 1.50003 16.1106 1.51003Z" fill="#350300"/>
<path d="M16.1804 29.73C18.8092 29.73 21.379 28.951 23.5653 27.4913C25.7516 26.0316 27.4563 23.9568 28.4641 21.5289C29.4719 19.101 29.7376 16.4288 29.2277 13.85C28.7177 11.2711 27.455 8.90124 25.599 7.03962C23.7429 5.178 21.3768 3.90815 18.7995 3.39046C16.2222 2.87277 13.5493 3.13045 11.1183 4.13097C8.6874 5.13148 6.60748 6.82995 5.14126 9.01186C3.67504 11.1938 2.88829 13.7612 2.88039 16.39C2.87776 18.1392 3.21968 19.8718 3.88665 21.4889C4.55362 23.1059 5.53256 24.5758 6.76758 25.8145C8.0026 27.0533 9.46951 28.0366 11.0846 28.7084C12.6996 29.3803 14.4312 29.7274 16.1804 29.73ZM16.1804 3.64001C18.7117 3.64002 21.1861 4.39116 23.2903 5.79832C25.3944 7.20548 27.0337 9.20537 28.0006 11.5448C28.9674 13.8842 29.2184 16.4579 28.7216 18.94C28.2249 21.4221 27.0028 23.7009 25.21 25.4881C23.4173 27.2752 21.1346 28.4901 18.651 28.9791C16.1673 29.4681 13.5944 29.2091 11.2581 28.2349C8.92173 27.2607 6.92698 25.6152 5.52642 23.5066C4.12586 21.3981 3.38247 18.9213 3.39039 16.39C3.40623 13.0065 4.7601 9.76659 7.1564 7.37778C9.55271 4.98897 12.7968 3.64526 16.1804 3.64001Z" fill="#350300"/>
<path d="M7.18049 22.39C5.12049 18.59 4.72049 11.64 8.96049 9.09998C9.02049 9.09998 8.96049 8.95999 8.90049 8.99999C4.64049 11.32 4.45049 18.86 7.02049 22.49C7.02706 22.5005 7.03563 22.5096 7.04571 22.5168C7.0558 22.524 7.0672 22.5291 7.07927 22.5319C7.09135 22.5347 7.10385 22.5351 7.11607 22.533C7.12829 22.531 7.13998 22.5266 7.15049 22.52C7.16099 22.5134 7.1701 22.5048 7.1773 22.4948C7.18449 22.4847 7.18962 22.4733 7.19241 22.4612C7.1952 22.4491 7.19558 22.4366 7.19353 22.4244C7.19149 22.4122 7.18706 22.4005 7.18049 22.39Z" fill="#350300"/>
<path d="M8.16049 18.3C8.16049 18.22 8.02049 18.2 8.01049 18.3C7.80996 19.3335 7.87246 20.4008 8.19223 21.4038C8.512 22.4068 9.0788 23.3133 9.8405 24.04C9.9405 24.14 10.0805 23.99 10.0005 23.88C9.31978 23.1309 8.8042 22.2469 8.48721 21.2856C8.17022 20.3243 8.0589 19.3071 8.16049 18.3Z" fill="#350300"/>
<path d="M16.4004 7.44007C20.6304 7.44007 23.6304 10.4401 24.9104 14.2301C24.917 14.2539 24.9329 14.2742 24.9544 14.2864C24.976 14.2986 25.0015 14.3017 25.0254 14.2951C25.0493 14.2884 25.0695 14.2726 25.0817 14.251C25.0939 14.2295 25.097 14.2039 25.0904 14.1801C24.6961 12.1986 23.6001 10.4259 22.0037 9.18774C20.4073 7.94954 18.4177 7.32898 16.4004 7.44007Z" fill="#350300"/>
<path d="M22.4304 12.1301C23.0862 12.9663 23.5349 13.9458 23.74 14.9886C23.9451 16.0313 23.9007 17.1078 23.6104 18.1301C23.6104 18.2601 23.7804 18.3601 23.8404 18.2301C24.1981 17.1785 24.2623 16.0493 24.0262 14.9639C23.7901 13.8785 23.2626 12.8781 22.5004 12.0701C22.4604 12.0201 22.3904 12.0901 22.4304 12.1301Z" fill="#350300"/>
<path d="M11.5806 16.83C9.86061 13.96 11.5306 10.05 14.1606 8.32998C14.2106 8.32998 14.1606 8.23998 14.1606 8.25998C11.3406 9.65998 9.1606 14.26 11.4206 16.98C11.4706 17.09 11.6406 16.95 11.5806 16.83Z" fill="#350300"/>
<path d="M13.9204 13.6C13.3004 14.96 13.1404 16.6 14.3304 17.69C14.4604 17.81 14.6204 17.64 14.5204 17.5C14.1037 16.9627 13.8432 16.321 13.7673 15.6454C13.6915 14.9697 13.8033 14.2862 14.0904 13.67C14.1304 13.58 14.0204 13.51 13.9204 13.6Z" fill="#350300"/>
<path d="M13.9007 23.96C13.8725 23.9599 13.845 23.9689 13.8223 23.9858C13.7997 24.0027 13.7831 24.0265 13.7752 24.0536C13.7673 24.0808 13.7684 24.1097 13.7785 24.1361C13.7885 24.1625 13.8068 24.185 13.8307 24.2C15.2555 24.7521 16.8373 24.7398 18.2533 24.1656C19.6693 23.5914 20.8129 22.4985 21.4507 21.11C22.7807 18.11 21.3607 14.63 18.9807 12.62C18.9207 12.57 18.8307 12.62 18.9007 12.71C20.0462 13.6109 20.8936 14.836 21.3324 16.2256C21.7712 17.6152 21.7811 19.1047 21.3607 20.5C20.2507 23.88 17.0207 24.44 13.9007 23.96Z" fill="#350300"/>
<path d="M18.8004 26.07C16.6204 26.27 14.6104 26.45 12.6404 25.27C12.5404 25.21 12.4504 25.36 12.5504 25.43C13.4689 26.0275 14.507 26.4167 15.5919 26.5705C16.6767 26.7242 17.7821 26.6387 18.8304 26.32C18.9604 26.28 18.9404 26.06 18.8004 26.07Z" fill="#350300"/>
<path d="M23.4004 24.98C21.6204 26.16 19.7904 27.27 17.5604 26.93C17.4104 26.93 17.3404 27.13 17.5004 27.16C18.5847 27.2635 19.6786 27.139 20.7119 26.7945C21.7452 26.4501 22.695 25.8933 23.5004 25.16C23.6204 25.07 23.5004 24.91 23.4004 24.98Z" fill="#350300"/>
<path d="M20.0205 6.60997C20.1805 6.66997 20.2805 6.40998 20.1305 6.32998C17.9605 5.04998 15.1305 5.42997 12.8505 6.11997C12.8398 6.12464 12.8307 6.13233 12.8243 6.1421C12.8179 6.15187 12.8145 6.1633 12.8145 6.17498C12.8145 6.18665 12.8179 6.19808 12.8243 6.20785C12.8307 6.21762 12.8398 6.22531 12.8505 6.22998C15.2275 5.66718 17.7162 5.79907 20.0205 6.60997Z" fill="#350300"/>
<path d="M26.3207 11.17C26.3907 11.28 26.5507 11.17 26.5007 11.06C25.8763 9.53468 24.837 8.21478 23.5007 7.25004C23.4407 7.20004 23.3607 7.31004 23.4207 7.36004C24.6363 8.41967 25.6231 9.71608 26.3207 11.17Z" fill="#350300"/>
<path d="M8.61069 15.23C9.19069 12.93 9.15069 10.81 10.6107 8.80005C10.7407 8.63005 10.4507 8.47005 10.3307 8.64005C8.98007 10.5543 8.29502 12.8589 8.3807 15.2C8.37672 15.2305 8.38501 15.2614 8.40377 15.2858C8.42252 15.3101 8.4502 15.3261 8.4807 15.33C8.5112 15.334 8.54203 15.3257 8.56641 15.307C8.59079 15.2882 8.60671 15.2605 8.61069 15.23Z" fill="#350300"/>
<path d="M8.20056 11.3001C7.27712 13.3258 7.04183 15.5981 7.53057 17.7701C7.53057 17.9201 7.79056 17.8801 7.79056 17.7701C7.69056 15.6301 7.55056 13.5001 8.53056 11.5201C8.64056 11.2701 8.31056 11.0801 8.20056 11.3001Z" fill="#350300"/>
<path d="M15.6106 22.44C15.8406 22.35 15.7506 21.98 15.5006 22.06C14.8351 22.2333 14.1377 22.2437 13.4674 22.0903C12.7971 21.937 12.1736 21.6243 11.6497 21.1789C11.1258 20.7335 10.717 20.1685 10.4578 19.5316C10.1985 18.8947 10.0966 18.2047 10.1606 17.52C10.1606 17.21 9.72056 17.07 9.67056 17.39C9.19056 20.58 12.4706 23.67 15.6106 22.44Z" fill="#350300"/>
<path d="M17.5107 13.7401C18.1595 14.7512 18.5824 15.8905 18.7507 17.0801C18.7573 17.1305 18.7837 17.1762 18.824 17.2071C18.8643 17.238 18.9153 17.2517 18.9657 17.2451C19.0161 17.2384 19.0618 17.2121 19.0927 17.1718C19.1236 17.1314 19.1373 17.0805 19.1307 17.0301C19.0542 15.768 18.6101 14.5558 17.8531 13.543C17.0962 12.5302 16.0594 11.7609 14.8707 11.3301C14.7907 11.3301 14.7407 11.4201 14.8107 11.4601C15.8588 12.025 16.7782 12.8014 17.5107 13.7401Z" fill="#350300"/>
<path d="M17.9107 18.98C17.6607 18.15 17.2407 17.39 16.9707 16.57C16.9007 16.39 16.6207 16.47 16.6807 16.65C16.9807 17.46 17.3907 18.23 17.6807 19.03C17.7607 19.16 17.9507 19.11 17.9107 18.98Z" fill="#350300"/>
<path d="M16.5104 9.64999C19.7604 11 21.2704 13.65 22.6204 16.65C22.6904 16.8 22.9104 16.65 22.8804 16.54C22.1504 13.36 19.8104 10.28 16.5704 9.43999C16.5425 9.43204 16.5126 9.43547 16.4873 9.44953C16.462 9.4636 16.4433 9.48715 16.4354 9.51499C16.4274 9.54284 16.4308 9.57271 16.4449 9.59803C16.459 9.62334 16.4825 9.64204 16.5104 9.64999Z" fill="#350300"/>
<path d="M23.2206 23.2C26.4706 20.93 28.3106 15.63 25.7306 12.29C25.5806 12.1 25.2606 12.29 25.4006 12.48C28.0706 16.02 25.5806 20.22 23.0906 23.01C23.0206 23.11 23.1106 23.27 23.2206 23.2Z" fill="#350300"/>
<path d="M21.8007 25.4401C24.5607 23.4401 27.6007 21.2101 27.3907 17.4401C27.3907 17.2601 27.1107 17.2601 27.1207 17.4401C27.2307 21.0301 24.1707 23.1901 21.6907 25.2601C21.6007 25.3901 21.7207 25.5001 21.8007 25.4401Z" fill="#350300"/>
<path d="M10.8204 8.56997C10.6204 8.66997 10.8204 8.95997 10.9904 8.85997C11.7604 8.48997 12.5404 8.16997 13.3304 7.85997C13.3649 7.85068 13.3943 7.82809 13.4121 7.79714C13.4299 7.7662 13.4347 7.72945 13.4254 7.69497C13.4161 7.66049 13.3936 7.63111 13.3626 7.61329C13.3317 7.59548 13.2949 7.59068 13.2604 7.59997C12.4175 7.84313 11.6003 8.168 10.8204 8.56997Z" fill="#350300"/>
</svg>
