<svg width="34" height="38" viewBox="0 0 34 38" fill="none" xmlns="http://www.w3.org/2000/svg">
<path d="M24.084 33.6725C24.6407 32.2553 25.3695 30.9119 26.254 29.6725C27.534 28.0325 29.174 26.8825 29.254 26.5725C29.4185 25.8341 29.5355 25.0859 29.604 24.3325C29.4793 23.3607 29.1991 22.4152 28.774 21.5325L25.184 18.5325L20.814 21.2825C20.814 21.2825 18.504 21.6525 18.394 21.6125C17.9627 21.6119 17.5319 21.6386 17.104 21.6925C17.104 21.6925 17.284 23.3325 17.844 23.6925C17.9727 23.792 18.1238 23.8586 18.2841 23.8865C18.4445 23.9143 18.6092 23.9027 18.764 23.8525L20.364 21.6325L21.894 20.8325C23.0562 21.3022 24.1884 21.8432 25.284 22.4525C25.7109 23.702 25.8443 25.0331 25.674 26.3425C25.364 26.9525 24.984 27.5725 24.614 27.6825C24.244 27.7925 22.754 27.6825 22.614 27.7925L22.024 28.1425C22.024 28.1425 20.494 27.6825 20.744 27.9825C21.3089 28.602 21.632 29.4043 21.654 30.2425C21.739 31.1821 21.6611 32.1293 21.424 33.0425C21.0724 33.311 20.6896 33.536 20.284 33.7125C19.2665 33.8993 18.2374 34.0162 17.204 34.0625C15.8958 33.4099 14.6359 32.6646 13.434 31.8325C13.5284 31.333 13.6898 30.8486 13.914 30.3925L14.654 29.0425C15.2157 28.4787 15.8065 27.9446 16.424 27.4425H13.174C13.174 27.4425 10.944 25.7325 10.984 23.9225L8.06396 24.6225C8.64997 25.8709 9.1609 27.1531 9.59398 28.4625C10.104 30.1425 9.00397 32.7025 12.644 35.3825C12.644 35.3825 18.254 39.0825 22.114 36.1125L24.084 33.6725Z" fill="#FFFF00"/>
<path d="M14.1138 18.8525C14.1738 18.9325 16.7138 21.8525 16.7138 21.8525L11.1438 23.8525C11.1438 23.8525 4.14379 24.8525 2.80379 23.4825C1.83793 22.427 1.02347 21.2423 0.383789 19.9625C0.383789 19.9625 1.38379 12.3325 1.38379 10.9625C1.48751 9.70328 1.72895 8.45919 2.10379 7.25254C2.10379 7.25254 5.30379 4.44254 5.35379 4.35254C5.40379 4.26254 11.7338 3.10254 11.1638 4.07254C10.5938 5.04254 9.61378 7.19255 9.61378 7.19255H6.8438L4.12379 9.86254C4.58622 10.9954 5.11375 12.1006 5.70378 13.1725C6.18845 13.6134 6.71801 14.0022 7.28378 14.3325L5.22379 14.9725C4.77328 15.1724 4.37636 15.4759 4.06531 15.8582C3.75426 16.2405 3.53788 16.6908 3.43379 17.1725C3.25379 18.6625 4.98379 21.0625 5.72379 21.1725C6.46379 21.2825 9.53378 20.7425 9.53378 20.7425C9.95689 20.1807 10.3443 19.5929 10.6938 18.9825C10.696 18.1184 10.7662 17.2557 10.9038 16.4025C11.5763 16.6418 12.1852 17.0318 12.6838 17.5425C13.0876 18.0527 13.5703 18.4949 14.1138 18.8525Z" fill="#FFFF00"/>
<path d="M28.7437 13.5225C29.7937 12.5225 33.3537 11.2225 33.0837 8.9825C32.8137 6.7425 30.5437 3.1925 28.0837 2.5125C25.6237 1.8325 23.4537 2.3825 22.1737 1.5125C20.8937 0.642503 17.9037 -0.0174971 16.5037 0.652503C15.1037 1.3225 11.9137 2.4825 10.6437 5.0225C10.1698 5.59813 9.85499 6.28781 9.73043 7.0229C9.60586 7.758 9.67594 8.5129 9.9337 9.2125C10.8237 11.6025 12.5237 14.7925 13.3037 16.8425C14.0837 18.8925 14.9437 21.5825 18.3637 21.6825C21.7837 21.7825 23.5437 19.5125 24.9037 18.7625C26.2637 18.0125 27.7037 14.5725 28.7437 13.5225ZM19.3937 18.1425C17.1037 18.0525 15.7337 15.2025 15.8137 15.1425C16.1093 14.535 16.3599 13.9066 16.5637 13.2625C16.6337 12.9125 17.7837 11.8225 17.7837 11.8225C17.2992 11.8501 16.8132 11.8267 16.3337 11.7525C15.087 11.1949 13.9174 10.479 12.8537 9.6225C12.6537 9.3225 13.4937 6.1325 13.4937 6.1325C13.4937 6.1325 17.7837 3.3325 17.8737 3.3825C20.1737 4.7725 20.0437 8.0325 20.0437 8.0325C20.0437 8.0325 21.5837 5.7025 21.9537 5.0325C22.3237 4.3625 26.3137 5.0925 27.9537 6.6325C29.5937 8.1725 27.2737 11.2625 26.8037 11.5025C26.3337 11.7425 23.1437 11.2725 23.1437 11.2725C23.1437 11.2725 22.0637 11.4825 21.9137 11.5525C22.2184 12.3409 22.5863 13.1034 23.0137 13.8325C23.0137 13.9825 23.1437 15.6225 23.1437 15.6225C22.755 16.1441 22.3126 16.6234 21.8237 17.0525C21.3837 17.3025 21.6737 18.2225 19.3937 18.1425Z" fill="#FFFF00"/>
<path d="M6.76416 5.44249C6.79615 5.43401 6.82444 5.41519 6.84462 5.38897C6.8648 5.36274 6.87575 5.33058 6.87575 5.29748C6.87575 5.26439 6.8648 5.23223 6.84462 5.206C6.82444 5.17977 6.79615 5.16096 6.76416 5.15249L6.97415 5.08249C7.70367 4.87597 8.45621 4.76175 9.21416 4.74248C8.75627 5.21362 8.50136 5.84551 8.50415 6.50248C8.53099 6.61331 8.5989 6.7098 8.69415 6.77248C8.74073 6.83458 8.80112 6.88498 8.87054 6.9197C8.93997 6.95441 9.01654 6.97249 9.09416 6.97249C9.17178 6.97249 9.24834 6.95441 9.31776 6.9197C9.38719 6.88498 9.44758 6.83458 9.49416 6.77248C9.74294 6.40292 9.96357 6.01516 10.1542 5.61249L10.3642 5.24248C10.4169 5.15867 10.4447 5.06153 10.4442 4.96248C10.453 4.89946 10.453 4.8355 10.4442 4.77248C10.4942 4.77248 10.5442 4.66249 10.5942 4.62249C10.6024 4.61701 10.6092 4.60958 10.6139 4.60086C10.6185 4.59213 10.621 4.58239 10.621 4.57248C10.621 4.56258 10.6185 4.55283 10.6139 4.54411C10.6092 4.53539 10.6024 4.52795 10.5942 4.52248C10.5937 4.49482 10.5869 4.46764 10.5742 4.44304C10.5616 4.41844 10.5434 4.39709 10.5212 4.38064C10.4989 4.3642 10.4732 4.3531 10.446 4.34822C10.4187 4.34334 10.3907 4.34479 10.3642 4.35248H10.3042C8.09415 3.28248 4.68416 4.88248 3.38416 6.70248C3.29416 6.82248 3.45415 6.99248 3.56415 6.88248C3.9329 6.56781 4.33146 6.28983 4.75415 6.05249C4.10079 6.46489 3.54146 7.01009 3.11249 7.65269C2.68351 8.29529 2.39449 9.02093 2.26416 9.78248C2.26416 9.99248 2.51416 10.0425 2.60416 9.87249C3.69416 7.79249 4.56416 6.37249 6.76416 5.44249Z" fill="#D85700"/>
<path d="M3.44373 10.1425C3.52919 9.51247 3.74604 8.90739 4.08023 8.36648C4.41443 7.82557 4.85852 7.36089 5.38373 7.00253C5.4076 6.98927 5.42523 6.96707 5.43273 6.94081C5.44023 6.91456 5.43698 6.8864 5.42372 6.86253C5.41046 6.83866 5.38827 6.82103 5.36202 6.81353C5.33576 6.80603 5.30759 6.80927 5.28372 6.82253C2.86372 8.03253 2.28372 10.7425 3.14372 13.2125C3.15556 13.2455 3.17728 13.274 3.20592 13.2941C3.23456 13.3143 3.26871 13.3251 3.30373 13.3251C3.33874 13.3251 3.3729 13.3143 3.40154 13.2941C3.43018 13.274 3.4519 13.2455 3.46373 13.2125C3.50373 12.1425 3.34373 11.1425 3.44373 10.1425Z" fill="#D85700"/>
<path d="M4.52372 14.0626C3.89456 14.3957 3.31829 14.8203 2.81372 15.3226C2.51512 15.7068 2.3145 16.158 2.22914 16.6371C2.14377 17.1161 2.17623 17.6088 2.32373 18.0726C2.39373 18.3126 2.75372 18.2426 2.78372 18.0126C2.74927 17.5354 2.81217 17.0562 2.96861 16.6041C3.12504 16.152 3.37174 15.7364 3.69372 15.3826C4.09372 15.0226 4.52372 14.6826 4.94372 14.3826C5.01216 14.4034 5.08528 14.4034 5.15373 14.3826C5.19467 14.3782 5.23289 14.36 5.262 14.3308C5.29112 14.3017 5.30937 14.2635 5.31372 14.2226C5.31372 14.2226 5.31372 14.1326 5.31372 14.0826L5.61372 13.8426C5.80372 13.6826 5.61372 13.3826 5.38372 13.5326L5.12373 13.7126C5.05775 13.6427 4.97986 13.5851 4.89372 13.5426C4.89372 13.5426 4.89372 13.4626 4.89372 13.4226C4.95372 13.1826 4.74372 13.0826 4.55372 13.1126C4.52918 13.0372 4.50915 12.9604 4.49372 12.8826C4.48463 12.8375 4.4642 12.7956 4.43437 12.7607C4.40453 12.7257 4.36627 12.699 4.32322 12.683C4.28017 12.6669 4.23374 12.6622 4.18833 12.6691C4.14292 12.676 4.10003 12.6944 4.06372 12.7226C3.92372 12.6426 3.69372 12.7226 3.78372 12.9626C3.87372 13.2026 3.95372 13.3226 4.03372 13.5026C4.04966 13.5463 4.08193 13.5821 4.12373 13.6026C4.14217 13.6717 4.18472 13.732 4.24372 13.7726C4.24816 13.8463 4.27881 13.9161 4.33015 13.9693C4.38149 14.0225 4.45014 14.0555 4.52372 14.0626Z" fill="#D85700"/>
<path d="M2.3237 18.7626C2.3237 18.2826 2.22369 17.7626 2.20369 17.3326C2.18016 16.7552 2.279 16.1792 2.4937 15.6426C2.49951 15.6125 2.49446 15.5813 2.47945 15.5545C2.46444 15.5277 2.44044 15.5071 2.4117 15.4963C2.38295 15.4855 2.35132 15.4853 2.32241 15.4956C2.29349 15.5059 2.26914 15.5261 2.25369 15.5526C1.83176 16.5954 1.76499 17.7481 2.06369 18.8326C2.11369 18.9826 2.3237 18.9026 2.3237 18.7626Z" fill="#D85700"/>
<path d="M2.76404 18.8325C2.76404 18.8325 2.85403 18.8325 2.82403 18.8325C2.79403 18.8325 2.73404 18.7925 2.76404 18.8325Z" fill="#D85700"/>
<path d="M14.6938 21.8126C14.7652 21.7869 14.83 21.7459 14.8838 21.6926C15.0323 21.7225 15.1853 21.7225 15.3338 21.6926C15.4444 21.6776 15.5449 21.6201 15.614 21.5324C15.683 21.4447 15.7152 21.3336 15.7038 21.2226C15.6338 20.3526 14.6038 19.6826 14.0438 19.0726C13.1956 18.298 12.4161 17.4515 11.7138 16.5426C11.4038 16.0526 10.6238 16.5426 10.8438 17.0426C11.1245 17.6681 11.5025 18.2453 11.9638 18.7526C12.5738 19.9326 12.7938 20.9526 11.4138 21.6126C10.4138 22.1126 9.10383 22.1426 8.14383 22.7426C5.03383 23.1326 1.99383 22.4526 1.45383 19.3126C1.45383 19.2542 1.43066 19.1982 1.3894 19.157C1.34815 19.1157 1.29219 19.0926 1.23384 19.0926C1.17549 19.0926 1.11954 19.1157 1.07828 19.157C1.03702 19.1982 1.01384 19.2542 1.01384 19.3126C0.373839 22.3126 3.65384 23.4526 6.01384 23.8326C8.93213 24.2721 11.9086 23.5896 14.3438 21.9226C14.4838 21.8926 14.5838 21.8426 14.6938 21.8126ZM13.3838 20.7526C13.3938 20.6428 13.3938 20.5323 13.3838 20.4226L13.5838 20.6726L13.3838 20.7526Z" fill="#D85700"/>
<path d="M14.0239 17.7325C14.6939 19.2525 15.2939 20.7325 17.0239 21.2425C20.9039 22.4525 25.2739 18.6025 27.0239 15.5525C27.1439 15.3325 26.8939 15.0125 26.6739 15.2125C25.4439 16.3325 24.4639 17.6325 23.1539 18.7125C22.4095 19.3556 21.5436 19.8428 20.6074 20.1451C19.6712 20.4475 18.6839 20.5588 17.7039 20.4725C15.8039 20.3025 15.1539 17.8525 14.4739 16.3925C13.7039 14.7525 12.7339 13.2225 12.0639 11.5325C12.0515 11.4907 12.0235 11.4553 11.9857 11.4335C11.948 11.4118 11.9033 11.4054 11.8609 11.4157C11.8185 11.4259 11.7817 11.4521 11.7581 11.4887C11.7345 11.5253 11.7258 11.5696 11.7339 11.6125C12.2169 13.7467 12.9873 15.8054 14.0239 17.7325Z" fill="#D85700"/>
<path d="M10.6042 8.31251C10.5889 8.35794 10.5889 8.40709 10.6042 8.45251C10.5545 8.67646 10.5545 8.90857 10.6042 9.13251C10.6283 9.18552 10.6717 9.22739 10.7255 9.24966C10.7793 9.27194 10.8396 9.27296 10.8941 9.25252C11.0164 9.21719 11.1296 9.15606 11.2262 9.07326C11.3228 8.99045 11.4005 8.8879 11.4541 8.77251C11.5441 8.58251 11.3042 8.43252 11.1542 8.53252L10.9441 8.71252C10.9342 8.63617 10.9342 8.55886 10.9441 8.48251C11.7422 6.12877 13.2474 4.07878 15.2541 2.61252C17.6041 0.992517 20.1941 1.98252 22.7241 2.61252C22.8741 2.61252 22.9041 2.42252 22.7841 2.36252C20.3141 0.992517 17.8541 -0.0574825 15.2241 1.36252C12.5941 2.78252 10.6642 5.33251 10.6042 8.31251Z" fill="#D85700"/>
<path d="M29.4238 8.51248C29.5538 6.87248 28.5938 5.01248 26.8738 4.79248C26.8738 4.79248 26.8738 4.85248 26.8738 4.86248C28.3038 5.26248 28.9438 7.34248 28.8238 8.65248C28.6538 10.4325 27.0338 10.8025 25.9438 11.8225C25.9174 11.8477 25.8994 11.8802 25.892 11.9159C25.8845 11.9515 25.8881 11.9886 25.9022 12.0222C25.9163 12.0558 25.9402 12.0843 25.9708 12.104C26.0015 12.1237 26.0374 12.1336 26.0738 12.1325C27.7538 12.0325 29.2938 10.1425 29.4238 8.51248Z" fill="#D85700"/>
<path d="M26.7839 3.28255C27.9866 3.78522 29.0727 4.53078 29.9739 5.47255C30.4461 5.94235 30.8051 6.51343 31.0239 7.14255C31.01 7.81554 30.8604 8.47879 30.5839 9.09254C30.7401 8.53386 30.6904 7.93766 30.4439 7.41254C30.4333 7.37144 30.4068 7.33623 30.3702 7.31466C30.3337 7.29309 30.29 7.28694 30.2489 7.29755C30.2078 7.30816 30.1726 7.33466 30.151 7.37123C30.1295 7.4078 30.1233 7.45144 30.1339 7.49255C30.1571 7.79491 30.13 8.09901 30.0539 8.39255C30.0464 8.37786 30.0349 8.36554 30.0208 8.35693C30.0067 8.34833 29.9905 8.34378 29.9739 8.34378C29.9574 8.34378 29.9412 8.34833 29.9271 8.35693C29.913 8.36554 29.9015 8.37786 29.8939 8.39255C29.7633 9.03154 29.4783 9.62889 29.0639 10.1325C29.056 10.1431 29.0503 10.155 29.0471 10.1677C29.0438 10.1805 29.0431 10.1937 29.0449 10.2067C29.0468 10.2197 29.0512 10.2322 29.0579 10.2435C29.0646 10.2548 29.0734 10.2647 29.0839 10.2725C29.0944 10.2804 29.1064 10.2862 29.1191 10.2894C29.1318 10.2927 29.1451 10.2934 29.1581 10.2915C29.1711 10.2897 29.1836 10.2853 29.1949 10.2786C29.2062 10.2719 29.216 10.2631 29.2239 10.2525C29.7011 9.69455 30.0432 9.03414 30.2239 8.32255C30.1659 8.90031 29.963 9.45409 29.6339 9.93255C29.5139 10.1425 29.7939 10.3225 29.9239 10.1725C30.1934 9.94522 30.4 9.65255 30.5239 9.32255C30.628 9.1361 30.7183 8.94224 30.7939 8.74255C30.9216 8.31732 31.0152 7.88262 31.0739 7.44255C31.1011 8.34357 30.9622 9.24188 30.6639 10.0925C30.1821 10.5151 29.6709 10.9027 29.1339 11.2525C27.9234 12.1019 27.0187 13.3187 26.5539 14.7225C26.5284 14.7789 26.5248 14.8428 26.5436 14.9017C26.5625 14.9607 26.6026 15.0105 26.6561 15.0416C26.7096 15.0727 26.7727 15.0829 26.8333 15.0701C26.8939 15.0574 26.9475 15.0226 26.9839 14.9725C27.6669 14.0139 28.4405 13.1232 29.2939 12.3125C30.1769 11.7721 31.0042 11.1457 31.7639 10.4426C32.1593 9.95338 32.3715 9.3415 32.3639 8.71255C33.3039 5.87255 29.1839 3.11255 26.7739 3.11255L26.7839 3.28255ZM31.3939 8.70255L31.4539 9.11255C31.3759 9.30391 31.2752 9.48521 31.1539 9.65255C31.2678 9.34542 31.3483 9.02691 31.3939 8.70255Z" fill="#D85700"/>
<path d="M23.0238 21.0824C23.0753 21.1648 23.151 21.2292 23.2405 21.2668C23.33 21.3044 23.429 21.3134 23.5238 21.2924C23.546 21.3639 23.5828 21.4301 23.6319 21.4866C23.681 21.5431 23.7413 21.5888 23.809 21.6208C23.8767 21.6528 23.9504 21.6703 24.0252 21.6723C24.1001 21.6743 24.1745 21.6607 24.2438 21.6324L24.4038 21.5424C24.4873 21.6142 24.5937 21.6537 24.7038 21.6537C24.8139 21.6537 24.9204 21.6142 25.0038 21.5424L25.3138 21.3024C26.4938 20.5424 27.6138 21.7924 27.9038 22.9624C28.0289 23.9466 27.8693 24.9461 27.4438 25.8424C26.8338 27.5224 25.7238 28.9224 24.9938 30.5424H25.0638C26.8838 28.0924 29.6138 25.7024 28.9438 22.3124C28.8088 21.7046 28.4843 21.1553 28.017 20.7437C27.5497 20.3322 26.9639 20.0796 26.3438 20.0224C26.3178 19.9414 26.2722 19.8681 26.2112 19.8088C26.1502 19.7495 26.0755 19.7061 25.9938 19.6824C25.9625 19.5358 25.8773 19.4062 25.7552 19.3192C25.633 19.2322 25.4827 19.1941 25.3338 19.2124C25.2975 19.1478 25.246 19.0929 25.1838 19.0524C25.2051 18.9905 25.2039 18.9231 25.1806 18.8619C25.1573 18.8008 25.1133 18.7497 25.0562 18.7176C24.9992 18.6855 24.9327 18.6744 24.8683 18.6863C24.8039 18.6981 24.7457 18.7321 24.7038 18.7824C24.4518 19.0638 24.1625 19.3095 23.8438 19.5124C23.4738 19.7024 23.1038 19.9024 22.7438 20.1124L22.6238 20.1724C22.1338 20.4924 22.5538 21.2424 23.0238 21.0824Z" fill="#D85700"/>
<path d="M18.6341 21.7825C18.5241 21.8525 18.3141 21.7825 18.1841 21.7825C18.0245 21.7678 17.8638 21.7678 17.7041 21.7825C17.5788 21.8036 17.4595 21.8514 17.3541 21.9225C17.2641 21.9925 17.2741 22.0925 17.1641 22.1525C17.0541 22.2125 17.1641 22.2525 17.1641 22.2525C17.1641 22.2525 17.2841 22.3425 17.3741 22.3625L17.7641 22.4625C17.709 22.6109 17.709 22.7741 17.7641 22.9225C17.7041 23.4625 18.4641 23.9225 18.8241 23.3725L19.0841 22.9825C19.1752 22.8327 19.2039 22.6532 19.1641 22.4825C19.5041 22.1425 19.1041 21.5225 18.6341 21.7825Z" fill="#D85700"/>
<path d="M14.0241 34.5925C12.9384 33.8981 12.0444 32.9422 11.4241 31.8125C11.0241 30.9425 11.3041 29.4426 11.2241 28.4426C11.0949 27.281 10.6486 26.1774 9.93409 25.2526L10.1041 25.1926L10.7041 24.9925C11.3341 24.7925 11.0541 23.8126 10.4241 23.9026C9.84158 23.9596 9.27504 24.1258 8.75409 24.3925C8.65976 24.4289 8.57557 24.4874 8.50862 24.5631C8.44166 24.6388 8.39391 24.7296 8.3694 24.8276C8.34488 24.9257 8.34432 25.0282 8.36776 25.1265C8.39121 25.2249 8.43796 25.3161 8.50409 25.3925C9.03662 26.1907 9.50477 27.0301 9.90409 27.9026C10.4141 29.0626 10.2141 30.3225 10.4341 31.5325C10.7541 33.2825 12.3341 34.3225 13.8741 34.9025C13.9152 34.9224 13.9625 34.9252 14.0057 34.9102C14.0488 34.8952 14.0842 34.8637 14.1041 34.8225C14.124 34.7814 14.1267 34.7341 14.1117 34.691C14.0967 34.6478 14.0652 34.6124 14.0241 34.5925Z" fill="#D85700"/>
<path d="M13.5142 28.8925C13.2706 29.3183 13.1462 29.8019 13.1542 30.2925C13.166 30.3254 13.1877 30.3539 13.2163 30.3741C13.245 30.3942 13.2791 30.405 13.3142 30.405C13.3492 30.405 13.3833 30.3942 13.412 30.3741C13.4406 30.3539 13.4623 30.3254 13.4742 30.2925C13.5835 29.8526 13.7342 29.424 13.9242 29.0125C14.0242 28.8125 13.6442 28.6425 13.5142 28.8925Z" fill="#D85700"/>
<path d="M23.1937 29.1426C23.5462 29.1239 23.8891 29.0211 24.1937 28.8426C24.24 28.8059 24.276 28.7577 24.298 28.7029C24.32 28.648 24.3273 28.5883 24.3192 28.5298C24.3112 28.4712 24.288 28.4158 24.2519 28.3689C24.2159 28.3221 24.1682 28.2855 24.1137 28.2626C23.7848 28.1862 23.4427 28.1862 23.1137 28.2626H23.0037H22.6337C22.5843 28.2268 22.5248 28.2076 22.4637 28.2076C22.4027 28.2076 22.3432 28.2268 22.2937 28.2626H22.0337C21.6437 28.2626 21.5637 28.9926 22.0337 29.0226C22.076 29.0639 22.1274 29.0947 22.1837 29.1126C22.3237 30.9826 22.3037 33.1126 20.3337 33.9826C18.7837 34.6626 16.5037 33.9826 14.9237 33.6326C14.8972 33.6326 14.8718 33.6432 14.853 33.6619C14.8343 33.6807 14.8237 33.7061 14.8237 33.7326C14.8237 33.7591 14.8343 33.7846 14.853 33.8033C14.8718 33.8221 14.8972 33.8326 14.9237 33.8326C17.1237 34.8326 19.3837 35.8326 21.6437 34.4426C23.1037 33.5326 23.7237 30.8726 23.1937 29.1426Z" fill="#D85700"/>
<path d="M15.744 15.7324C15.6033 15.461 15.5344 15.158 15.544 14.8524C15.6412 14.5937 15.7246 14.33 15.794 14.0624C15.904 13.7424 16.064 13.4124 16.184 13.0624C16.304 12.7124 16.404 12.6724 16.514 12.4924C16.624 12.3124 16.304 11.8824 16.024 11.9724C15.9412 11.966 15.8591 11.991 15.794 12.0424C15.5828 12.2413 15.407 12.4746 15.274 12.7324C14.9262 13.1398 14.6855 13.6275 14.5738 14.1513C14.462 14.6752 14.4827 15.2186 14.634 15.7324C14.9224 16.3529 15.3387 16.9053 15.8558 17.3534C16.3728 17.8016 16.9788 18.1352 17.634 18.3324C17.754 18.3324 17.894 18.2224 17.794 18.1124C17.0194 17.4025 16.3313 16.6037 15.744 15.7324Z" fill="#D85700"/>
<path d="M19.2238 22.2026C18.8808 21.9511 18.4769 21.7958 18.0538 21.7526C17.7238 21.6826 17.2338 21.5626 17.1038 21.9826C17.0981 22.0115 17.0982 22.0413 17.1042 22.0702C17.1102 22.0991 17.1219 22.1265 17.1387 22.1507C17.1555 22.175 17.177 22.1956 17.202 22.2114C17.2269 22.2272 17.2547 22.2378 17.2838 22.2426C17.5329 22.3402 17.7908 22.4138 18.0538 22.4626C18.3795 22.6214 18.7447 22.6805 19.1038 22.6326C19.1441 22.6167 19.1801 22.5917 19.209 22.5596C19.238 22.5275 19.2591 22.4891 19.2707 22.4474C19.2823 22.4057 19.2842 22.362 19.276 22.3195C19.2679 22.277 19.25 22.237 19.2238 22.2026Z" fill="#D85700"/>
<path d="M22.244 20.8225C22.4952 20.8103 22.7438 20.7666 22.984 20.6925C22.634 21.0225 23.114 21.6324 23.514 21.3124C23.914 20.9924 24.254 20.7025 24.644 20.4225L25.224 20.0624C25.8146 20.1705 26.3774 20.3962 26.879 20.726C27.3806 21.0558 27.8108 21.4831 28.144 21.9824C29.474 23.6124 28.434 25.5825 27.754 27.2125C27.748 27.2317 27.7487 27.2524 27.7558 27.2713C27.763 27.2902 27.7763 27.306 27.7936 27.3164C27.8109 27.3268 27.8312 27.3311 27.8513 27.3285C27.8713 27.326 27.8899 27.3168 27.904 27.3025C28.904 25.8525 29.964 23.1925 28.674 21.5725C28.3057 21.0242 27.8308 20.5557 27.2776 20.1949C26.7244 19.8342 26.1042 19.5884 25.454 19.4725C25.435 19.3913 25.3867 19.32 25.3185 19.272C25.2503 19.2241 25.1669 19.2029 25.084 19.2125H25.024C24.5143 19.2697 24.0266 19.4517 23.604 19.7424C23.094 20.0024 22.604 20.3424 22.154 20.6324C22.024 20.6824 22.144 20.8225 22.244 20.8225Z" fill="#D85700"/>
<path d="M15.914 33.4526C14.914 33.0826 12.634 32.3326 13.584 30.7626C14.0489 30.1498 14.429 29.4771 14.714 28.7626C14.714 28.7626 14.714 28.6926 14.654 28.7626C14.074 29.6226 12.204 30.7626 12.554 32.0226C12.904 33.2826 15.024 34.0226 16.214 34.4426C17.1503 34.7674 18.1544 34.846 19.1298 34.6709C20.1052 34.4958 21.0192 34.0728 21.784 33.4426C22.194 32.9981 22.4814 32.4547 22.6181 31.8657C22.7549 31.2767 22.7362 30.6622 22.564 30.0826C22.8063 29.8558 22.9914 29.5748 23.104 29.2626C23.1156 29.237 23.1219 29.2094 23.1226 29.1814C23.1233 29.1534 23.1183 29.1255 23.1081 29.0994C23.0978 29.0733 23.0825 29.0495 23.0629 29.0295C23.0433 29.0094 23.0199 28.9935 22.994 28.9826C23.3863 28.948 23.7746 28.8777 24.154 28.7726C24.4375 28.6938 24.7 28.5535 24.923 28.3617C25.146 28.1698 25.3239 27.9311 25.444 27.6626C25.2293 27.9122 24.9641 28.1134 24.6659 28.253C24.3677 28.3927 24.0433 28.4675 23.714 28.4726C23.3549 28.4697 22.9964 28.5032 22.644 28.5726H22.584L22.414 28.6526C22.3858 28.6742 22.3655 28.7046 22.3564 28.739C22.3474 28.7734 22.35 28.8099 22.364 28.8426C22.3671 28.8692 22.3671 28.896 22.364 28.9226C22.2533 28.6146 22.1162 28.3169 21.954 28.0326C21.9186 27.9626 21.8579 27.9087 21.7843 27.8817C21.7106 27.8546 21.6295 27.8565 21.5572 27.887C21.4849 27.9174 21.4268 27.9741 21.3947 28.0457C21.3626 28.1173 21.3587 28.1983 21.384 28.2726C22.154 30.2726 22.684 32.5726 20.254 33.7026C18.8313 34.197 17.2706 34.1071 15.914 33.4526Z" fill="#D85700"/>
<path d="M10.8539 24.2225C10.7347 24.2427 10.613 24.2427 10.4939 24.2225C10.313 24.2606 10.1357 24.3142 9.96388 24.3825C9.61763 24.4825 9.25014 24.4825 8.90389 24.3825C8.52389 24.2725 8.06388 24.6925 8.39388 25.0525C8.58972 25.2362 8.83242 25.3623 9.09529 25.417C9.35817 25.4717 9.63103 25.4529 9.88388 25.3625C10.1452 25.2861 10.3896 25.1605 10.6039 24.9925C10.8239 24.8225 10.8539 24.6125 10.9839 24.3925C11.1139 24.1725 10.9639 24.1425 10.8539 24.2225Z" fill="#D85700"/>
<path d="M16.0238 20.8125C14.5638 19.6025 13.5238 17.6125 11.6838 16.8825C11.6442 16.8662 11.6008 16.8618 11.5588 16.8699C11.5168 16.8779 11.478 16.898 11.4472 16.9277C11.4164 16.9574 11.395 16.9954 11.3855 17.0372C11.376 17.0789 11.3789 17.1224 11.3938 17.1625C11.6238 17.8625 12.3938 18.3825 12.8838 18.8925C13.3738 19.4025 13.9538 20.1425 14.4938 20.7625C13.8603 21.0058 13.267 21.3429 12.7338 21.7625C10.8444 23.1275 8.52511 23.7632 6.20378 23.5525C6.11378 23.5525 6.07378 23.6825 6.20378 23.7125C8.03378 24.3425 9.74378 23.8225 11.5638 23.4225C12.9138 23.1325 14.2338 21.4225 15.6738 21.7925C16.1538 21.9025 16.3638 21.1425 16.0238 20.8125Z" fill="#D85700"/>
<path d="M24.354 32.4324C25.024 31.2624 25.794 30.1424 26.354 28.9324C26.354 28.8524 26.274 28.8024 26.224 28.8624C23.904 31.6124 23.224 35.5124 19.224 36.2524C18.2124 36.3623 17.189 36.2713 16.2125 35.9847C15.2361 35.6982 14.3259 35.2216 13.534 34.5824C11.604 33.2224 11.244 31.4124 10.894 29.2524C11.054 30.9724 10.8941 32.9924 12.2341 34.3124C13.8 35.9229 15.9117 36.8895 18.1541 37.0224C19.0009 37.0451 19.8425 36.8823 20.6199 36.5455C21.3972 36.2087 22.0915 35.7059 22.6541 35.0724C23.3303 34.268 23.9015 33.3809 24.354 32.4324Z" fill="#D85700"/>
<path d="M3.56371 7.88249C4.50371 5.07249 7.29371 5.51249 9.56371 4.78249C9.46439 4.91976 9.37421 5.0634 9.29372 5.21249C9.05372 5.65249 8.65371 6.41249 8.86371 6.92249C8.87939 6.96169 8.90406 6.99667 8.93571 7.02461C8.96737 7.05255 9.00513 7.07268 9.04597 7.08337C9.08682 7.09407 9.12961 7.09504 9.1709 7.0862C9.21219 7.07737 9.25082 7.05897 9.28371 7.03249C9.63371 6.75249 9.68372 6.22249 9.84372 5.81249C10.0709 5.33259 10.3564 4.88253 10.6937 4.47249C10.8437 4.25249 10.6237 3.92249 10.3637 4.04249C10.3342 4.06827 10.3003 4.08859 10.2637 4.10249C8.05372 4.10249 5.16371 4.56249 3.66371 6.31249C2.16371 8.06249 2.15371 11.4925 2.05371 13.6925C2.05371 13.8325 2.24372 13.8925 2.29372 13.7525C3.02372 11.8825 2.92371 9.80249 3.56371 7.88249Z" fill="#D85700"/>
<path d="M5.50386 21.6625C4.57386 21.1225 3.82387 20.7825 3.37387 19.7325C3.02976 18.9096 2.85953 18.0244 2.87387 17.1325C2.87387 15.2925 4.93387 15.1325 5.87387 14.0725C5.00584 14.1774 4.18467 14.5239 3.50386 15.0725C3.07778 15.2933 2.72296 15.6303 2.4805 16.0444C2.23804 16.4585 2.11785 16.9329 2.13387 17.4125C2.07387 19.4125 3.08386 21.9825 5.33386 22.1225C5.53386 22.0825 5.71386 21.7825 5.50386 21.6625Z" fill="#D85700"/>
<path d="M3.84391 21.9825C3.41391 21.6425 2.9239 21.4025 2.5039 21.0525C2.4139 20.9725 2.28391 21.0525 2.35391 21.1925C2.69835 21.6616 3.18087 22.0113 3.73391 22.1925C3.75643 22.1885 3.77772 22.1794 3.79617 22.1658C3.81462 22.1523 3.82974 22.1347 3.84036 22.1145C3.85097 22.0942 3.8568 22.0718 3.85742 22.0489C3.85803 22.026 3.85342 22.0033 3.84391 21.9825Z" fill="#D85700"/>
<path d="M11.9237 10.9525C11.2617 9.23958 11.2053 7.35184 11.7637 5.60246C12.2637 3.77246 14.0737 2.82246 15.4837 1.77246C11.9537 3.33246 9.18374 7.43246 11.6237 11.1725C11.7237 11.3125 12.0237 11.1425 11.9237 10.9525Z" fill="#D85700"/>
<path d="M18.8137 18.3325C17.7423 17.9468 16.7836 17.3008 16.0237 16.4525C14.9037 15.3225 15.0737 14.1025 15.9637 12.9225C16.0237 12.8325 15.9037 12.7025 15.8137 12.7825C15.1037 13.4525 14.3237 14.3025 14.6437 15.3825C15.2495 16.8328 16.3771 18.0031 17.8037 18.6625C20.2037 20.0125 23.0137 18.1325 23.9537 15.8625C23.9679 15.8261 23.9682 15.7858 23.9547 15.7491C23.9411 15.7125 23.9146 15.682 23.8802 15.6636C23.8457 15.6451 23.8057 15.6399 23.7677 15.6489C23.7296 15.658 23.6962 15.6806 23.6737 15.7125C22.5637 17.3525 21.0237 18.9125 18.8137 18.3325Z" fill="#D85700"/>
<path d="M21.0242 5.69251C21.3329 5.26902 21.7424 4.92925 22.2156 4.704C22.6888 4.47874 23.2108 4.37512 23.7342 4.40251C24.8082 4.53931 25.8466 4.87865 26.7942 5.40251C27.3369 5.62355 27.8096 5.98768 28.1618 6.4561C28.514 6.92452 28.7325 7.4797 28.7942 8.06251C29.0242 9.39251 27.5942 10.6325 26.7942 11.5325C26.7042 11.6325 26.8642 11.7825 26.9642 11.7025C27.9642 10.8125 29.5142 9.89251 29.5042 8.37251C29.5322 7.72404 29.3878 7.07972 29.0857 6.50527C28.7835 5.93082 28.3344 5.44677 27.7841 5.10251C26.0441 4.22251 21.5042 2.31251 21.0142 5.68251C21.0242 5.69251 21.0242 5.70251 21.0242 5.69251Z" fill="#D85700"/>
<path d="M29.604 10.0625C30.0023 9.54855 30.2669 8.94382 30.374 8.30249C30.134 8.89249 29.764 9.40249 29.484 9.97249C29.404 10.0725 29.544 10.1425 29.604 10.0625Z" fill="#D85700"/>
<path d="M30.2039 10.1426L30.5239 9.87255L30.4339 10.0426C30.4219 10.0733 30.4192 10.1068 30.426 10.1391C30.4328 10.1714 30.4488 10.201 30.4721 10.2243C30.4955 10.2476 30.5251 10.2636 30.5573 10.2704C30.5896 10.2772 30.6231 10.2745 30.6539 10.2626C30.7626 10.2124 30.8664 10.1521 30.9639 10.0826C30.9517 10.1232 30.9521 10.1666 30.965 10.2071C30.978 10.2475 31.0029 10.283 31.0364 10.309C31.07 10.335 31.1107 10.3502 31.1531 10.3526C31.1954 10.3551 31.2376 10.3446 31.2739 10.3226L31.5339 10.1426C31.4813 10.2224 31.4345 10.306 31.3939 10.3926C31.3239 10.5226 31.5039 10.6425 31.6139 10.5625C31.8905 10.3223 32.0832 9.99997 32.1639 9.64255C32.1639 9.50255 32.0439 9.33255 31.9139 9.45255C31.7885 9.56615 31.647 9.66051 31.4939 9.73255C31.4939 9.55255 31.6039 9.37255 31.6639 9.20255C31.6718 9.18285 31.6757 9.1618 31.6754 9.14058C31.6752 9.11937 31.6707 9.09841 31.6624 9.07891C31.654 9.05941 31.6419 9.04175 31.6267 9.02693C31.6115 9.01211 31.5936 9.00043 31.5739 8.99255C31.5542 8.98467 31.5331 8.98075 31.5119 8.98101C31.4907 8.98126 31.4697 8.9857 31.4502 8.99406C31.4307 9.00242 31.4131 9.01453 31.3982 9.02971C31.3834 9.0449 31.3717 9.06286 31.3639 9.08255C31.2638 9.27134 31.1394 9.44616 30.9939 9.60255C31.1239 9.31255 31.2639 9.03255 31.3839 8.74255C31.5039 8.45255 31.1939 8.47255 31.1139 8.63255C31.002 8.85856 30.868 9.07294 30.7139 9.27255L31.0539 8.68255C31.0539 8.59255 30.9539 8.51255 30.9039 8.60255C30.6339 9.06255 30.3439 9.51255 30.0539 9.96255C30.03 9.98244 30.015 10.011 30.0122 10.0419C30.0094 10.0729 30.019 10.1037 30.0389 10.1276C30.0588 10.1514 30.0873 10.1664 30.1183 10.1692C30.1492 10.172 30.18 10.1624 30.2039 10.1426Z" fill="#D85700"/>
<path d="M10.554 4.74251C10.604 4.62251 10.644 4.50251 10.684 4.38251C10.884 3.81251 10.014 3.46251 9.824 4.03251C9.57635 4.65572 9.37906 5.29777 9.234 5.95251C9.04398 6.28575 8.9701 6.67271 9.024 7.05251C9.074 7.25251 9.334 7.44251 9.524 7.26251C9.83744 6.87579 10.0627 6.4253 10.184 5.94251C10.3568 5.55947 10.4811 5.15635 10.554 4.74251Z" fill="#630000"/>
<path d="M25.1539 19.8926L25.2939 19.7726C25.3597 19.7162 25.406 19.6405 25.426 19.5562C25.4461 19.4719 25.439 19.3835 25.4056 19.3035C25.3723 19.2236 25.3146 19.1562 25.2406 19.1111C25.1666 19.066 25.0803 19.0455 24.9939 19.0526C24.9216 19.014 24.8409 18.9939 24.7589 18.9939C24.677 18.9939 24.5963 19.014 24.5239 19.0526C24.047 19.2798 23.6084 19.5801 23.2239 19.9426C23.1719 20.0001 23.1434 20.075 23.1439 20.1526L22.844 20.3926C22.394 20.7926 22.9439 21.5226 23.4139 21.1326H23.4639C23.5038 21.1371 23.5441 21.1371 23.5839 21.1326C24.1403 20.8982 24.6463 20.5587 25.0739 20.1326C25.104 20.1008 25.1267 20.0629 25.1405 20.0214C25.1543 19.98 25.1589 19.936 25.1539 19.8926Z" fill="#630000"/>
<path d="M14.0239 18.6025C13.4739 17.9625 12.7339 17.0925 11.8139 17.1825C11.7839 17.1874 11.7568 17.2036 11.7383 17.2277C11.7197 17.2519 11.711 17.2822 11.7139 17.3125C12.0199 18.2086 12.5221 19.0252 13.1839 19.7025C13.7439 20.4725 14.3239 21.7625 15.3239 21.9525C15.6639 22.0225 15.8939 21.6925 15.8839 21.3925C15.8639 20.4425 14.6139 19.3125 14.0239 18.6025Z" fill="#630000"/>
<path d="M11.2342 23.8524C10.8998 23.8462 10.5654 23.8662 10.2342 23.9124H10.0341C9.47545 23.9127 8.92681 24.0611 8.44415 24.3424C8.3818 24.3945 8.33777 24.4651 8.31849 24.544C8.29921 24.6228 8.30569 24.7058 8.337 24.7807C8.36831 24.8556 8.42278 24.9186 8.49246 24.9603C8.56213 25.002 8.64332 25.0203 8.72414 25.0124H8.77415C8.79397 25.1289 8.8501 25.2361 8.93452 25.3187C9.01893 25.4013 9.12731 25.4551 9.24415 25.4724C9.38319 25.522 9.5351 25.522 9.67414 25.4724C9.86954 25.4101 10.0705 25.3666 10.2741 25.3424C10.409 25.3208 10.5325 25.2538 10.6242 25.1524C10.911 25.0406 11.1858 24.8999 11.4441 24.7324C11.5336 24.6825 11.6042 24.6048 11.6454 24.511C11.6866 24.4172 11.696 24.3126 11.6722 24.213C11.6484 24.1133 11.5928 24.0242 11.5137 23.9591C11.4346 23.8941 11.3365 23.8566 11.2342 23.8524Z" fill="#630000"/>
<path d="M17.8537 20.1426C18.1004 20.1841 18.3539 20.1419 18.5737 20.0226C19.0355 20.1197 19.5156 20.0779 19.9537 19.9026C19.9961 19.8808 20.0307 19.8463 20.0526 19.804C20.0746 19.7616 20.0828 19.7135 20.0763 19.6663C20.0697 19.6191 20.0485 19.5751 20.0158 19.5403C19.9831 19.5056 19.9405 19.482 19.8937 19.4726C19.2629 19.4004 18.638 19.2835 18.0237 19.1226C17.2889 18.8287 16.6269 18.3782 16.0837 17.8026C15.0027 16.7445 14.3661 15.3139 14.3037 13.8026C14.3081 13.7794 14.3081 13.7557 14.3037 13.7326C14.3218 13.7731 14.3513 13.8076 14.3886 13.8317C14.4258 13.8559 14.4693 13.8688 14.5137 13.8688C14.5581 13.8688 14.6016 13.8559 14.6389 13.8317C14.6761 13.8076 14.7056 13.7731 14.7237 13.7326C14.8001 13.5353 14.857 13.331 14.8937 13.1226C14.9638 12.949 15.0544 12.7845 15.1637 12.6326C15.2737 12.5026 15.0937 12.3526 14.9637 12.4326C14.9541 12.3837 14.9307 12.3386 14.8962 12.3026C14.8616 12.2667 14.8175 12.2414 14.7691 12.2298C14.7206 12.2182 14.6698 12.2208 14.6228 12.2372C14.5757 12.2537 14.5344 12.2833 14.5037 12.3226C14.478 12.2774 14.442 12.2389 14.3986 12.2103C14.3552 12.1816 14.3056 12.1636 14.254 12.1578C14.2023 12.1519 14.15 12.1584 14.1013 12.1766C14.0526 12.1948 14.0089 12.2243 13.9737 12.2626C13.7237 12.5226 13.6737 12.3326 13.5437 12.0826C13.4137 11.8326 13.3337 11.6526 13.0737 11.6026C13.0036 11.594 12.9328 11.6133 12.8767 11.6563C12.8207 11.6993 12.7837 11.7626 12.7737 11.8326C12.7237 12.1726 13.1337 12.6626 13.3637 12.8326C13.421 12.8922 13.4918 12.9369 13.5702 12.9631C13.6486 12.9892 13.7322 12.9959 13.8137 12.9826C13.8137 13.2426 14.1637 13.3226 14.3137 13.1526L14.3937 13.0826C14.3732 13.208 14.3431 13.3317 14.3037 13.4526C14.2787 13.5134 14.2787 13.5817 14.3037 13.6426C14.2037 13.5026 13.9137 13.5426 13.9037 13.7426C13.8571 14.5908 13.9957 15.439 14.31 16.2282C14.6243 17.0174 15.1067 17.7287 15.7237 18.3126C16.1874 18.767 16.7125 19.1541 17.2837 19.4626C17.2742 19.4834 17.2692 19.506 17.2692 19.529C17.2692 19.5519 17.2741 19.5745 17.2835 19.5954C17.293 19.6162 17.3069 19.6348 17.3241 19.6499C17.3414 19.6649 17.3617 19.6761 17.3837 19.6826L17.6437 19.7626C17.6208 19.8002 17.6082 19.8433 17.6073 19.8873C17.6064 19.9314 17.6171 19.9749 17.6384 20.0135C17.6598 20.0521 17.6909 20.0844 17.7287 20.107C17.7665 20.1297 17.8096 20.142 17.8537 20.1426Z" fill="white"/>
<path d="M12.9538 6.00253C13.8928 4.76401 15.0862 3.74106 16.4538 3.00253C17.094 2.74246 17.7976 2.68063 18.4733 2.82505C19.149 2.96947 19.7658 3.31348 20.2438 3.81252C20.2745 3.85325 20.3161 3.88446 20.3638 3.90253C20.3824 3.97118 20.4248 4.03099 20.4834 4.07129C20.542 4.11159 20.6131 4.12975 20.6838 4.12253H20.7838H20.8538C20.7915 4.20186 20.7347 4.2854 20.6838 4.37253C20.5338 4.63253 20.8338 5.03252 21.0938 4.78252C22.5538 3.33252 24.1838 3.14252 26.1738 3.39252C26.1962 3.38554 26.2157 3.37158 26.2296 3.35269C26.2435 3.3338 26.251 3.31097 26.251 3.28752C26.251 3.26408 26.2435 3.24125 26.2296 3.22236C26.2157 3.20347 26.1962 3.18951 26.1738 3.18253C24.5238 2.89253 22.4538 2.48252 21.1738 3.70252L21.1038 3.62253C21.0494 3.57998 20.9887 3.54623 20.9238 3.52252C20.9293 3.4226 20.9293 3.32245 20.9238 3.22253C20.9238 2.98253 20.5738 2.89253 20.4238 3.05253C19.9104 2.61406 19.2978 2.30745 18.6391 2.15933C17.9804 2.01121 17.2955 2.02604 16.6438 2.20252C14.9238 2.56252 13.4438 4.39252 12.6438 5.85252C12.6238 6.01252 12.8538 6.14253 12.9538 6.00253Z" fill="white"/>
<path d="M13.534 4.42255C13.604 4.35255 13.5341 4.24256 13.4041 4.30256C12.0141 5.37256 11.564 7.57255 11.704 9.24255C11.7125 9.27455 11.7313 9.30284 11.7576 9.32302C11.7838 9.34321 11.816 9.35415 11.8491 9.35415C11.8821 9.35415 11.9143 9.34321 11.9405 9.32302C11.9668 9.30284 11.9856 9.27455 11.9941 9.24255C12.2141 7.50255 12.254 5.78255 13.534 4.42255Z" fill="white"/>
<path d="M28.7638 5.71251C29.0558 6.33554 29.2178 7.01147 29.2402 7.69914C29.2625 8.38682 29.1447 9.07184 28.8938 9.71251C28.3738 10.9125 27.3038 11.6425 26.4938 12.6225C26.4769 12.6515 26.469 12.6849 26.471 12.7185C26.4731 12.752 26.485 12.7842 26.5054 12.8109C26.5257 12.8377 26.5535 12.8578 26.5852 12.8688C26.617 12.8797 26.6513 12.881 26.6838 12.8725C27.4397 12.4875 28.1019 11.9413 28.6238 11.2725C28.6475 11.2827 28.673 11.2879 28.6988 11.2879C28.7246 11.2879 28.7501 11.2827 28.7738 11.2725C28.9838 11.1225 29.2138 11.0025 29.4338 10.8625C29.4693 10.8365 29.4951 10.7995 29.5074 10.7572C29.5197 10.715 29.5177 10.6699 29.5018 10.6289C29.4858 10.5879 29.4568 10.5533 29.4192 10.5304C29.3816 10.5076 29.3375 10.4978 29.2938 10.5025L29.3838 10.3825C29.4008 10.3675 29.4145 10.349 29.4238 10.3283C29.4331 10.3076 29.438 10.2852 29.438 10.2625C29.438 10.2398 29.4331 10.2174 29.4238 10.1967C29.4145 10.176 29.4008 10.1575 29.3838 10.1425C29.4438 10.0225 29.5038 9.90251 29.5538 9.78251C29.7793 9.09348 29.8523 8.36364 29.7677 7.64359C29.6831 6.92353 29.4429 6.23049 29.0638 5.61251C29.0572 5.59281 29.0469 5.5746 29.0332 5.55891C29.0196 5.54323 29.0031 5.53037 28.9845 5.52109C28.9659 5.5118 28.9457 5.50626 28.925 5.50479C28.9043 5.50332 28.8835 5.50595 28.8638 5.51251C28.8441 5.51908 28.8259 5.52946 28.8102 5.54306C28.7945 5.55667 28.7817 5.57323 28.7724 5.5918C28.7631 5.61037 28.7576 5.63059 28.7561 5.6513C28.7546 5.67201 28.7572 5.69281 28.7638 5.71251Z" fill="white"/>
<path d="M25.644 13.5825C25.6514 13.5503 25.6523 13.517 25.6467 13.4844C25.6412 13.4519 25.6292 13.4208 25.6115 13.3929C25.5939 13.365 25.5709 13.3409 25.5438 13.3219C25.5168 13.303 25.4863 13.2896 25.454 13.2825C25.7058 13.0952 25.9697 12.9249 26.244 12.7725C26.354 12.7025 26.244 12.5125 26.124 12.5625L25.374 12.9625C25.3586 12.9315 25.3361 12.9046 25.3083 12.884C25.2806 12.8633 25.2483 12.8495 25.2142 12.8437C25.1801 12.8378 25.1451 12.8401 25.1121 12.8503C25.079 12.8605 25.0489 12.8784 25.024 12.9025C24.884 13.0325 24.744 13.1425 24.594 13.2625L24.414 13.1425H24.344C24.054 12.9925 23.824 13.4325 24.074 13.6325L24.184 13.7325C24.2382 13.783 24.2799 13.8455 24.306 13.9149C24.332 13.9843 24.3416 14.0587 24.334 14.1325C24.3396 14.1819 24.3582 14.229 24.3879 14.2689C24.4177 14.3087 24.4575 14.3399 24.5034 14.3593C24.5492 14.3786 24.5994 14.3854 24.6487 14.379C24.698 14.3725 24.7447 14.353 24.784 14.3225L24.584 14.7625C24.5632 14.8197 24.5592 14.8816 24.5724 14.9411C24.5856 15.0005 24.6155 15.0549 24.6585 15.098C24.7016 15.141 24.756 15.1709 24.8154 15.1841C24.8748 15.1973 24.9368 15.1933 24.994 15.1725C24.8515 15.4141 24.7246 15.6646 24.614 15.9225C24.544 16.1025 24.784 16.3125 24.934 16.1625C25.4159 15.7047 25.7826 15.1392 26.004 14.5125C26.094 14.2425 25.774 13.9225 25.524 14.1525C25.5755 13.9651 25.6156 13.7747 25.644 13.5825Z" fill="white"/>
<path d="M4.17371 22.1425C3.6015 21.8369 3.10285 21.4101 2.71252 20.892C2.32219 20.3739 2.04958 19.7768 1.91372 19.1425C1.71974 18.4572 1.66669 17.7396 1.75779 17.0332C1.84888 16.3268 2.08222 15.6462 2.44372 15.0325C2.47745 14.9956 2.49616 14.9475 2.49616 14.8975C2.49616 14.8475 2.47745 14.7994 2.44372 14.7625C2.48654 14.7591 2.52794 14.7455 2.56446 14.7229C2.60098 14.7003 2.63159 14.6693 2.65372 14.6325C2.7704 14.386 2.86088 14.1279 2.92371 13.8625C2.95442 13.8791 2.9888 13.8878 3.02372 13.8878C3.05864 13.8878 3.09302 13.8791 3.12372 13.8625C3.14069 14.0042 3.16741 14.1445 3.20371 14.2825C3.26371 14.4825 3.53371 14.4025 3.56371 14.2825C3.61345 13.9209 3.61345 13.5541 3.56371 13.1925C3.56371 12.9525 3.25372 12.9225 3.12372 13.0725V12.8425C3.16873 12.2533 3.16873 11.6616 3.12372 11.0725C3.13935 11.0952 3.16025 11.1137 3.18464 11.1265C3.20903 11.1394 3.23617 11.1461 3.26372 11.1461C3.29127 11.1461 3.31841 11.1394 3.3428 11.1265C3.36718 11.1137 3.3881 11.0952 3.40372 11.0725C3.8067 10.0617 4.27777 9.07948 4.81371 8.13249C5.1992 7.64404 5.67979 7.23888 6.22639 6.94152C6.77298 6.64416 7.37421 6.46079 7.99372 6.4025C8.11372 6.4025 8.18372 6.2325 8.05372 6.1925C7.05372 5.8725 5.86372 6.5725 5.05372 7.1925C3.97971 8.19244 3.28979 9.5369 3.10372 10.9925C3.10372 10.8025 3.10372 10.6225 3.10372 10.4425C3.20372 10.0925 3.30371 9.7425 3.39371 9.4425C3.39371 9.2725 3.13372 9.1825 3.08372 9.3625L2.94372 9.8625C2.91811 9.85491 2.89125 9.85253 2.86471 9.85549C2.83817 9.85846 2.81249 9.8667 2.78919 9.87975C2.76589 9.8928 2.74544 9.91038 2.72904 9.93147C2.71264 9.95255 2.70063 9.9767 2.69372 10.0025C2.6438 10.9018 2.6438 11.8032 2.69372 12.7025C2.391 13.3558 2.25364 14.0736 2.29372 14.7925C2.30227 14.8354 2.31927 14.8762 2.34373 14.9125C2.28978 14.9169 2.23961 14.942 2.20371 14.9825C1.73589 15.6603 1.4242 16.4333 1.29105 17.246C1.15791 18.0588 1.20663 18.8909 1.43372 19.6825C1.73372 20.9425 2.67372 22.6825 4.18372 22.6825C4.25533 22.6812 4.32348 22.6514 4.37318 22.5999C4.42287 22.5483 4.45005 22.4791 4.44872 22.4075C4.4474 22.3359 4.41767 22.2677 4.3661 22.218C4.31452 22.1683 4.24532 22.1412 4.17371 22.1425Z" fill="white"/>
<path d="M12.6937 20.4825C12.6081 20.4128 12.508 20.3632 12.4007 20.3372C12.2934 20.3113 12.1817 20.3097 12.0737 20.3325C12.1257 20.256 12.1861 20.1855 12.2537 20.1225C12.4037 19.9725 12.3337 19.6725 12.0937 19.7125H11.9237C11.9837 19.6125 12.0437 19.5025 12.1137 19.4025C12.1271 19.38 12.1354 19.3548 12.1381 19.3287C12.1407 19.3027 12.1377 19.2763 12.1291 19.2516C12.1205 19.2268 12.1067 19.2042 12.0885 19.1854C12.0703 19.1665 12.0482 19.1519 12.0237 19.1425H11.8137C11.8516 19.1185 11.8918 19.0984 11.9337 19.0825C11.949 19.0808 11.9636 19.0757 11.9766 19.0674C11.9895 19.0592 12.0004 19.0481 12.0084 19.035C12.0164 19.0219 12.0212 19.0071 12.0225 18.9918C12.0239 18.9765 12.0217 18.9611 12.0161 18.9468C12.0106 18.9325 12.0018 18.9197 11.9905 18.9093C11.9791 18.8989 11.9656 18.8913 11.9509 18.887C11.9361 18.8827 11.9206 18.8819 11.9055 18.8846C11.8904 18.8873 11.8761 18.8934 11.8637 18.9025C11.6524 18.9659 11.4453 19.0427 11.2437 19.1325C11.2093 19.1413 11.1788 19.1613 11.157 19.1894C11.1352 19.2174 11.1234 19.2519 11.1234 19.2875C11.1234 19.323 11.1352 19.3575 11.157 19.3856C11.1788 19.4136 11.2093 19.4337 11.2437 19.4425H11.5937C11.5037 19.5725 11.4137 19.7025 11.3237 19.8525C11.3012 19.8868 11.2888 19.9267 11.2878 19.9677C11.2868 20.0088 11.2973 20.0492 11.3181 20.0846C11.3389 20.12 11.3692 20.1488 11.4055 20.1679C11.4418 20.1869 11.4828 20.1955 11.5237 20.1925C11.4437 20.2925 11.3637 20.3825 11.2937 20.4825C11.2629 20.5199 11.2442 20.5657 11.2399 20.614C11.2357 20.6623 11.2462 20.7107 11.27 20.7529C11.2938 20.7951 11.3298 20.8291 11.3733 20.8505C11.4168 20.8718 11.4658 20.8795 11.5137 20.8725H11.6837C11.0261 21.3267 10.2955 21.6649 9.5237 21.8725C8.70288 22.0544 7.86444 22.1449 7.0237 22.1425L7.4437 22.0125C7.4596 22.0002 7.47095 21.983 7.47593 21.9635C7.48091 21.9441 7.47925 21.9235 7.4712 21.9051C7.46315 21.8867 7.44917 21.8716 7.43151 21.862C7.41385 21.8525 7.3935 21.8491 7.37371 21.8525C6.87371 22.0325 6.37371 22.0825 5.84371 22.2225C5.75371 22.2225 5.84371 22.3625 5.84371 22.3625C6.10301 22.3542 6.36088 22.3207 6.6137 22.2625C6.6077 22.2855 6.6063 22.3094 6.6096 22.3329C6.61289 22.3565 6.62081 22.3791 6.6329 22.3995C6.64498 22.42 6.661 22.4378 6.68001 22.4521C6.69903 22.4663 6.72068 22.4766 6.7437 22.4825C7.78172 22.6707 8.84886 22.6218 9.86533 22.3395C10.8818 22.0573 11.8213 21.5489 12.6137 20.8525C12.6441 20.8342 12.6704 20.8098 12.691 20.781C12.7116 20.7522 12.7261 20.7194 12.7336 20.6847C12.7411 20.6501 12.7414 20.6143 12.7346 20.5795C12.7277 20.5447 12.7138 20.5117 12.6937 20.4825Z" fill="white"/>
<path d="M26.194 21.8226C26.5862 22.7988 26.7305 23.857 26.614 24.9026C26.3821 25.8787 26.0153 26.8178 25.524 27.6926C25.5123 27.7123 25.5056 27.7347 25.5045 27.7577C25.5035 27.7806 25.5081 27.8035 25.518 27.8242C25.5279 27.845 25.5427 27.863 25.5612 27.8767C25.5797 27.8903 25.6013 27.8992 25.624 27.9026C25.314 28.3026 25.014 28.7026 24.744 29.1326C24.744 29.1326 24.744 29.0626 24.744 29.0226C24.744 28.9826 24.624 28.8026 24.504 28.8426C24.3274 28.906 24.162 28.9972 24.014 29.1126C23.9739 29.0774 23.9224 29.058 23.869 29.058C23.8157 29.058 23.7641 29.0774 23.724 29.1126C23.4865 29.2628 23.3013 29.4829 23.194 29.7426C23.094 29.9426 23.374 30.0626 23.504 29.9226L23.564 29.8626C23.5819 29.8915 23.607 29.9154 23.6367 29.9319C23.6665 29.9485 23.7 29.9572 23.734 29.9572C23.7681 29.9572 23.8015 29.9485 23.8313 29.9319C23.861 29.9154 23.8861 29.8915 23.904 29.8626C24.0427 29.655 24.2191 29.4752 24.424 29.3326C24.4258 29.4895 24.3987 29.6454 24.344 29.7926C24.284 29.9226 24.474 30.0226 24.564 29.9126C25.6366 28.7289 26.5663 27.4233 27.334 26.0226C27.414 25.8626 27.164 25.7226 27.064 25.8726C26.964 26.0226 26.884 26.1026 26.794 26.2226V26.1326C26.914 25.8592 27.024 25.5792 27.124 25.2926C27.1303 25.2768 27.1328 25.2599 27.1314 25.243C27.1301 25.2261 27.1248 25.2098 27.1161 25.1953C27.1074 25.1808 27.0955 25.1685 27.0812 25.1593C27.067 25.1502 27.0508 25.1444 27.034 25.1426C27.1337 24.5632 27.1179 23.9699 26.9874 23.3967C26.857 22.8235 26.6145 22.2817 26.274 21.8026C26.2601 21.7983 26.2453 21.7979 26.2312 21.8015C26.2171 21.805 26.2043 21.8123 26.194 21.8226Z" fill="white"/>
<path d="M24.0237 30.7526C22.4937 33.3126 20.3537 35.2026 17.2037 35.1626C16.1743 35.0886 15.1707 34.8062 14.2537 34.3326C12.9737 33.7426 12.2537 32.3326 11.3637 31.3326C11.3451 31.3088 11.3178 31.2932 11.2878 31.2895C11.2578 31.2857 11.2276 31.2941 11.2037 31.3126C11.1798 31.3312 11.1643 31.3585 11.1605 31.3885C11.1568 31.4185 11.1651 31.4487 11.1837 31.4726C11.8247 32.7945 12.8046 33.9228 14.0237 34.7426C15.0435 35.3492 16.1981 35.6929 17.3837 35.7426C20.5737 35.7426 22.8237 33.6026 24.3037 31.0026C24.4437 30.7726 24.1837 30.5626 24.0237 30.7526Z" fill="white"/>
<path d="M11.0237 27.3226C11.3437 27.9526 11.6037 28.6226 11.9637 29.2426C11.9856 29.2766 12.0178 29.3026 12.0556 29.317C12.0934 29.3314 12.1347 29.3333 12.1737 29.3226V29.4826C12.1737 29.6926 12.5237 29.7626 12.5937 29.5426C12.6289 29.4489 12.6724 29.3586 12.7237 29.2726C12.7237 29.4826 13.0237 29.6026 13.1037 29.3726L13.5137 28.3026C13.5253 28.2579 13.5202 28.2104 13.4993 28.1692C13.4785 28.1279 13.4433 28.0956 13.4004 28.0785C13.3574 28.0613 13.3097 28.0604 13.2661 28.0759C13.2226 28.0914 13.1861 28.1222 13.1637 28.1626L13.0437 28.4726C13.0231 28.4475 12.9971 28.4273 12.9677 28.4134C12.9383 28.3995 12.9062 28.3923 12.8737 28.3923C12.8412 28.3923 12.8091 28.3995 12.7797 28.4134C12.7503 28.4273 12.7243 28.4475 12.7037 28.4726L12.4937 28.7926C12.4937 28.7226 12.4937 28.6526 12.4937 28.5826C12.4871 28.5388 12.4674 28.498 12.4372 28.4656C12.407 28.4332 12.3677 28.4106 12.3245 28.4009C12.2812 28.3912 12.2361 28.3947 12.1949 28.4111C12.1537 28.4274 12.1184 28.4559 12.0937 28.4926C11.6826 27.3973 11.0836 26.3821 10.3237 25.4926C10.1537 25.3126 9.88369 25.5726 9.96369 25.7726C10.6192 27.4804 10.958 29.2934 10.9637 31.1226C10.9637 31.2626 11.2037 31.2926 11.2437 31.1226C11.5381 29.8612 11.4617 28.5416 11.0237 27.3226Z" fill="white"/>
<path d="M12.4638 9.61251C12.7238 10.6125 13.8838 10.8725 14.7138 11.2325C15.2168 11.5427 15.7536 11.7943 16.3138 11.9825C16.6642 12.0476 17.0235 12.0476 17.3738 11.9825C17.1528 12.2564 16.8578 12.4612 16.5238 12.5725C16.4879 12.5857 16.4575 12.6107 16.4375 12.6434C16.4176 12.6761 16.4092 12.7145 16.4138 12.7525C16.5738 13.5925 15.7638 14.1225 15.5238 14.8525C15.4742 15.1521 15.4934 15.4591 15.58 15.7502C15.6666 16.0413 15.8184 16.3088 16.0238 16.5325C16.5077 17.2174 17.156 17.7696 17.9092 18.1384C18.6623 18.5071 19.4961 18.6804 20.3338 18.6425C20.9538 18.5525 21.2738 17.8225 21.6838 17.4425C22.3638 16.8125 23.1338 16.7125 23.4838 15.7625C24.0038 14.3825 23.1238 12.7625 22.2638 11.6825C22.8638 11.1525 23.7538 11.5525 24.4538 11.7625C25.092 12.0071 25.7894 12.0524 26.4538 11.8925C27.3162 11.5432 28.0268 10.8992 28.4589 10.0752C28.8911 9.2512 29.0168 8.30057 28.8138 7.39251C28.2238 5.33251 25.8838 4.59251 23.9538 4.49251C23.1739 4.3543 22.3706 4.51497 21.7038 4.94252C21.4062 5.25318 21.1868 5.63025 21.0638 6.04252C20.8836 6.53388 20.6488 7.00349 20.3638 7.44252C20.433 7.14659 20.4339 6.83878 20.3663 6.54248C20.2987 6.24619 20.1645 5.96918 19.9738 5.73251C19.1938 5.03251 19.2938 3.92251 18.4138 3.28251C17.1638 2.37251 15.5438 4.45251 14.5338 4.92251C14.1582 5.05624 13.8212 5.28035 13.5527 5.57508C13.2841 5.8698 13.0922 6.22609 12.9938 6.61251C12.5413 7.54367 12.3578 8.58267 12.4638 9.61251ZM15.2638 5.25251C16.0338 4.86251 17.0238 3.44251 17.9738 3.75251C18.7338 3.99251 18.6038 5.15251 18.9738 5.75251C19.3438 6.35251 19.5738 6.06251 19.6938 6.75251C19.7287 7.28752 19.6985 7.82479 19.6038 8.35251C19.5942 8.41426 19.6034 8.4775 19.6303 8.53392C19.6572 8.59034 19.7005 8.63731 19.7546 8.66867C19.8086 8.70003 19.8709 8.71431 19.9332 8.70964C19.9956 8.70498 20.055 8.68158 20.1038 8.64251C20.6956 8.1867 21.1519 7.57823 21.4238 6.88251C21.6538 6.36251 21.7838 5.60252 22.3438 5.33252C22.8241 5.17642 23.3329 5.12861 23.8338 5.19252C26.0438 5.26252 28.5238 6.34251 28.1538 8.91251C28.0594 9.4219 27.8463 9.90189 27.5318 10.3136C27.2174 10.7254 26.8104 11.0573 26.3438 11.2825C26.0075 11.3945 25.6524 11.4388 25.2989 11.4131C24.9453 11.3874 24.6004 11.292 24.2838 11.1325C23.2838 10.8225 22.2838 10.5925 21.5538 11.5125C21.5109 11.5684 21.4876 11.637 21.4876 11.7075C21.4876 11.778 21.5109 11.8466 21.5538 11.9025C22.4138 12.9625 23.7238 15.1325 22.3338 16.2825C21.8139 16.6166 21.3162 16.984 20.8438 17.3825C20.6937 17.5957 20.5265 17.7964 20.3438 17.9825C19.9838 18.2925 19.0938 17.9825 18.7138 17.8525C17.9052 17.5519 17.1764 17.0695 16.5838 16.4425C16.4223 16.3087 16.2902 16.1429 16.1959 15.9555C16.1016 15.7681 16.0471 15.5632 16.0358 15.3538C16.0246 15.1443 16.0568 14.9348 16.1304 14.7384C16.2041 14.542 16.3176 14.3629 16.4638 14.2125C16.6842 13.9263 16.8006 13.5737 16.7938 13.2125C16.7938 12.7925 17.4638 12.4125 17.7038 12.0025H17.8338C17.8895 11.9946 17.9398 11.9648 17.9735 11.9198C18.0073 11.8748 18.0218 11.8182 18.0138 11.7625C18.0059 11.7068 17.9761 11.6566 17.9311 11.6228C17.8861 11.5891 17.8295 11.5746 17.7738 11.5825C17.3738 11.5825 16.9738 11.7025 16.5738 11.7025C16.0596 11.6138 15.5849 11.3695 15.2138 11.0025C14.4038 10.3725 12.9538 10.4125 12.9838 9.06251C13.0712 8.33327 13.2597 7.61976 13.5438 6.94252C13.9038 5.85252 14.4138 5.69251 15.2638 5.25251Z" fill="#350300"/>
<path d="M29.794 25.7025C30.0901 24.6404 30.0436 23.512 29.6612 22.4778C29.2788 21.4436 28.5799 20.5564 27.664 19.9425C27.004 19.4725 26.324 19.0425 25.664 18.6425C25.804 18.5125 25.954 18.3825 26.084 18.2425C26.9932 17.1777 27.7844 16.0176 28.444 14.7825C29.2453 13.4857 30.435 12.4744 31.844 11.8925C33.394 11.2825 33.4539 9.44252 33.2239 8.00252C32.8645 6.31038 31.9406 4.79064 30.604 3.69252C29.3741 2.61587 27.8247 1.97292 26.194 1.86252C25.294 1.80252 24.3539 1.86251 23.4739 1.73251C23.1239 1.61251 22.764 1.47251 22.404 1.31251C22.044 1.15251 21.504 0.872513 21.054 0.662513C21.0182 0.635338 20.9847 0.605238 20.9539 0.572517C20.9274 0.55446 20.896 0.544807 20.8639 0.544807C20.8318 0.544807 20.8005 0.55446 20.774 0.572517C20.2986 0.347973 19.7985 0.180152 19.2839 0.0725169C17.2347 -0.202818 15.1574 0.312028 13.474 1.51252C12.5966 2.09603 11.8113 2.80719 11.1439 3.62252C9.90571 3.41754 8.6422 3.41754 7.40396 3.62252C6.25968 3.77982 5.16747 4.20032 4.21315 4.851C3.25883 5.50167 2.4684 6.36479 1.90396 7.37252C1.38081 8.38457 1.12602 9.51389 1.16395 10.6525C1.24316 12.1661 1.1153 13.6835 0.783948 15.1625C0.193948 17.3925 -0.556041 19.5925 0.623959 21.7625C1.80396 23.9325 4.00395 24.3925 6.30395 24.6125C6.76922 24.6575 7.23654 24.6775 7.70395 24.6725C7.79181 24.9174 7.89194 25.1577 8.00395 25.3925C8.37395 26.1225 8.80395 26.8225 9.13395 27.5425C9.32395 28.5425 9.37395 29.5425 9.50395 30.5425C9.48866 30.5845 9.48866 30.6305 9.50395 30.6725C9.59375 31.3603 9.77538 32.033 10.044 32.6725C10.5548 33.6787 11.2595 34.5739 12.1176 35.3067C12.9757 36.0396 13.9702 36.5955 15.044 36.9425C16.9049 37.7152 18.9824 37.7898 20.8939 37.1525C23.2439 36.2925 24.294 34.2325 25.294 32.1525C26.384 29.7225 28.954 28.2825 29.794 25.7025ZM20.794 21.7025C21.094 21.5725 21.3839 21.4425 21.6739 21.2925C22.0858 21.3303 22.4797 21.4789 22.8139 21.7225C23.3076 21.9933 23.8528 22.1569 24.414 22.2025C25.314 22.3125 25.4139 23.6625 25.5039 24.3825C25.5923 25.334 25.3789 26.2892 24.8939 27.1125C24.4839 27.7425 23.7939 27.5325 23.1739 27.5225C22.8099 27.5181 22.4558 27.642 22.1739 27.8725C22.0739 27.9425 21.514 27.6325 21.434 27.6025C21.2388 27.5677 21.0391 27.5677 20.844 27.6025L20.764 27.5025C20.7295 27.4574 20.6785 27.4279 20.6222 27.4204C20.566 27.4129 20.509 27.428 20.464 27.4625C20.4189 27.497 20.3893 27.548 20.3818 27.6042C20.3743 27.6605 20.3895 27.7174 20.4239 27.7625C20.7979 28.168 21.0809 28.6487 21.2539 29.1725C21.294 29.6365 21.2738 30.1037 21.194 30.5625C21.144 31.4025 21.6939 32.2725 20.9539 32.9825C20.2289 33.438 19.3991 33.6997 18.544 33.7425C18.266 33.8392 17.9682 33.8642 17.6781 33.8152C17.3879 33.7663 17.1148 33.645 16.884 33.4625C15.964 32.7825 14.554 32.6525 13.794 31.8125C13.034 30.9725 14.564 30.2525 14.844 29.6225C15.044 29.1525 14.844 28.9325 15.334 28.4925C15.7765 28.1987 16.2534 27.9603 16.7539 27.7825C16.812 27.7581 16.8616 27.7171 16.8965 27.6646C16.9314 27.6121 16.95 27.5505 16.95 27.4875C16.95 27.4245 16.9314 27.3629 16.8965 27.3104C16.8616 27.2579 16.812 27.2169 16.7539 27.1925C16.0839 26.9153 15.3511 26.8254 14.634 26.9325C14.1553 27.0187 13.6703 27.0656 13.184 27.0725C12.654 27.0725 12.3539 26.4525 12.1139 26.0725C11.7463 25.4794 11.4667 24.836 11.2839 24.1625C11.8546 23.993 12.4099 23.7755 12.944 23.5125C14.1027 22.8954 15.341 22.4411 16.624 22.1625H16.774C17.034 23.1625 17.254 24.3425 18.514 24.5225C18.5836 24.5327 18.6547 24.5196 18.7162 24.4852C18.7777 24.4508 18.8261 24.3972 18.854 24.3325C19.1174 23.6346 19.4849 22.9805 19.944 22.3925C20.0119 22.3046 20.0854 22.2211 20.164 22.1425C20.3974 22.0276 20.613 21.8794 20.804 21.7025H20.794ZM17.374 22.0425H17.574C17.9636 22.1357 18.3634 22.1793 18.764 22.1725C18.9088 22.2063 19.0558 22.2297 19.2039 22.2425C18.8753 22.7244 18.6003 23.2408 18.384 23.7825C17.724 23.5425 17.534 22.7525 17.384 22.0425H17.374ZM13.844 2.04252C14.7312 1.39525 15.7565 0.962639 16.8393 0.778709C17.9221 0.594779 19.0327 0.664542 20.084 0.982513C20.4879 1.13448 20.882 1.31149 21.264 1.51252C21.8975 2.02591 22.6712 2.33611 23.484 2.40252C24.2479 2.55132 25.026 2.61503 25.804 2.59251C25.804 2.59251 25.854 2.59251 25.884 2.59251C26.9056 2.65951 27.9015 2.94183 28.8063 3.42095C29.7111 3.90007 30.5044 4.56515 31.134 5.37252C31.826 6.2438 32.2869 7.27568 32.4739 8.37252C32.5423 8.92849 32.5254 9.49163 32.4239 10.0425C32.2639 11.0425 31.5039 11.1825 30.7039 11.5525C28.2239 12.7025 27.3339 15.6125 25.7039 17.5525C24.6549 18.6846 23.4034 19.6105 22.014 20.2825C20.8509 21.0523 19.4781 21.4436 18.084 21.4025C14.7339 21.0225 14.1339 17.4025 13.1739 14.8425C12.6683 13.7092 12.0269 12.6413 11.264 11.6625C10.4033 10.4656 9.99575 9.00196 10.1139 7.53252C10.2739 5.19252 12.024 3.29252 13.854 2.01252L13.844 2.04252ZM10.384 16.5925C10.534 18.2025 10.3039 20.8225 8.14395 20.6525C7.62631 20.6101 7.10548 20.6747 6.61395 20.8425C5.84395 21.0825 5.45395 20.8425 4.91395 20.2225C4.05395 19.2225 2.83395 16.5925 4.50395 15.8625C4.94455 15.7249 5.33889 15.4689 5.64395 15.1225C6.00395 14.6725 6.58396 14.8225 7.12396 14.5325L7.25395 14.5925C7.50395 14.7125 7.65395 14.3225 7.41395 14.1925C6.89971 13.9956 6.43286 13.6923 6.04396 13.3025C5.79597 12.9041 5.60416 12.4734 5.47395 12.0225C5.04395 11.0225 4.02396 10.4025 4.96396 9.26252C5.47722 8.71893 6.05094 8.23579 6.67395 7.82252C7.28395 7.34252 7.76396 7.49252 8.46396 7.58252C8.77277 7.6209 9.08514 7.6209 9.39395 7.58252C9.30367 9.19944 9.74631 10.8013 10.654 12.1425C11.4687 13.2648 12.1405 14.4842 12.654 15.7725C12.874 16.4025 13.0639 17.0625 13.2839 17.7025L13.2039 17.6225C12.4939 16.7725 11.7739 15.8825 10.5639 16.2925C10.5131 16.317 10.4701 16.3553 10.4401 16.403C10.41 16.4508 10.394 16.5061 10.3939 16.5625L10.384 16.5925ZM6.38395 23.8725C4.93763 23.8881 3.5187 23.4777 2.30395 22.6925C-0.206048 20.6925 0.903947 17.5825 1.56395 15.0525C1.85525 13.8863 1.96322 12.6819 1.88395 11.4825C1.70761 9.87579 2.09273 8.25755 2.97395 6.90252C4.59395 4.53252 7.97396 3.90252 10.684 4.21252C10.2605 4.8302 9.92405 5.50317 9.68396 6.21252C9.60544 6.44486 9.54198 6.68201 9.49395 6.92252C9.04562 6.97735 8.59228 6.97735 8.14395 6.92252C7.82364 6.8529 7.49196 6.85443 7.1723 6.927C6.85264 6.99957 6.55281 7.14141 6.29396 7.34251C5.37977 7.90294 4.60654 8.6659 4.03395 9.57252C3.55395 10.4825 4.30395 11.4225 4.81395 12.1025C5.32395 12.7825 5.43395 13.2925 5.86395 13.8125C6.12213 14.0785 6.43644 14.2835 6.78395 14.4125C6.4564 14.5004 6.11149 14.5004 5.78395 14.4125C5.74458 14.4073 5.7046 14.4153 5.67024 14.4352C5.63587 14.4551 5.60906 14.4858 5.59396 14.5225C5.24396 15.3425 4.22396 15.3025 3.59396 15.8625C3.40337 16.117 3.26911 16.4091 3.20015 16.7195C3.13118 17.0298 3.12907 17.3513 3.19395 17.6625C3.25395 18.4594 3.50409 19.2303 3.92341 19.9106C4.34273 20.5909 4.91902 21.1608 5.60396 21.5725C6.12396 21.8325 6.70395 21.4825 7.19395 21.3625C8.03395 21.1525 8.77395 21.4625 9.58395 21.0725C11.014 20.4025 11.164 18.2425 11.054 16.8225C11.924 16.7025 12.504 17.7025 13.054 18.2925C13.2875 18.566 13.5645 18.7992 13.874 18.9825C13.9834 19.2229 14.1069 19.4567 14.244 19.6825C14.7195 20.4446 15.38 21.0741 16.164 21.5125C14.014 22.0025 12.164 23.3225 9.99395 23.7525C8.79412 23.9522 7.5722 23.9825 6.36395 23.8425L6.38395 23.8725ZM21.684 36.0025C19.614 37.4325 16.9439 37.0025 14.7539 36.1525C13.6552 35.7438 12.6713 35.0758 11.8861 34.2053C11.1009 33.3348 10.5376 32.2875 10.244 31.1525C10.1545 30.6977 10.1043 30.236 10.094 29.7725C10.2169 28.933 10.0845 28.0758 9.71396 27.3125C9.45875 26.6096 9.12319 25.9384 8.71396 25.3125C8.70572 25.2973 8.69431 25.2841 8.68051 25.2738C8.6667 25.2634 8.65082 25.2562 8.63395 25.2525C8.54395 25.0625 8.46395 24.8525 8.38395 24.6525C9.15913 24.6134 9.92906 24.503 10.684 24.3225C10.8621 24.9612 11.1103 25.5783 11.4239 26.1625C11.7239 26.7225 12.184 27.5425 12.884 27.6725C13.8186 27.6862 14.7533 27.6495 15.684 27.5625C15.1328 27.7625 14.6739 28.1574 14.3939 28.6725C14.3413 28.8518 14.3078 29.0362 14.294 29.2225C14.214 29.7325 13.8139 29.8125 13.5639 30.1325C13.2368 30.4992 13.0523 30.9712 13.044 31.4625C13.044 32.1625 13.684 32.5825 14.244 32.8625C15.1255 33.22 15.9752 33.6515 16.7839 34.1525C17.0955 34.3311 17.4429 34.4381 17.8009 34.4658C18.159 34.4935 18.5187 34.4411 18.854 34.3125C19.684 34.1425 21.044 34.0225 21.574 33.2525C22.104 32.4825 21.894 31.5425 21.794 30.5525C21.7776 29.9838 21.7308 29.4163 21.654 28.8525C21.5501 28.4792 21.358 28.1362 21.094 27.8525C21.4397 27.9072 21.7624 28.0599 22.024 28.2925C22.0555 28.3168 22.0941 28.33 22.134 28.33C22.1738 28.33 22.2124 28.3168 22.244 28.2925C22.804 27.8025 23.534 28.0725 24.244 28.0625C24.5171 28.0365 24.7787 27.9399 25.0032 27.7821C25.2276 27.6243 25.4071 27.4108 25.524 27.1625C25.9394 26.4199 26.1666 25.5869 26.1858 24.7362C26.205 23.8855 26.0155 23.0431 25.634 22.2825C25.5036 22.0546 25.316 21.8647 25.0898 21.7314C24.8636 21.5981 24.6065 21.5261 24.344 21.5225C23.7117 21.3819 23.1024 21.153 22.5339 20.8425L22.9239 20.6225C23.6705 20.1988 24.3738 19.7031 25.024 19.1425C26.3235 19.7626 27.481 20.6444 28.4239 21.7325C28.8378 22.346 29.0937 23.0523 29.1687 23.7885C29.2437 24.5248 29.1356 25.2682 28.854 25.9525C28.1824 27.2113 27.3111 28.3528 26.274 29.3325C25.448 30.2465 24.7728 31.2862 24.274 32.4125C23.7624 33.8244 22.8566 35.0599 21.664 35.9725L21.684 36.0025Z" fill="#350300"/>
</svg>
